<svg width="58" height="54" viewBox="0 0 58 54" fill="none" xmlns="http://www.w3.org/2000/svg">
<rect y="54" width="54" height="57.1765" rx="10" transform="rotate(-90 0 54)" fill="white"/>
<g clip-path="url(#clip0_119_27842)">
<path d="M15.4315 41.9999C15.0248 41.8513 14.6415 41.6714 14.3755 41.3037C14.1408 40.983 14.0078 40.6232 14.0078 40.2164C14.0078 34.6153 14.0078 29.0143 14.0078 23.4132C14.0078 22.584 14.4459 22.0286 15.1577 21.747C15.6428 21.5514 15.7679 21.2855 15.7288 20.8161C15.6819 20.2372 15.7914 19.6896 16.2295 19.2516C16.4094 19.0717 16.6206 18.923 16.8631 18.8448C17.5124 18.6336 18.1617 18.4224 18.8109 18.219C19.1317 18.1173 19.3976 18.2425 19.4759 18.5084C19.5541 18.7822 19.4133 19.0091 19.0769 19.1186C18.4902 19.3063 17.9035 19.4863 17.3246 19.6818C16.8474 19.8383 16.6832 20.0651 16.6832 20.5658C16.6832 25.4941 16.6832 30.4224 16.6832 35.3507C16.6832 35.6792 16.6832 35.6792 17.0195 35.5697C18.5293 35.0612 20.0469 34.5919 21.6193 34.3494C23.927 33.9973 26.1486 34.2164 28.2373 35.335C28.5345 35.4915 28.5424 35.4915 28.5424 35.1395C28.5424 30.1564 28.5424 25.1655 28.5502 20.1825C28.5502 19.9087 28.4563 19.7601 28.2295 19.6271C26.7901 18.7822 25.2255 18.3833 23.5671 18.3833C22.7536 18.3833 21.9322 18.4693 21.1265 18.6336C20.6493 18.7353 20.3833 18.6258 20.3207 18.305C20.2581 17.9999 20.4615 17.7966 20.9231 17.7105C23.1995 17.2803 25.4446 17.335 27.6115 18.2737C28.0182 18.4458 28.4094 18.6414 28.7849 18.8761C28.9491 18.9856 29.09 18.9934 29.262 18.8839C31.1551 17.734 33.2203 17.3194 35.4029 17.4758C37.2803 17.6166 39.0795 18.1408 40.8553 18.7431C41.1447 18.837 41.4263 18.9308 41.6688 19.1264C42.0991 19.4784 42.279 19.9478 42.3181 20.4876C42.3181 20.5267 42.3259 20.5658 42.3181 20.6049C42.2164 21.2073 42.365 21.614 43.0378 21.8018C43.5697 21.9504 43.8201 22.4745 44.0156 22.983C44.0156 28.8813 44.0156 34.7718 44.0156 40.6701C43.7731 41.3585 43.3038 41.8044 42.6076 42.0156C42.3572 42.0156 42.0991 42.0156 41.8488 42.0156C40.9335 41.6714 40.0026 41.3976 39.0717 41.1003C38.9778 41.069 38.884 41.0456 38.7979 40.9986C38.5789 40.8813 38.5085 40.6857 38.571 40.4511C38.6336 40.2086 38.8214 40.099 39.0639 40.1303C39.236 40.1538 39.4081 40.2086 39.5723 40.2633C40.3546 40.5136 41.1291 40.7796 41.9113 41.0221C42.5606 41.2255 43.0691 40.8657 43.116 40.1851C43.1238 40.0756 43.116 39.9739 43.116 39.8644C43.116 36.0078 43.116 32.1512 43.116 28.3024C43.116 26.7379 43.116 25.1812 43.116 23.6166C43.116 23.3272 43.0691 23.0456 42.8579 22.8344C42.7249 22.7092 42.5684 22.5215 42.3885 22.5919C42.2399 22.6466 42.3259 22.8735 42.3259 23.0221C42.3259 27.794 42.3259 32.5658 42.3259 37.3376C42.3259 37.6349 42.3103 37.9243 42.2086 38.2059C41.8957 39.0743 41.0039 39.4889 40.0495 39.1838C38.6102 38.7222 37.1551 38.3076 35.6454 38.1512C33.6428 37.9478 31.734 38.2294 29.9739 39.262C29.3403 39.6297 28.7223 39.6375 28.0886 39.262C27.6193 38.9882 27.1186 38.7535 26.6023 38.5736C24.7484 37.9243 22.8631 37.9947 20.97 38.3702C19.8983 38.5814 18.8657 38.9413 17.8096 39.2307C16.9257 39.4732 16.0339 38.9413 15.807 38.073C15.7444 37.8305 15.7288 37.5723 15.7288 37.322C15.7288 32.558 15.7288 27.794 15.7288 23.0378C15.7288 22.9439 15.7288 22.8422 15.7288 22.7483C15.7288 22.5684 15.6506 22.5528 15.5098 22.6232C15.0795 22.8344 14.9387 23.1942 14.9387 23.6558C14.9387 29.1082 14.9387 34.5684 14.9387 40.0208C14.9387 40.9048 15.4472 41.2724 16.2764 40.9986C17.3559 40.6388 18.4355 40.2633 19.5385 39.9504C21.0561 39.5202 22.5815 39.1681 24.1695 39.2151C25.6558 39.262 27.0091 39.6766 28.1043 40.7561C28.5893 41.2411 29.4654 41.2333 29.9739 40.7718C30.6232 40.1773 31.3664 39.7627 32.2112 39.5514C33.9478 39.1134 35.6767 39.3011 37.3976 39.6923C37.648 39.747 37.7653 39.9426 37.734 40.2007C37.7027 40.4511 37.5072 40.6075 37.2412 40.5919C37.1473 40.584 37.0456 40.5684 36.9517 40.5449C35.7627 40.3102 34.5658 40.1381 33.3533 40.279C32.4224 40.3885 31.5541 40.6544 30.8344 41.2803C30.4511 41.6166 30.0521 41.8983 29.5593 42.0234C29.2308 42.0234 28.8944 42.0234 28.5658 42.0234C28.0574 41.8826 27.6271 41.6166 27.2516 41.249C26.884 40.8813 26.4224 40.6388 25.9296 40.4589C24.7484 40.0365 23.5358 40.0599 22.3233 40.2477C20.2112 40.5684 18.2164 41.3194 16.2138 42.0234C15.9322 41.9999 15.6819 41.9999 15.4315 41.9999ZM29.4889 27.6297C29.4889 30.1408 29.4889 32.644 29.4889 35.1551C29.4889 35.4837 29.4967 35.4837 29.7862 35.3272C31.8748 34.2086 34.0965 33.9895 36.4042 34.3415C37.9922 34.584 39.5176 35.0612 41.0274 35.5775C41.3246 35.6792 41.3481 35.6714 41.3481 35.3585C41.3481 30.4224 41.3481 25.4863 41.3481 20.5501C41.3481 20.0808 41.1838 19.8461 40.7458 19.6975C40.1278 19.4941 39.5019 19.2907 38.8761 19.1029C37.468 18.6805 36.0365 18.3833 34.5658 18.3754C32.8761 18.3598 31.2881 18.7666 29.8096 19.6192C29.5671 19.7601 29.4811 19.9243 29.4811 20.1981C29.4967 22.6779 29.4889 25.1499 29.4889 27.6297ZM23.6297 35.1473C23.0274 35.1473 22.4876 35.1707 21.94 35.249C20.4302 35.468 18.9752 35.9139 17.528 36.3833C16.6128 36.6805 16.6128 36.6805 16.6753 37.6271C16.6753 37.6427 16.6753 37.6662 16.6753 37.6818C16.7301 38.1277 17.1291 38.4015 17.5593 38.292C17.7392 38.2451 17.9113 38.1825 18.0913 38.1277C19.6323 37.6271 21.2047 37.2281 22.824 37.1186C24.8579 36.9856 26.7823 37.3846 28.558 38.425C28.8709 38.6049 29.1525 38.6049 29.4654 38.4172C29.8722 38.1825 30.2868 37.9791 30.7249 37.7992C32.7901 36.97 34.9022 36.9465 37.0534 37.3689C38.1408 37.5801 39.2047 37.8617 40.2373 38.2372C40.9491 38.4954 41.4107 38.026 41.3481 37.4393C41.3325 37.2672 41.3403 37.0873 41.3481 36.9152C41.3559 36.7431 41.2855 36.6492 41.1212 36.5945C39.3455 35.9921 37.5697 35.4054 35.6923 35.202C33.455 34.9517 31.3585 35.3272 29.4654 36.6101C29.1447 36.8213 28.8866 36.837 28.558 36.6179C27.0561 35.6166 25.3976 35.1003 23.6297 35.1473Z" fill="#22BECA"/>
<path d="M28.9648 16.5997C28.7692 16.584 28.5658 16.498 28.425 16.3024C28.3937 16.2633 28.3703 16.2242 28.3468 16.1773C28.1199 15.5749 27.6819 15.2072 27.1108 14.9335C26.5476 14.6675 26.5554 13.9634 27.0873 13.6427C27.1186 13.6192 27.1577 13.6036 27.189 13.588C27.7053 13.3846 28.0652 13.0404 28.2764 12.5241C28.3937 12.2268 28.6049 11.9921 28.9804 11.9999C29.3481 12.0078 29.5906 12.2112 29.7236 12.5241C29.927 13.0404 30.2868 13.3689 30.7875 13.5801C31.1004 13.7131 31.2959 13.9321 31.2959 14.292C31.2959 14.6362 31.1004 14.8709 30.8031 14.9882C30.2399 15.2072 29.8957 15.6218 29.6532 16.1616C29.5358 16.4667 29.2933 16.5997 28.9648 16.5997ZM27.9478 14.292C28.3781 14.5189 28.7379 14.777 28.91 15.2229C28.957 15.3559 29.0665 15.3481 29.1134 15.2229C29.2777 14.8161 29.5749 14.558 29.9583 14.3859C30.0756 14.3389 30.0756 14.2529 29.9583 14.2059C29.5515 14.0338 29.2699 13.7444 29.0978 13.3376C29.0508 13.2203 28.9648 13.2281 28.9178 13.3376C28.7457 13.7913 28.3937 14.073 27.9478 14.292Z" fill="#22BECA"/>
<path d="M22.6124 32.2372C22.3543 32.245 22.1587 32.1355 22.0101 31.9321C21.9866 31.9008 21.9631 31.8695 21.9475 31.8304C21.7128 31.2359 21.2904 30.8604 20.7193 30.5866C20.1326 30.305 20.1483 29.6166 20.7115 29.288C20.735 29.2724 20.7584 29.2567 20.7897 29.2489C21.3373 29.0377 21.6972 28.6466 21.924 28.1068C22.0414 27.8252 22.2682 27.6531 22.5811 27.6453C22.9097 27.6296 23.1522 27.8017 23.2773 28.0912C23.512 28.67 23.9266 29.0299 24.482 29.288C24.9436 29.5071 25.0453 29.9843 24.7793 30.3676C24.6932 30.4927 24.5759 30.5866 24.4351 30.6335C23.8719 30.8526 23.5198 31.2515 23.2773 31.7991C23.1365 32.1277 22.9175 32.2372 22.6124 32.2372ZM22.5889 28.8421C22.3856 29.3193 22.1039 29.6713 21.6424 29.8747C21.4547 29.9608 21.6346 30.0468 21.7128 30.0781C22.0726 30.2346 22.323 30.4849 22.4716 30.8447C22.5577 31.0481 22.6437 31.0247 22.7298 30.8369C22.8862 30.4693 23.1522 30.2111 23.5198 30.0625C23.5746 30.039 23.6528 30.0234 23.6528 29.9217C23.4573 29.7887 23.2226 29.7026 23.0427 29.5384C22.8549 29.3584 22.7923 29.1003 22.5889 28.8421Z" fill="#22BECA"/>
<path d="M27.1421 23.0378C27.1499 23.3742 26.8057 23.601 26.4537 23.4524C25.9765 23.2568 25.4915 23.0769 24.983 22.983C23.6141 22.7249 22.2686 22.8657 20.9231 23.1786C20.266 23.3272 19.6245 23.515 18.983 23.7184C18.8814 23.7496 18.7797 23.7888 18.6701 23.8044C18.3807 23.8513 18.1617 23.7184 18.0991 23.468C18.0365 23.2255 18.1617 22.9908 18.4355 22.9048C18.9283 22.7483 19.4211 22.5997 19.9218 22.4589C21.2047 22.0991 22.5033 21.8487 23.8409 21.8957C24.8422 21.927 25.8123 22.146 26.7353 22.545C26.9465 22.6466 27.1186 22.7796 27.1421 23.0378Z" fill="#22BECA"/>
<path d="M23.7236 24.9699C21.9948 24.9778 20.5163 25.3689 19.0535 25.8226C18.9205 25.8617 18.7953 25.9087 18.6623 25.94C18.4198 25.9947 18.1695 25.8461 18.1069 25.6192C18.0365 25.3689 18.1304 25.1812 18.3651 25.0638C18.4355 25.0325 18.5137 25.0091 18.5841 24.9856C19.8279 24.5866 21.0874 24.2424 22.3859 24.086C23.8331 23.9139 25.2412 24.0625 26.6023 24.6257C26.6728 24.657 26.7432 24.6883 26.8136 24.7196C27.103 24.8682 27.2047 25.0873 27.103 25.3376C26.9935 25.5958 26.7432 25.6975 26.4381 25.5801C25.914 25.3689 25.382 25.1812 24.8188 25.0795C24.3964 25.0012 23.9739 24.9543 23.7236 24.9699Z" fill="#22BECA"/>
<path d="M23.5671 19.7835C24.6623 19.7522 25.7497 19.9869 26.7823 20.4563C27.0717 20.5893 27.189 20.7927 27.1186 21.0273C27.0326 21.3402 26.751 21.4654 26.4224 21.3246C25.8827 21.0899 25.3272 20.91 24.7484 20.8161C23.5828 20.6206 22.4407 20.7379 21.2907 20.9726C20.485 21.1369 19.7027 21.3715 18.9205 21.614C18.8344 21.6375 18.7562 21.6688 18.6701 21.6844C18.3963 21.7314 18.1695 21.5984 18.0991 21.3481C18.0365 21.1134 18.1382 20.8787 18.4042 20.7927C18.897 20.6284 19.3898 20.4797 19.8905 20.3389C21.0795 20.026 22.2764 19.7679 23.5671 19.7835Z" fill="#22BECA"/>
<path d="M37.7262 23.2646C37.7105 23.5072 37.6323 23.7184 37.4133 23.867C37.3742 23.8905 37.3351 23.9218 37.2881 23.9452C36.7014 24.1721 36.3025 24.5789 36.0678 25.1577C35.9504 25.4472 35.7001 25.588 35.395 25.5802C35.0821 25.5723 34.8553 25.4159 34.7379 25.1264C34.5111 24.5789 34.1434 24.1877 33.588 23.9609C33.2829 23.8435 33.103 23.5932 33.1108 23.2568C33.1186 22.9439 33.2907 22.7327 33.5723 22.5997C33.6193 22.5763 33.6584 22.545 33.6975 22.5293C34.1747 22.3494 34.4876 22.0208 34.6753 21.5515C34.7066 21.4733 34.7536 21.395 34.8083 21.3246C35.1134 20.8553 35.794 20.824 36.0287 21.3324C36.3259 21.9583 36.7405 22.3963 37.3742 22.6701C37.6167 22.7718 37.7027 23.0065 37.7262 23.2646ZM36.5059 23.2803C35.9817 23.0691 35.6454 22.6936 35.4029 22.1929C35.1995 22.7249 34.8318 23.0534 34.3233 23.2725C34.8396 23.4915 35.1916 23.8513 35.4185 24.4459C35.6375 23.8513 35.9817 23.4915 36.5059 23.2803Z" fill="#22BECA"/>
<path d="M39.377 31.4236C39.2988 31.4002 39.1815 31.3767 39.0719 31.3376C37.9298 30.9777 36.7721 30.6492 35.5752 30.5162C34.3079 30.3832 33.0641 30.438 31.8673 30.9386C31.7421 30.9934 31.6169 31.0481 31.4839 31.0872C31.2336 31.1577 31.0381 31.0638 30.9207 30.8369C30.8034 30.6101 30.8894 30.4145 31.0772 30.2737C31.1789 30.1955 31.2962 30.1485 31.4135 30.1016C32.8216 29.4914 34.3001 29.3897 35.8021 29.5853C37.0615 29.7496 38.2819 30.0859 39.4866 30.4771C39.5257 30.4927 39.5648 30.5005 39.5961 30.5162C39.8464 30.6179 39.9716 30.8369 39.909 31.0716C39.8542 31.3376 39.6665 31.4236 39.377 31.4236Z" fill="#22BECA"/>
<path d="M39.94 33.0977C39.9322 33.4263 39.6271 33.614 39.2594 33.5123C38.618 33.3324 37.9922 33.129 37.3507 32.9647C36.3338 32.7066 35.309 32.5501 34.2607 32.5736C33.3924 32.5971 32.5632 32.7692 31.7653 33.1056C31.7105 33.129 31.6558 33.1525 31.601 33.176C31.2959 33.2855 31.0456 33.1994 30.9361 32.9491C30.8266 32.6988 30.9361 32.4563 31.2334 32.3155C31.8435 32.0339 32.485 31.8383 33.1577 31.7288C34.7536 31.4628 36.3025 31.7131 37.8435 32.1121C38.4146 32.2607 38.9856 32.4406 39.5567 32.6127C39.7757 32.691 39.9322 32.8396 39.94 33.0977Z" fill="#22BECA"/>
<path d="M34.3854 27.3871C36.2707 27.3871 37.9135 27.8565 39.5406 28.3728C39.8613 28.4745 39.9943 28.7013 39.9239 28.9673C39.8457 29.2333 39.5797 29.3663 39.259 29.2646C38.2185 28.9438 37.1703 28.6388 36.0908 28.4588C34.5654 28.2085 33.079 28.2711 31.6475 28.9125C31.3111 29.0612 31.053 28.9751 30.9278 28.7092C30.8105 28.4432 30.9356 28.2007 31.272 28.0521C32.3202 27.5827 33.4076 27.3558 34.3854 27.3871Z" fill="#22BECA"/>
</g>
<defs>
<clipPath id="clip0_119_27842">
<rect width="30" height="30" fill="white" transform="translate(14 12)"/>
</clipPath>
</defs>
</svg>
