<svg width="101" height="101" viewBox="0 0 101 101" fill="none" xmlns="http://www.w3.org/2000/svg">
<circle cx="50.5" cy="50.5" r="49" fill="#22BECA" stroke="white" stroke-width="3"/>
<path d="M62.7498 34.1034C62.6911 43.8582 62.6325 53.6129 62.5739 63.3677C63.0417 63.1739 63.5095 62.9801 63.9774 62.7864C60.0303 58.9432 57.3244 56.0516 51.709 55.2001C49.0637 54.7989 46.3696 54.6138 43.6986 54.4876C41.6744 54.3919 39.1311 54.828 37.4603 53.4438C36.1797 52.3829 34.9608 50.3034 34.8255 48.6805C34.1886 41.035 47.3385 44.1239 51.8912 42.5355C54.1088 41.7618 56.5229 40.6886 58.4531 39.351C60.4613 37.9594 61.6457 35.9274 63.7925 34.553C64.6809 33.9843 63.8573 32.5605 62.9626 33.1333C60.5949 34.649 59.0251 36.9264 56.7359 38.4392C53.0693 40.8622 49.347 41.5395 45.0555 41.618C41.321 41.6863 33.4676 41.5115 33.0313 46.6376C32.6678 50.9077 35.5056 55.4127 39.8268 55.9964C44.0004 56.5601 48.2402 56.1804 52.4206 56.9658C56.9648 57.8196 59.6407 60.8586 62.8147 63.949C63.3245 64.4454 64.2138 64.0852 64.2182 63.3677C64.2768 53.6129 64.3354 43.8582 64.394 34.1034C64.4003 33.0452 62.7561 33.044 62.7498 34.1034Z" fill="white"/>
<path d="M44.2661 42.5073C44.2661 46.6077 44.2661 50.7081 44.2661 54.8086C44.2661 55.8665 45.9103 55.8683 45.9103 54.8086C45.9103 50.7081 45.9103 46.6077 45.9103 42.5073C45.9103 41.4493 44.2661 41.4475 44.2661 42.5073Z" fill="white"/>
<path d="M63.8056 44.474C65.5234 44.8192 67.1209 46.6994 67.3857 48.3531C67.7151 50.4106 66.4782 52.6274 64.2153 52.7101C63.1603 52.7486 63.1553 54.393 64.2153 54.3543C70.8645 54.1114 70.2301 44.0917 64.2427 42.8885C63.2095 42.6809 62.7674 44.2654 63.8056 44.474Z" fill="white"/>
<path d="M41.0466 55.5999C41.1044 57.6726 41.2249 59.7372 41.4557 61.7984C41.5262 62.4281 41.6798 63.0686 41.6924 63.699C42.099 64.6622 41.8427 65.4618 40.9235 66.0976C40.2836 67.8053 39.7136 67.8065 39.2135 66.1011C38.6791 64.5599 38.9553 62.1889 38.8472 60.552C38.7007 58.3324 38.5542 56.1127 38.4076 53.8931C38.3383 52.8427 36.6935 52.8349 36.7634 53.8931C37.0303 57.9359 37.0522 62.0837 37.5693 66.1011C37.7872 67.7939 38.4368 68.8817 40.2592 69.0843C41.9543 69.2728 43.5207 68.5207 43.721 66.727C43.8761 65.3381 43.3279 63.726 43.1628 62.3599C42.8913 60.1139 42.7539 57.8607 42.6908 55.5999C42.6613 54.544 41.017 54.5397 41.0466 55.5999Z" fill="white"/>
</svg>
