<svg width="73" height="73" viewBox="0 0 73 73" fill="none" xmlns="http://www.w3.org/2000/svg">
<circle cx="36.5" cy="36.5" r="35" fill="#22BECA" stroke="white" stroke-width="3"/>
<path d="M48.5746 19.101C48.5145 29.1124 48.4543 39.1239 48.3942 49.1353C48.8743 48.9365 49.3544 48.7376 49.8345 48.5387C45.7836 44.5944 43.0065 41.6268 37.2433 40.7528C34.5284 40.3411 31.7635 40.1511 29.0221 40.0216C26.9447 39.9234 24.3345 40.3709 22.6197 38.9503C21.3054 37.8615 20.0543 35.7272 19.9156 34.0616C19.2618 26.215 32.7578 29.3851 37.4303 27.7549C39.7063 26.9609 42.1839 25.8594 44.165 24.4866C46.226 23.0584 47.4415 20.9729 49.6448 19.5624C50.5566 18.9787 49.7113 17.5175 48.7931 18.1053C46.3631 19.6609 44.752 21.9982 42.4025 23.5509C38.6394 26.0376 34.8192 26.7327 30.4147 26.8133C26.582 26.8834 18.5219 26.704 18.0741 31.965C17.701 36.3475 20.6135 40.9711 25.0485 41.5701C29.3319 42.1486 33.6833 41.759 37.9736 42.565C42.6375 43.4412 45.3838 46.5602 48.6413 49.732C49.1645 50.2414 50.0772 49.8718 50.0817 49.1353C50.1418 39.1239 50.202 29.1124 50.2621 19.101C50.2687 18.0149 48.5812 18.0137 48.5746 19.101Z" fill="white"/>
<path d="M29.6034 27.7257C29.6034 31.934 29.6034 36.1424 29.6034 40.3507C29.6034 41.4365 31.2909 41.4383 31.2909 40.3507C31.2909 36.1424 31.2909 31.934 31.2909 27.7257C31.2909 26.6399 29.6034 26.6381 29.6034 27.7257Z" fill="white"/>
<path d="M49.6576 29.7446C51.4206 30.0988 53.0602 32.0285 53.3319 33.7257C53.67 35.8373 52.4005 38.1125 50.078 38.1974C48.9954 38.2369 48.9902 39.9246 50.078 39.8849C56.9022 39.6356 56.2512 29.3521 50.1062 28.1173C49.0458 27.9043 48.5921 29.5305 49.6576 29.7446Z" fill="white"/>
<path d="M26.3004 41.1631C26.3598 43.2903 26.4835 45.4093 26.7203 47.5248C26.7927 48.171 26.9503 48.8284 26.9632 49.4754C27.3806 50.4639 27.1175 51.2845 26.1742 51.9371C25.5174 53.6898 24.9324 53.6909 24.4192 51.9407C23.8707 50.3589 24.1541 47.9255 24.0432 46.2456C23.8928 43.9675 23.7424 41.6894 23.5921 39.4114C23.5209 38.3333 21.8329 38.3254 21.9046 39.4114C22.1785 43.5606 22.201 47.8176 22.7317 51.9407C22.9553 53.678 23.622 54.7944 25.4924 55.0024C27.232 55.1958 28.8397 54.4239 29.0453 52.583C29.2045 51.1576 28.6418 49.503 28.4724 48.101C28.1937 45.7959 28.0527 43.4834 27.9879 41.1631C27.9577 40.0795 26.2701 40.0751 26.3004 41.1631Z" fill="white"/>
</svg>
