<svg width="14" height="14" viewBox="0 0 14 14" fill="none" xmlns="http://www.w3.org/2000/svg">
<path d="M0.470599 4.37136C0.40857 4.37159 0.347191 4.38433 0.289969 4.40895C0.232747 4.43358 0.180802 4.46956 0.137102 4.51484C0.0934014 4.56011 0.0588012 4.61385 0.0352776 4.67288C0.011754 4.73191 -0.000232195 4.79513 3.4919e-06 4.85893V13.1159C0.000443887 13.2441 0.0501657 13.3669 0.138324 13.4576C0.226483 13.5483 0.345925 13.5995 0.470599 13.5999H12.7514C12.8761 13.5995 12.9955 13.5483 13.0837 13.4576C13.1718 13.3669 13.2216 13.2441 13.222 13.1159V4.85893C13.2222 4.79513 13.2102 4.73191 13.1867 4.67288C13.1632 4.61385 13.1286 4.56011 13.0849 4.51484C13.0412 4.46956 12.9893 4.43358 12.932 4.40895C12.8748 4.38433 12.8134 4.37159 12.7514 4.37136H0.470599ZM0.944681 5.34297H12.2773V12.6283H0.944681V5.34297ZM0.470599 1.45725C0.408568 1.45748 0.347188 1.47028 0.289964 1.4949C0.232741 1.51952 0.180795 1.55551 0.137094 1.60078C0.0933935 1.64606 0.0587938 1.69975 0.0352715 1.75877C0.0117491 1.81779 -0.000235039 1.88098 3.4919e-06 1.94477V4.85893C0.000438378 4.98714 0.0501578 5.11007 0.138317 5.20073C0.226476 5.29139 0.345921 5.34252 0.470599 5.34297H12.7514C12.8761 5.34252 12.9955 5.29139 13.0837 5.20073C13.1718 5.11007 13.2216 4.98714 13.222 4.85893V1.94477C13.2222 1.88098 13.2103 1.81779 13.1867 1.75877C13.1632 1.69975 13.1286 1.64606 13.0849 1.60078C13.0412 1.55551 12.9893 1.51952 12.932 1.4949C12.8748 1.47028 12.8134 1.45748 12.7514 1.45725H0.470599ZM0.944681 2.4287H12.2773V4.37153H0.944681V2.4287ZM2.82788 3.09857e-05C2.76586 0.000725382 2.70459 0.0140248 2.64756 0.0391352C2.59053 0.0642457 2.53885 0.100662 2.49549 0.146364C2.45212 0.192065 2.41792 0.246139 2.39483 0.30547C2.37174 0.364801 2.36021 0.428216 2.36091 0.49214V2.9133C2.3609 2.97723 2.3731 3.04051 2.39682 3.09958C2.42054 3.15865 2.45532 3.21235 2.49917 3.25756C2.54302 3.30277 2.59508 3.33864 2.65238 3.36311C2.70967 3.38758 2.77109 3.40014 2.83311 3.40014C2.89513 3.40014 2.95654 3.38758 3.01384 3.36311C3.07113 3.33864 3.12319 3.30277 3.16704 3.25756C3.21089 3.21235 3.24567 3.15865 3.26939 3.09958C3.29311 3.04051 3.30532 2.97723 3.3053 2.9133V0.49214C3.30601 0.427309 3.29415 0.362988 3.2704 0.302949C3.24666 0.24291 3.21152 0.1884 3.16705 0.142554C3.12257 0.0967088 3.06966 0.0604711 3.01142 0.0359979C2.95317 0.0115248 2.89077 -0.000700467 2.82788 3.09857e-05ZM6.60214 0.000199056C6.47751 0.00254306 6.35883 0.0556278 6.27201 0.14782C6.18518 0.240013 6.13724 0.363825 6.13866 0.492308V2.91341C6.13866 3.0425 6.18841 3.16628 6.27697 3.25756C6.36552 3.34884 6.48562 3.40014 6.61086 3.40014C6.73609 3.40014 6.85619 3.34884 6.94475 3.25756C7.0333 3.16628 7.08305 3.0425 7.08305 2.91341V0.492308C7.08377 0.427172 7.07179 0.362554 7.04784 0.302277C7.02388 0.241999 6.98843 0.187327 6.94358 0.141434C6.89873 0.095541 6.8454 0.0593568 6.78675 0.0351016C6.7281 0.0108464 6.66533 -0.00101672 6.60214 0.000199056ZM10.38 0.000199056C10.2553 0.00254306 10.1366 0.0556278 10.0498 0.14782C9.96299 0.240013 9.91506 0.363825 9.91647 0.492308V2.91341C9.91647 3.0425 9.96622 3.16628 10.0548 3.25756C10.1433 3.34884 10.2634 3.40014 10.3887 3.40014C10.5139 3.40014 10.634 3.34884 10.7226 3.25756C10.8111 3.16628 10.8609 3.0425 10.8609 2.91341V0.492308C10.8616 0.427172 10.8496 0.362554 10.8256 0.302277C10.8017 0.241999 10.7662 0.187327 10.7214 0.141434C10.6765 0.095541 10.6232 0.0593568 10.5646 0.0351016C10.5059 0.0108464 10.4431 -0.00101672 10.38 0.000199056Z" fill="#22BECA"/>
</svg>
