<svg width="18" height="18" viewBox="0 0 18 18" fill="none" xmlns="http://www.w3.org/2000/svg">
<path d="M17.2502 13.8885L13.2403 10.21C13.0508 10.0362 12.8017 9.94349 12.5457 9.95147C12.2896 9.95946 12.0467 10.0675 11.8682 10.2528L9.50761 12.7021C8.93941 12.5926 7.79712 12.2334 6.62128 11.05C5.44544 9.86266 5.08933 8.70717 4.98378 8.13789L7.40944 5.75525C7.59333 5.57524 7.70058 5.3301 7.70849 5.07171C7.71641 4.81333 7.62437 4.56198 7.45186 4.37085L3.80696 0.326137C3.63437 0.134408 3.39451 0.01811 3.1383 0.00194253C2.8821 -0.0142249 2.62974 0.0710118 2.43482 0.23955L0.294238 2.09172C0.123693 2.26441 0.0219005 2.49425 0.00816967 2.73764C-0.00662695 2.98645 -0.288749 8.88035 4.24099 13.4525C8.19268 17.4385 13.1426 17.7301 14.5059 17.7301C14.7052 17.7301 14.8275 17.7242 14.86 17.7222C15.1012 17.7086 15.3289 17.6054 15.4993 17.4326L17.334 15.2719C17.5017 15.0758 17.5868 14.8214 17.5712 14.563C17.5555 14.3045 17.4403 14.0624 17.2502 13.8885Z" fill="#22BECA"/>
</svg>
