<svg width="60" height="58" viewBox="0 0 60 58" fill="none" xmlns="http://www.w3.org/2000/svg">
<circle cx="38.1199" cy="21.5" r="21.5" fill="#FFE4FF"/>
<path d="M10.7849 52.1551C9.29432 49.522 7.84216 46.953 6.36865 44.3519C7.61366 43.6323 8.8245 42.9233 10.0439 42.2292C11.4683 41.4177 12.8863 40.5977 14.3277 39.8161C15.53 39.1648 16.7879 39.0922 18.0927 39.5321C20.3435 40.2902 22.5986 41.0355 24.8644 41.7552C25.5648 41.9772 26.2995 42.099 27.0191 42.2655C28.136 42.5239 28.7382 43.6131 28.3261 44.621C28.0186 45.3749 27.2391 45.7721 26.2995 45.5436C24.6722 45.1506 23.0599 44.7 21.4412 44.2729C21.1272 44.1896 20.8197 44.0829 20.5037 44.0145C19.9997 43.9035 19.5811 44.1448 19.438 44.6061C19.2992 45.0524 19.5235 45.5372 20.0274 45.6632C22.6114 46.3059 25.1869 46.9936 27.7965 47.5125C29.2465 47.8008 30.6517 47.3502 31.9372 46.6006C34.8159 44.92 37.6967 43.2436 40.5775 41.5694C41.703 40.9159 42.8497 40.3137 44.1716 40.1578C45.2159 40.0339 46.0124 40.4333 46.2965 41.2426C46.5784 42.0456 46.4545 43.1304 45.4209 43.7604C40.1718 46.953 34.9355 50.1691 29.7248 53.4215C28.1147 54.4252 26.4831 54.6537 24.6679 54.1476C20.9735 53.1183 17.2619 52.153 13.5632 51.145C13.0763 51.0126 12.6599 51.0383 12.2328 51.3201C11.7822 51.6149 11.2996 51.8604 10.7849 52.1551Z" fill="#CA55CA"/>
<path d="M32.0163 37.61C23.2756 37.5929 16.2177 30.4987 16.2391 21.7495C16.2626 13.043 23.361 5.98295 32.0739 6.00003C40.8146 6.01712 47.8768 13.1199 47.8469 21.8627C47.8191 30.5841 40.7399 37.6271 32.0163 37.61ZM32.0099 35.8781C39.7896 35.8952 46.1 29.6167 46.1171 21.8413C46.1342 14.0616 39.8536 7.74902 32.0825 7.7298C24.3092 7.71058 17.9838 14.0061 17.9731 21.7687C17.9603 29.5527 24.2366 35.861 32.0099 35.8781Z" fill="#CA55CA"/>
<path d="M7.83811 58.0001C7.68649 57.8207 7.48788 57.6499 7.36402 57.4342C5.94604 54.9484 4.54087 52.4563 3.13142 49.9663C2.15762 48.2429 1.18169 46.5217 0.207895 44.7962C-0.123111 44.2089 -0.0846715 44.0765 0.511139 43.737C1.18383 43.3526 1.85438 42.9703 2.53134 42.5923C3.09298 42.2784 3.23606 42.3168 3.55425 42.8913C5.2947 46.022 7.02234 49.1569 8.77347 52.2812C9.40772 53.4109 10.0825 54.5192 10.7574 55.6233C10.988 56.0012 10.9944 56.2895 10.5823 56.5223C9.79852 56.9644 9.01692 57.4086 8.23104 57.8485C8.13922 57.8976 8.03244 57.9254 7.83811 58.0001ZM2.60608 45.9686C3.1058 45.9558 3.48165 45.5671 3.47524 45.0674C3.46883 44.5442 3.05881 44.1662 2.52921 44.1918C2.03804 44.2153 1.66005 44.6296 1.6814 45.1186C1.70276 45.6098 2.10637 45.9814 2.60608 45.9686Z" fill="#CA55CA"/>
<path d="M31.9992 27.4364C32.5822 25.3927 33.7695 23.9469 35.7791 23.2678C38.6727 22.2898 41.8333 23.9491 42.7024 26.8705C42.916 27.5901 42.7281 27.8613 41.9934 27.8613C35.3562 27.8635 28.7212 27.8635 22.084 27.8613C21.3536 27.8613 21.17 27.5923 21.3899 26.8619C22.0712 24.5876 24.196 23.0009 26.5664 22.9924C28.986 22.9838 31.1172 24.5363 31.8241 26.8256C31.8882 27.0285 31.9415 27.2335 31.9992 27.4364Z" fill="#CA55CA"/>
<path d="M37.4791 16.3872C38.9932 16.3893 40.236 17.6194 40.2446 19.1292C40.2553 20.6518 38.9803 21.9182 37.4513 21.9054C35.933 21.8926 34.7243 20.6582 34.7285 19.1292C34.7328 17.6023 35.9522 16.3872 37.4791 16.3872Z" fill="#CA55CA"/>
<path d="M29.3642 19.1463C29.362 20.6754 28.1469 21.899 26.6243 21.9054C25.1145 21.9097 23.8673 20.6796 23.8481 19.1677C23.8289 17.6451 25.0931 16.3808 26.6307 16.3872C28.1555 16.3936 29.3663 17.6152 29.3642 19.1463Z" fill="#CA55CA"/>
<path d="M32.0228 9.78203C33.5519 9.77349 34.7777 10.9715 34.8054 12.4984C34.8332 14.0253 33.5732 15.3002 32.0421 15.2981C30.5258 15.2959 29.2979 14.0659 29.2915 12.5433C29.2872 11.0185 30.5002 9.78843 32.0228 9.78203Z" fill="#CA55CA"/>
<path d="M30.3723 16.6519C31.5276 16.2952 32.5954 16.2995 33.7165 16.6519C32.841 18.1467 32.7662 19.648 33.471 21.224C32.5121 21.224 31.6045 21.224 30.635 21.224C31.3055 19.6758 31.2735 18.1553 30.3723 16.6519Z" fill="#CA55CA"/>
</svg>
