<svg width="80" height="79" viewBox="0 0 80 79" fill="none" xmlns="http://www.w3.org/2000/svg">
<path d="M0 10C0 4.47715 4.47715 0 10 0H70C75.5229 0 80 4.47715 80 10V69C80 74.5229 75.5229 79 70 79H10C4.47715 79 0 74.5229 0 69V10Z" fill="url(#paint0_linear_691_390)"/>
<path d="M48.5125 24.4767L54.2237 30.0778L56.7869 27.564L51.0757 21.9629L48.5125 24.4767ZM30.7405 35.6215C31.0641 35.3062 31.5862 35.3084 31.9099 35.6258C32.2313 35.9432 32.2292 36.4552 31.9056 36.7726L30.7059 37.9491L31.5711 38.7977L40.2296 30.306L24.5873 14.9652L15.9289 23.4568L18.5848 26.0616L21.5731 23.1309C21.8967 22.8135 22.4211 22.8135 22.7447 23.1309C23.0683 23.4483 23.0683 23.9626 22.7447 24.2799L19.7564 27.2106L22.2355 29.6419L23.4373 28.4633C23.7609 28.1459 24.2852 28.1459 24.6088 28.4633C24.9325 28.7807 24.9325 29.2949 24.6088 29.6123L23.407 30.7909L25.8861 33.2222L28.8744 30.2915C29.198 29.9741 29.7223 29.9741 30.0459 30.2915C30.3696 30.6089 30.3696 31.1231 30.0459 31.4405L27.0577 34.3712L29.5367 36.8025L30.7407 35.6239L30.7405 35.6215ZM52.6418 57.103C52.9655 56.7856 53.4898 56.7856 53.8134 57.103C54.137 57.4204 54.137 57.9346 53.8134 58.252L52.6116 59.4306L55.2676 62.0354L63.9261 53.5438L48.2838 38.203L39.6253 46.6946L40.4862 47.541L43.4745 44.6103C43.7981 44.2929 44.3224 44.2929 44.6461 44.6103C44.9697 44.9277 44.9697 45.4419 44.6461 45.7593L41.6578 48.69L44.139 51.1234L45.3386 49.9469C45.6601 49.6295 46.1844 49.6274 46.508 49.9427C46.8317 50.2579 46.8338 50.7721 46.5124 51.0895L45.3084 52.2703L47.7896 54.7037L50.7779 51.773C51.1016 51.4556 51.6259 51.4556 51.9495 51.773C52.2731 52.0904 52.2731 52.6046 51.9495 52.922L48.9612 55.8527L51.4424 58.2861L52.6442 57.1074L52.6418 57.103ZM30.3991 39.9421L14.1719 24.0276C13.8483 23.7102 13.8483 23.196 14.1719 22.8786L24.0019 13.2381C24.3256 12.9206 24.8499 12.9206 25.1735 13.2381L41.4007 29.1525L50.4905 20.2378C50.7494 19.9839 51.1421 19.9331 51.4528 20.0897L53.619 17.9631C54.3116 17.2839 55.2242 16.9432 56.1369 16.9432C57.0496 16.9432 57.9622 17.2839 58.6548 17.9631L60.8663 20.1341C61.5589 20.8176 61.9063 21.7106 61.9063 22.6035C61.9063 23.4753 61.5762 24.3471 60.9159 25.02L58.7001 27.1973C58.8576 27.502 58.808 27.885 58.5469 28.1411L49.4571 37.0557L65.6865 52.9724C66.0101 53.2898 66.0101 53.804 65.6865 54.1214L55.8565 63.762C55.5328 64.0793 55.0085 64.0793 54.6849 63.762L38.4555 47.8453L29.0635 57.0563C29.0225 57.0965 28.9772 57.1304 28.9298 57.1621L28.9147 57.1727C28.8456 57.215 28.7723 57.2446 28.6946 57.2658L18.679 60.3551C18.5237 60.4017 18.3532 60.4059 18.1871 60.3551C17.7513 60.2218 17.5074 59.7669 17.6434 59.3394L20.787 49.538L20.7891 49.5338L20.7934 49.5211V49.519L20.7956 49.5147L20.7999 49.502V49.4999L20.8021 49.4957L20.8193 49.4449L20.8215 49.4407V49.4364L20.8301 49.411L20.8323 49.4068L20.8366 49.4005L20.8387 49.3941L20.8409 49.3899V49.3878L20.8452 49.3814L20.8474 49.3751L20.8495 49.3708V49.3687L20.8582 49.356L20.8603 49.3518L20.8625 49.3497L20.8711 49.337L20.8733 49.3327L20.8754 49.3306L20.8841 49.3179L20.8862 49.3137L20.8884 49.3116L20.897 49.2989L20.8992 49.2968L20.9013 49.2925L20.9099 49.2799L20.9121 49.2777L20.9143 49.2735L20.9229 49.2608L20.925 49.2587L20.9272 49.2545L20.9315 49.2502L20.9358 49.2439L20.938 49.2418L20.9401 49.2375L20.9445 49.2312L20.9596 49.2164L20.9639 49.21V49.2079L20.9682 49.2037L20.9725 49.1973L20.9811 49.1889L20.9855 49.1825L30.4078 39.9417L30.3991 39.9421ZM50.7838 29.0004L48.1213 31.6115C47.7977 31.9289 47.2734 31.9289 46.9497 31.6115C46.6261 31.2941 46.6261 30.7799 46.9497 30.4625L49.6122 27.8514L47.3424 25.6253L22.7655 49.7286L25.0353 51.9547L42.2357 35.0857C42.5593 34.7683 43.0836 34.7683 43.4073 35.0857C43.7309 35.4031 43.7309 35.9173 43.4073 36.2347L26.2069 53.1037L28.4766 55.3297L53.0535 31.2264L50.7838 29.0004ZM44.7533 32.6166C45.077 32.2992 45.6013 32.2992 45.9249 32.6166C46.2485 32.934 46.2485 33.4482 45.9249 33.7656L45.6056 34.0788C45.2819 34.3962 44.7576 34.3962 44.434 34.0788C44.1104 33.7614 44.1104 33.2472 44.434 32.9298L44.7533 32.6166ZM52.6523 21.2074L57.5565 26.0171L59.7313 23.8863C60.0765 23.5287 60.2491 23.0653 60.2491 22.6019C60.2491 22.1236 60.0636 21.6433 59.6968 21.2836L57.4831 19.1126C57.1142 18.7529 56.6244 18.5709 56.1368 18.5709C55.6492 18.5709 55.1595 18.7529 54.7926 19.1147L52.6523 21.2117V21.2074ZM26.9277 56.1089L21.9738 51.2505L19.6997 58.3392L26.9277 56.1089Z" fill="white"/>
<defs>
<linearGradient id="paint0_linear_691_390" x1="40" y1="-14.5" x2="40" y2="79" gradientUnits="userSpaceOnUse">
<stop stop-color="#40E0ED"/>
<stop offset="1" stop-color="#55D0D9"/>
</linearGradient>
</defs>
</svg>
