<svg width="80" height="79" viewBox="0 0 80 79" fill="none" xmlns="http://www.w3.org/2000/svg">
<path d="M0 10C0 4.47715 4.47715 0 10 0H70C75.5229 0 80 4.47715 80 10V69C80 74.5229 75.5229 79 70 79H10C4.47715 79 0 74.5229 0 69V10Z" fill="url(#paint0_linear_691_391)"/>
<path fill-rule="evenodd" clip-rule="evenodd" d="M48.6532 28.3248C49.3896 27.5884 50.5834 27.5884 51.3198 28.3248L61.3769 38.3819C62.1134 39.1183 62.1134 40.3123 61.3769 41.0488L51.3198 51.1059C50.5834 51.8423 49.3896 51.8423 48.6532 51.1059C47.9167 50.3695 47.9167 49.1754 48.6532 48.439L57.3767 39.7152L48.6532 30.9916C47.9167 30.2552 47.9167 29.0612 48.6532 28.3248Z" fill="white"/>
<path fill-rule="evenodd" clip-rule="evenodd" d="M31.2054 28.3248C30.469 27.5884 29.275 27.5884 28.5386 28.3248L18.4815 38.3819C17.7451 39.1183 17.7451 40.3123 18.4815 41.0488L28.5386 51.1059C29.275 51.8423 30.469 51.8423 31.2054 51.1059C31.9418 50.3695 31.9418 49.1754 31.2054 48.439L22.4817 39.7152L31.2054 30.9916C31.9418 30.2552 31.9418 29.0612 31.2054 28.3248Z" fill="white"/>
<path fill-rule="evenodd" clip-rule="evenodd" d="M42.8619 24.0473C43.8774 24.2781 44.5136 25.2885 44.2827 26.304L37.997 53.9612C37.7665 54.9768 36.756 55.6129 35.7405 55.3821C34.7249 55.1513 34.0887 54.1408 34.3195 53.1252L40.6054 25.4682C40.8359 24.4527 41.8464 23.8165 42.8619 24.0473Z" fill="white"/>
<defs>
<linearGradient id="paint0_linear_691_391" x1="40" y1="-14.5" x2="40" y2="79" gradientUnits="userSpaceOnUse">
<stop stop-color="#40E0ED"/>
<stop offset="1" stop-color="#55D0D9"/>
</linearGradient>
</defs>
</svg>
