<svg width="101" height="101" viewBox="0 0 101 101" fill="none" xmlns="http://www.w3.org/2000/svg">
<circle cx="50.5" cy="50.5" r="49" fill="#22BECA" stroke="white" stroke-width="3"/>
<path d="M50.0759 43.6842H53.1655V39.4H57.4138V36.2842H53.1655V32H50.0759V36.2842H45.8276V39.4H50.0759V43.6842ZM65.1379 35.8947V46.6053L40.9034 50.9284L36.1724 32H28.931C28.4189 32 27.9277 32.2052 27.5656 32.5704C27.2034 32.9356 27 33.4309 27 33.9474C27 34.4638 27.2034 34.9592 27.5656 35.3244C27.9277 35.6896 28.4189 35.8947 28.931 35.8947H33.2179L39.4552 61.2105H65.1379V57.3158H42.4676L41.8303 54.7258L69 49.8768V35.8947H65.1379ZM40.0345 63.1579C39.4616 63.1579 38.9016 63.3292 38.4252 63.6502C37.9489 63.9712 37.5777 64.4274 37.3584 64.9611C37.1392 65.4949 37.0818 66.0822 37.1936 66.6488C37.3054 67.2154 37.5812 67.7359 37.9863 68.1444C38.3914 68.553 38.9075 68.8312 39.4694 68.9439C40.0313 69.0566 40.6137 68.9987 41.1429 68.7776C41.6722 68.5566 42.1246 68.1822 42.4429 67.7018C42.7612 67.2214 42.931 66.6567 42.931 66.0789C42.931 65.3042 42.6259 64.5613 42.0827 64.0135C41.5394 63.4656 40.8027 63.1579 40.0345 63.1579ZM63.2069 63.1579C62.634 63.1579 62.074 63.3292 61.5977 63.6502C61.1213 63.9712 60.7501 64.4274 60.5308 64.9611C60.3116 65.4949 60.2542 66.0822 60.366 66.6488C60.4778 67.2154 60.7536 67.7359 61.1587 68.1444C61.5638 68.553 62.0799 68.8312 62.6418 68.9439C63.2037 69.0566 63.7861 68.9987 64.3154 68.7776C64.8446 68.5566 65.297 68.1822 65.6153 67.7018C65.9336 67.2214 66.1034 66.6567 66.1034 66.0789C66.1034 65.3042 65.7983 64.5613 65.2551 64.0135C64.7119 63.4656 63.9751 63.1579 63.2069 63.1579Z" fill="white"/>
</svg>
