<svg width="73" height="73" viewBox="0 0 73 73" fill="none" xmlns="http://www.w3.org/2000/svg">
<circle cx="36.5" cy="36.5" r="35" fill="#22BECA" stroke="white" stroke-width="3"/>
<path d="M37.3333 32H40V28.3333H43.6666V25.6667H40V22H37.3333V25.6667H33.6666V28.3333H37.3333V32ZM50.3333 25.3333V34.5L29.4166 38.2L25.3333 22H19.0833C18.6413 22 18.2173 22.1756 17.9048 22.4882C17.5922 22.8007 17.4166 23.2246 17.4166 23.6667C17.4166 24.1087 17.5922 24.5326 17.9048 24.8452C18.2173 25.1577 18.6413 25.3333 19.0833 25.3333H22.7833L28.1666 47H50.3333V43.6667H30.7666L30.2166 41.45L53.6666 37.3V25.3333H50.3333ZM28.6666 48.6667C28.1722 48.6667 27.6888 48.8133 27.2777 49.088C26.8666 49.3627 26.5461 49.7531 26.3569 50.21C26.1677 50.6668 26.1182 51.1694 26.2147 51.6544C26.3111 52.1393 26.5492 52.5848 26.8989 52.9344C27.2485 53.2841 27.6939 53.5222 28.1789 53.6186C28.6639 53.7151 29.1665 53.6656 29.6233 53.4764C30.0801 53.2871 30.4706 52.9667 30.7453 52.5556C31.02 52.1445 31.1666 51.6611 31.1666 51.1667C31.1666 50.5036 30.9032 49.8677 30.4344 49.3989C29.9656 48.9301 29.3297 48.6667 28.6666 48.6667ZM48.6666 48.6667C48.1722 48.6667 47.6888 48.8133 47.2777 49.088C46.8666 49.3627 46.5461 49.7531 46.3569 50.21C46.1677 50.6668 46.1182 51.1694 46.2147 51.6544C46.3111 52.1393 46.5492 52.5848 46.8989 52.9344C47.2485 53.2841 47.6939 53.5222 48.1789 53.6186C48.6639 53.7151 49.1665 53.6656 49.6233 53.4764C50.0801 53.2871 50.4706 52.9667 50.7453 52.5556C51.02 52.1445 51.1666 51.6611 51.1666 51.1667C51.1666 50.5036 50.9032 49.8677 50.4344 49.3989C49.9655 48.9301 49.3297 48.6667 48.6666 48.6667Z" fill="white"/>
</svg>
