<svg width="58" height="55" viewBox="0 0 58 55" fill="none" xmlns="http://www.w3.org/2000/svg">
<circle cx="35.9775" cy="21.5" r="21.5" fill="#E2E5FF"/>
<path d="M40.9401 30.9535C40.9897 39.3398 34.1035 46.3153 25.7197 46.3698C17.1597 46.4268 10.162 39.6027 10.1099 31.1494C10.0578 22.5448 16.8498 15.6091 25.3923 15.5471C33.9672 15.4826 40.888 22.3415 40.9401 30.9535ZM24.4996 23.5441C23.8028 23.8566 23.106 24.0723 22.5159 24.4492C19.9667 26.0734 19.9543 29.4285 22.4985 31.0502C23.0689 31.4122 23.7632 31.6106 24.4277 31.7842C25.1369 31.9702 25.8858 32.0024 26.6049 32.1636C27.6067 32.3892 28.3705 33.1976 28.4374 34.0258C28.5044 34.8441 27.8373 35.7071 26.843 36.089C25.3973 36.6444 23.9566 36.2725 22.9052 35.0698C22.4365 34.5342 21.8836 34.435 21.4124 34.8045C20.9338 35.1789 20.8917 35.7443 21.3182 36.3171C21.9951 37.2271 22.8804 37.8595 23.9863 38.1198C24.4302 38.224 24.5939 38.41 24.5269 38.8439C24.5046 38.9877 24.5195 39.139 24.5244 39.2853C24.5517 39.9424 24.9361 40.3739 25.5014 40.3888C26.0519 40.4012 26.5851 39.9523 26.5206 39.3324C26.4264 38.4571 26.8058 38.1719 27.5794 37.9339C28.1969 37.7429 28.7945 37.3238 29.2681 36.8676C30.9494 35.2533 30.8353 32.7612 29.0697 31.2362C28.2985 30.5691 27.4059 30.1823 26.3991 30.0286C25.6701 29.917 24.9261 29.85 24.2244 29.6467C23.3912 29.4061 22.7465 28.878 22.6523 27.9456C22.5556 27.0008 23.111 26.4007 23.8822 25.9866C25.2857 25.2328 26.9744 25.5353 28.0407 26.7082C28.0977 26.7702 28.1473 26.8397 28.2068 26.8992C28.6308 27.3282 29.2061 27.3852 29.6252 27.0405C30.0567 26.6859 30.1261 26.128 29.7641 25.6271C28.978 24.5335 27.872 23.9285 26.5851 23.6483C26.4512 22.8027 26.8802 21.5728 25.5213 21.5752C24.1351 21.5752 24.6633 22.8399 24.4996 23.5441Z" fill="#5B65CD"/>
<path d="M19.6714 4.6314C18.7117 4.00652 17.8488 3.44858 16.9883 2.88569C16.3014 2.43686 16.108 1.90125 16.4329 1.36315C16.7726 0.80026 17.3801 0.728348 18.0843 1.18213C19.6069 2.16658 21.1294 3.1535 22.647 4.14538C23.5174 4.71323 23.6215 5.17942 23.071 6.03243C22.0767 7.57481 21.0773 9.11471 20.0755 10.6496C19.6391 11.3192 19.0688 11.5002 18.5406 11.153C18.005 10.8009 17.9405 10.2256 18.3769 9.54618C18.977 8.60885 19.587 7.67896 20.1921 6.74411C20.1549 6.67716 20.1177 6.61021 20.0805 6.54077C18.5902 7.09127 17.0354 7.50786 15.622 8.21209C6.97527 12.5169 2.45972 19.5369 2.02082 29.1829C2.01834 29.2449 2.02082 29.3094 2.01834 29.3739C2.00098 30.1649 1.60918 30.6311 0.984299 30.6137C0.364373 30.5939 -0.0497378 30.1128 0.00481574 29.3218C0.104004 27.8513 0.116402 26.3511 0.423886 24.9203C2.66554 14.4882 8.91935 7.75831 19.1903 4.79258C19.3093 4.75787 19.4283 4.71323 19.6714 4.6314Z" fill="#5B65CD"/>
<path d="M6.84921 46.856C6.79217 47.9421 6.7401 48.8893 6.6905 49.8366C6.68059 50.025 6.68803 50.2184 6.65579 50.4044C6.55164 50.9921 6.08794 51.3591 5.5424 51.2996C5.0167 51.2426 4.63731 50.8359 4.65963 50.2507C4.73898 48.2496 4.83569 46.246 4.95223 44.2473C4.99439 43.5431 5.41594 43.1711 6.12265 43.2009C8.08162 43.2827 10.0406 43.3794 11.9996 43.4984C12.7137 43.5431 13.0857 43.9745 13.046 44.5895C13.0088 45.1921 12.5798 45.5343 11.8483 45.507C10.7126 45.4648 9.57688 45.4004 8.34447 45.3433C8.47589 45.5169 8.54284 45.6359 8.63459 45.7277C13.9536 51.0516 20.3686 53.3875 27.8597 52.7254C31.1181 52.4378 34.1532 51.4112 37.0098 49.8217C37.3198 49.6506 37.7612 49.5043 38.0662 49.596C38.3588 49.6853 38.6514 50.0647 38.7655 50.3796C38.9242 50.8185 38.6688 51.2227 38.2547 51.4236C36.9131 52.0782 35.6039 52.8494 34.1954 53.3156C24.0658 56.6632 15.1017 54.6546 7.34267 47.3147C7.20876 47.1907 7.07486 47.0667 6.84921 46.856Z" fill="#5B65CD"/>
<path d="M49.8175 36.8502C50.7822 36.3592 51.6054 35.9401 52.4287 35.5211C52.6171 35.4268 52.8006 35.3177 52.9965 35.2434C53.5247 35.045 54.0578 35.2434 54.2959 35.7071C54.5414 36.1881 54.4199 36.7485 53.9066 37.0188C52.079 37.9809 50.2416 38.9183 48.3917 39.8333C47.8536 40.0986 47.3428 39.9052 47.0552 39.3522C46.1203 37.5594 45.2028 35.7567 44.3027 33.9465C44.0374 33.4133 44.2556 32.843 44.7416 32.6C45.2351 32.352 45.8004 32.5132 46.0906 33.0513C46.6584 34.1052 47.1915 35.1789 47.7371 36.2452C47.8016 36.2501 47.8635 36.2551 47.928 36.26C48.1884 34.8937 48.5579 33.5373 48.6942 32.1586C49.4729 24.3277 47.0204 17.6499 41.2998 12.2391C40.0847 11.091 38.6068 10.2256 37.2578 9.21638C37.0124 9.03288 36.6677 8.80971 36.6305 8.56422C36.5784 8.21706 36.6677 7.75335 36.8785 7.48307C37.2008 7.06896 37.7017 7.13591 38.1431 7.39132C40.0525 8.49231 41.8279 9.78423 43.353 11.3762C50.0878 18.4111 52.2873 26.676 49.9911 36.141C49.949 36.3171 49.9043 36.4981 49.8175 36.8502Z" fill="#5B65CD"/>
</svg>
