<svg width="181" height="54" viewBox="0 0 181 54" fill="none" xmlns="http://www.w3.org/2000/svg">
<path d="M18.1225 15.3428L4.2569 20.3968L3 25.1731L13.9946 30.1874L15.1589 26.0463L7.49838 22.8445L16.9185 19.6427L18.1225 15.3428Z" fill="white"/>
<path d="M35.7323 15.0654L34.6078 19.3786L42.1492 22.4878L32.8216 25.6896L31.7103 29.9366L45.47 24.9751L46.7666 20.1724L35.7323 15.0654Z" fill="white"/>
<path d="M38.5372 2.32422L36.4732 10.3419H54.3874L56.6366 2.32422H38.5372Z" fill="white"/>
<path d="M62.9079 2.32422L52.5484 42.5186H62.458L72.8308 2.32422H62.9079Z" fill="white"/>
<path d="M74.392 11.5459L78.0171 42.5186H88.1914L107.892 11.5459H97.9291L85.6644 33.3498L84.6589 11.5459H74.392Z" fill="white"/>
<path d="M111.371 11.5459L103.407 42.5186H113.316L121.334 11.5459H111.371Z" fill="white"/>
<path d="M118.771 9.61986C121.546 8.65548 123.261 6.33493 122.601 4.43677C121.941 2.53862 119.157 1.78164 116.382 2.74602C113.608 3.7104 111.893 6.03095 112.553 7.9291C113.213 9.82726 115.997 10.5842 118.771 9.61986Z" fill="white"/>
<path d="M129.285 11.5461L121.334 42.5188H131.244C131.244 42.5188 134.009 30.5849 135.319 26.7215C135.808 25.2794 136.668 23.5197 139.01 21.8924C142.066 19.7623 147.041 20.093 147.041 20.093L149.356 11.1757C149.356 11.1757 143.23 10.8052 138.057 16.6002L139.208 11.5593H129.285V11.5461Z" fill="white"/>
<path d="M167.786 11.1625C167.786 11.1625 160.166 10.8185 151.685 14.576L152.862 21.1516C152.862 21.1516 156.977 19.2332 159.451 18.9156C161.687 18.6246 166.371 17.844 167.482 20.8208C167.667 21.3104 167.707 21.8263 167.654 22.3423L167.495 23.93H158.432C157.228 23.93 156.024 24.0755 154.847 24.3534C151.261 25.2398 145.083 27.8727 144.554 35.639C144.554 35.639 144.196 42.466 151.844 42.9952C159.491 43.5244 163.5 39.0525 163.5 39.0525L162.719 42.5189H172.351L177.789 21.2442C177.762 21.2442 180.395 11.7844 167.786 11.1625ZM165.484 31.0745C165.087 32.6886 164.069 34.1043 162.613 34.9246C161.462 35.5729 160.033 35.9698 158.326 36.2609C156.62 36.5519 155.614 36.0359 155.045 35.4406C154.543 34.9246 154.278 34.2101 154.291 33.4825C154.304 30.4791 156.818 29.5927 157.89 29.3545C158.141 29.3016 158.393 29.2751 158.644 29.2751H165.934L165.484 31.0745Z" fill="white"/>
<path d="M25.0818 2.32422H35.3751L26.7224 34.5406H48.6189L46.4888 42.5186H14.3518L25.0818 2.32422Z" fill="white"/>
<path d="M14.9207 47.4668H15.8336V52.8516H14.9207V47.4668Z" fill="white"/>
<path d="M20.2394 51.1978C20.2791 51.5551 20.4114 51.8064 20.6231 51.9652C20.8347 52.124 21.1523 52.2034 21.5757 52.2034C21.7873 52.2034 21.9593 52.1769 22.0916 52.1372C22.2372 52.0975 22.343 52.0314 22.4356 51.952C22.515 51.8726 22.5812 51.7932 22.6209 51.6874C22.6606 51.5815 22.6738 51.4757 22.6738 51.3566C22.6738 51.2772 22.6606 51.1846 22.6341 51.1052C22.6076 51.0258 22.5679 50.9465 22.5018 50.8803C22.4356 50.8141 22.343 50.748 22.2372 50.6951C22.1313 50.6422 21.9858 50.6025 21.8138 50.576L21.1258 50.4437C20.848 50.3908 20.6098 50.3246 20.3981 50.2585C20.1864 50.1791 20.0144 50.0865 19.8689 49.9542C19.7234 49.8351 19.6175 49.6763 19.5381 49.5043C19.4588 49.3323 19.4323 49.1074 19.4323 48.856C19.4323 48.6047 19.4852 48.3797 19.5911 48.1813C19.6969 47.996 19.8425 47.824 20.0144 47.705C20.1864 47.5859 20.4114 47.4801 20.6627 47.4139C20.9141 47.3477 21.1787 47.3213 21.4698 47.3213C21.8403 47.3213 22.1578 47.361 22.4092 47.4536C22.6606 47.533 22.859 47.6521 23.0178 47.7844C23.1765 47.9167 23.2956 48.0887 23.375 48.2607C23.4544 48.4459 23.5073 48.6311 23.547 48.8296L22.687 48.9619C22.6209 48.6576 22.4886 48.4327 22.3166 48.2871C22.1446 48.1416 21.8667 48.0622 21.4963 48.0622C21.2846 48.0622 21.0994 48.0754 20.9538 48.1151C20.8083 48.1548 20.6892 48.2077 20.6098 48.2739C20.5172 48.34 20.4643 48.4194 20.4246 48.512C20.3849 48.6047 20.3717 48.6973 20.3717 48.7899C20.3717 49.028 20.4378 49.2 20.5701 49.3191C20.7024 49.4382 20.9274 49.5308 21.2449 49.5969L21.9858 49.7425C22.5547 49.8483 22.9649 50.0335 23.2427 50.2849C23.5073 50.5363 23.6396 50.9068 23.6396 51.3831C23.6396 51.608 23.5999 51.8197 23.5205 52.0181C23.4412 52.2166 23.3089 52.3754 23.1369 52.5209C22.9649 52.6664 22.7532 52.7723 22.5018 52.8649C22.2504 52.9443 21.9461 52.984 21.6153 52.984C20.9274 52.984 20.3849 52.8384 19.988 52.5474C19.5911 52.2563 19.3794 51.8064 19.3397 51.1978H20.2394Z" fill="white"/>
<path d="M29.4479 52.9835C29.0642 52.9835 28.7069 52.9174 28.4026 52.7851C28.0983 52.6528 27.8337 52.4675 27.6088 52.2294C27.3839 51.9912 27.2119 51.6869 27.106 51.3429C26.987 50.9989 26.9341 50.602 26.9341 50.1522C26.9341 49.7156 27.0002 49.3187 27.1193 48.9614C27.2384 48.6042 27.4104 48.3131 27.6353 48.0618C27.8602 47.8236 28.1248 47.6384 28.4291 47.5061C28.7466 47.3738 29.0906 47.3076 29.4611 47.3076C29.8448 47.3076 30.1888 47.3738 30.5063 47.5061C30.8238 47.6384 31.0884 47.8236 31.3001 48.0618C31.5118 48.2999 31.6838 48.6042 31.8029 48.9482C31.922 49.2922 31.9749 49.6891 31.9749 50.139C31.9749 50.5888 31.922 50.9857 31.8029 51.3297C31.6838 51.6737 31.525 51.978 31.3001 52.2161C31.0884 52.4543 30.8238 52.6395 30.5063 52.7718C30.1888 52.9174 29.8448 52.9835 29.4479 52.9835ZM29.4479 52.2029C29.9638 52.2029 30.3608 52.0177 30.6254 51.6605C30.89 51.29 31.0223 50.8005 31.0223 50.1654C31.0223 49.8479 30.9826 49.57 30.9164 49.3187C30.8503 49.0673 30.7444 48.8556 30.6121 48.6836C30.4798 48.5116 30.3211 48.3661 30.1226 48.2734C29.9242 48.1808 29.6992 48.1279 29.4346 48.1279C29.17 48.1279 28.9451 48.1808 28.7466 48.2734C28.5482 48.3661 28.3894 48.4984 28.2571 48.6836C28.1248 48.8556 28.019 49.0673 27.9528 49.3187C27.8867 49.57 27.8602 49.8479 27.8602 50.1654C27.8602 50.8005 27.9925 51.3032 28.2571 51.6605C28.5217 52.0177 28.9186 52.2029 29.4479 52.2029Z" fill="white"/>
<path d="M40.6541 51.6211C40.6938 51.846 40.7864 52.018 40.9055 52.1106C41.0246 52.2165 41.2363 52.2694 41.5141 52.2694C41.8846 52.2694 42.1492 52.1239 42.3212 51.8328C42.4932 51.5417 42.5725 51.0786 42.5725 50.4303C42.255 50.8273 41.8449 51.0125 41.3156 51.0125C40.7732 51.0125 40.3763 50.8537 40.1117 50.5362C39.8471 50.2187 39.7148 49.7953 39.7148 49.2793C39.7148 49.0147 39.7544 48.7765 39.8471 48.5648C39.9264 48.3399 40.0587 48.1547 40.2175 47.9959C40.3763 47.8372 40.5747 47.7181 40.7997 47.6255C41.0246 47.5329 41.276 47.4932 41.567 47.4932C41.9507 47.4932 42.255 47.5725 42.4932 47.7313C42.7313 47.8901 42.9165 48.0885 43.0621 48.3267C43.1944 48.5648 43.3002 48.8295 43.3531 49.1205C43.4061 49.4116 43.4325 49.6894 43.4325 49.9673C43.4325 50.5097 43.3928 50.986 43.3135 51.3565C43.2341 51.7402 43.115 52.0445 42.9562 52.2959C42.7975 52.534 42.599 52.706 42.3741 52.8251C42.1359 52.9309 41.8713 52.9838 41.5538 52.9838C41.0246 52.9838 40.6144 52.878 40.3366 52.6531C40.0587 52.4282 39.9 52.0842 39.8603 51.6211H40.6541ZM41.5141 50.3245C41.6596 50.3245 41.7919 50.298 41.911 50.2583C42.0301 50.2187 42.1359 50.1525 42.2286 50.0599C42.3212 49.9673 42.3873 49.8614 42.4402 49.7291C42.4932 49.5968 42.5196 49.4381 42.5196 49.2528C42.5196 49.1073 42.4932 48.975 42.4535 48.8427C42.4138 48.7104 42.3476 48.5913 42.2682 48.4987C42.1889 48.4061 42.0962 48.3267 41.9772 48.2738C41.8581 48.2208 41.7258 48.1944 41.5803 48.1944C41.2892 48.1944 41.0378 48.287 40.8658 48.4722C40.6806 48.6575 40.588 48.9221 40.588 49.2661C40.588 49.4116 40.6012 49.5439 40.6409 49.6762C40.6674 49.8085 40.7203 49.9144 40.7997 50.007C40.879 50.0996 40.9717 50.179 41.0907 50.2319C41.1833 50.298 41.3289 50.3245 41.5141 50.3245Z" fill="white"/>
<path d="M48.7512 52.9838C48.4469 52.9838 48.1823 52.9309 47.9441 52.8251C47.706 52.7192 47.5075 52.5605 47.3355 52.3355C47.1635 52.1106 47.0445 51.8328 46.9519 51.4756C46.8592 51.1316 46.8195 50.7214 46.8195 50.2451C46.8195 49.319 46.9915 48.631 47.3223 48.1812C47.6663 47.7313 48.1426 47.4932 48.7777 47.4932C49.3863 47.4932 49.8626 47.7181 50.1933 48.1547C50.5373 48.6045 50.6961 49.2925 50.6961 50.2319C50.6961 50.7082 50.6564 51.1183 50.5638 51.4623C50.4712 51.8063 50.3521 52.0974 50.1801 52.3091C50.0081 52.534 49.8096 52.6928 49.5583 52.8118C49.3333 52.9309 49.0555 52.9838 48.7512 52.9838ZM48.7512 52.2297C48.9497 52.2297 49.1084 52.1768 49.2407 52.0842C49.373 51.9915 49.4789 51.8592 49.5715 51.6872C49.6641 51.5152 49.717 51.3036 49.7567 51.0654C49.7964 50.814 49.8096 50.5362 49.8096 50.2319C49.8096 49.9276 49.7964 49.6497 49.7567 49.4116C49.717 49.1602 49.6641 48.9618 49.5715 48.7765C49.4921 48.6045 49.3863 48.4722 49.2407 48.3796C49.1084 48.287 48.9364 48.2341 48.7512 48.2341C48.566 48.2341 48.394 48.287 48.2617 48.3796C48.1294 48.4722 48.0235 48.6045 47.9441 48.7765C47.8648 48.9485 47.8118 49.1602 47.7721 49.3984C47.7325 49.6365 47.7192 49.9144 47.7192 50.2187C47.7192 50.867 47.7986 51.3565 47.9574 51.7005C48.1161 52.0577 48.3807 52.2297 48.7512 52.2297Z" fill="white"/>
<path d="M55.8957 52.9838C55.5914 52.9838 55.3268 52.9309 55.0886 52.8251C54.8505 52.7192 54.652 52.5605 54.48 52.3355C54.308 52.1106 54.189 51.8328 54.0964 51.4756C54.0037 51.1316 53.9641 50.7214 53.9641 50.2451C53.9641 49.319 54.136 48.631 54.4668 48.1812C54.8108 47.7313 55.2871 47.4932 55.9222 47.4932C56.5308 47.4932 57.0071 47.7181 57.3378 48.1547C57.6818 48.6045 57.8406 49.2925 57.8406 50.2319C57.8406 50.7082 57.8009 51.1183 57.7083 51.4623C57.6157 51.8063 57.4966 52.0974 57.3246 52.3091C57.1526 52.534 56.9541 52.6928 56.7028 52.8118C56.4778 52.9309 56.2 52.9838 55.8957 52.9838ZM55.8957 52.2297C56.0942 52.2297 56.2529 52.1768 56.3852 52.0842C56.5175 51.9915 56.6234 51.8592 56.716 51.6872C56.8086 51.5152 56.8615 51.3036 56.9012 51.0654C56.9409 50.814 56.9541 50.5362 56.9541 50.2319C56.9541 49.9276 56.9409 49.6497 56.9012 49.4116C56.8615 49.1602 56.8086 48.9618 56.716 48.7765C56.6366 48.6045 56.5308 48.4722 56.3852 48.3796C56.2529 48.287 56.0809 48.2341 55.8957 48.2341C55.7105 48.2341 55.5385 48.287 55.4062 48.3796C55.2739 48.4722 55.168 48.6045 55.0886 48.7765C55.0093 48.9485 54.9563 49.1602 54.9166 49.3984C54.877 49.6365 54.8637 49.9144 54.8637 50.2187C54.8637 50.867 54.9431 51.3565 55.1019 51.7005C55.2606 52.0577 55.5253 52.2297 55.8957 52.2297Z" fill="white"/>
<path d="M61.8627 49.2793L61.479 48.6442L63.0931 47.6387H63.8472V52.8515H62.974V48.6177L61.8627 49.2793Z" fill="white"/>
<path d="M73.6379 48.9219V49.9671H72.7249V48.9219H73.6379ZM73.6379 51.7929V52.8381H72.7249V51.7929H73.6379Z" fill="white"/>
<path d="M81.5232 52.1768C81.9069 51.846 82.2641 51.5417 82.5817 51.2771C82.9124 51.0125 83.1903 50.7611 83.4152 50.5362C83.6533 50.298 83.8386 50.0731 83.9709 49.8482C84.1032 49.6233 84.1693 49.3851 84.1693 49.1073C84.1693 48.8427 84.09 48.631 83.9444 48.4722C83.7989 48.3135 83.5872 48.2473 83.3358 48.2473C83.0183 48.2473 82.7934 48.3135 82.6346 48.4458C82.4758 48.5781 82.3568 48.803 82.2906 49.1205L81.4703 49.0014C81.51 48.803 81.5762 48.6045 81.6688 48.4193C81.7614 48.2341 81.8672 48.0753 82.0128 47.943C82.1583 47.8107 82.3435 47.6916 82.5684 47.6122C82.7934 47.5329 83.058 47.4932 83.3623 47.4932C83.918 47.4932 84.3413 47.6387 84.6324 47.9165C84.9235 48.1944 85.069 48.5781 85.069 49.0544C85.069 49.3454 85.0161 49.6101 84.9102 49.8482C84.8044 50.0864 84.6456 50.3113 84.4472 50.5362C84.2487 50.7611 84.0106 50.9993 83.7327 51.2374C83.4549 51.4756 83.1374 51.7666 82.7934 52.0842H85.1352L85.0293 52.8515H81.5232V52.3223V52.1768Z" fill="white"/>
<path d="M90.4539 52.9838C90.1496 52.9838 89.885 52.9309 89.6468 52.8251C89.4087 52.7192 89.2102 52.5605 89.0382 52.3355C88.8662 52.1106 88.7471 51.8328 88.6545 51.4756C88.5619 51.1316 88.5222 50.7214 88.5222 50.2451C88.5222 49.319 88.6942 48.631 89.025 48.1812C89.369 47.7313 89.8453 47.4932 90.4803 47.4932C91.0889 47.4932 91.5652 47.7181 91.896 48.1547C92.24 48.6045 92.3988 49.2925 92.3988 50.2319C92.3988 50.7082 92.3591 51.1183 92.2665 51.4623C92.1738 51.8063 92.0548 52.0974 91.8828 52.3091C91.7108 52.534 91.5123 52.6928 91.2609 52.8118C91.036 52.9309 90.7582 52.9838 90.4539 52.9838ZM90.4671 52.2297C90.6656 52.2297 90.8243 52.1768 90.9566 52.0842C91.0889 51.9915 91.1948 51.8592 91.2874 51.6872C91.38 51.5152 91.4329 51.3036 91.4726 51.0654C91.5123 50.814 91.5255 50.5362 91.5255 50.2319C91.5255 49.9276 91.5123 49.6497 91.4726 49.4116C91.4329 49.1602 91.38 48.9618 91.2874 48.7765C91.208 48.6045 91.1022 48.4722 90.9566 48.3796C90.8243 48.287 90.6523 48.2341 90.4671 48.2341C90.2686 48.2341 90.1099 48.287 89.9776 48.3796C89.8453 48.4722 89.7394 48.6045 89.66 48.7765C89.5807 48.9485 89.5277 49.1602 89.488 49.3984C89.4484 49.6365 89.4351 49.9144 89.4351 50.2187C89.4351 50.867 89.5145 51.3565 89.6733 51.7005C89.8188 52.0577 90.0834 52.2297 90.4671 52.2297Z" fill="white"/>
<path d="M96.4209 49.2793L96.0372 48.6442L97.6513 47.6387H98.4054V52.8515H97.5322V48.6177L96.4209 49.2793Z" fill="white"/>
<path d="M103.817 51.4221C103.843 51.5544 103.87 51.6734 103.909 51.7793C103.949 51.8851 104.015 51.9645 104.081 52.0307C104.161 52.0968 104.253 52.1497 104.359 52.1762C104.478 52.2027 104.611 52.2291 104.769 52.2291C105.06 52.2291 105.285 52.1497 105.444 51.9778C105.603 51.8058 105.695 51.5411 105.695 51.1575C105.695 50.8267 105.616 50.5753 105.471 50.4165C105.312 50.2446 105.087 50.1652 104.769 50.1652C104.558 50.1652 104.372 50.2049 104.227 50.271C104.081 50.3372 103.936 50.443 103.817 50.5753H103.089L103.34 47.6514H106.264V48.4055H104.055L103.936 49.7683C104.081 49.6756 104.24 49.5963 104.412 49.5433C104.584 49.4904 104.769 49.4639 104.955 49.4639C105.246 49.4639 105.497 49.5169 105.709 49.6095C105.92 49.7021 106.079 49.8344 106.211 49.9932C106.344 50.1519 106.436 50.3372 106.489 50.5356C106.542 50.7341 106.582 50.9458 106.582 51.1442C106.582 51.4618 106.542 51.7396 106.45 51.9645C106.357 52.1894 106.238 52.3879 106.079 52.5334C105.92 52.679 105.735 52.798 105.523 52.8642C105.312 52.9436 105.074 52.97 104.835 52.97C104.267 52.97 103.817 52.8377 103.512 52.5864C103.208 52.335 103.036 51.9381 102.996 51.4088H103.817V51.4221Z" fill="white"/>
<path d="M119.098 51.0258C119.071 51.3037 119.005 51.5683 118.9 51.8064C118.794 52.0446 118.648 52.243 118.463 52.4283C118.278 52.6003 118.053 52.7458 117.788 52.8384C117.524 52.931 117.206 52.984 116.862 52.984C116.478 52.984 116.134 52.9178 115.83 52.7855C115.526 52.6532 115.274 52.468 115.063 52.2298C114.851 51.9917 114.692 51.6874 114.586 51.3434C114.481 50.9994 114.428 50.6025 114.428 50.1659C114.428 49.7292 114.481 49.3323 114.6 48.9751C114.719 48.6179 114.891 48.3268 115.102 48.0754C115.314 47.8373 115.579 47.6521 115.883 47.5197C116.187 47.3874 116.518 47.3213 116.875 47.3213C117.206 47.3213 117.497 47.361 117.748 47.4536C118 47.533 118.198 47.6653 118.384 47.824C118.556 47.9828 118.701 48.168 118.794 48.393C118.9 48.6179 118.979 48.856 119.019 49.1339L118.119 49.2662C118.079 49.0809 118.026 48.9222 117.973 48.7899C117.907 48.6443 117.828 48.5253 117.735 48.4327C117.643 48.34 117.524 48.2607 117.378 48.2077C117.232 48.1548 117.074 48.1284 116.875 48.1284C116.637 48.1284 116.425 48.1813 116.24 48.2739C116.055 48.3665 115.896 48.512 115.764 48.684C115.632 48.856 115.539 49.0809 115.473 49.3323C115.407 49.5837 115.38 49.8616 115.38 50.1791C115.38 50.4966 115.42 50.7745 115.486 51.0258C115.552 51.2772 115.658 51.4889 115.79 51.6741C115.923 51.8461 116.081 51.9917 116.267 52.0843C116.452 52.1769 116.664 52.2298 116.902 52.2298C117.113 52.2298 117.299 52.2034 117.444 52.1504C117.59 52.0975 117.722 52.0181 117.815 51.9123C117.92 51.8064 118 51.6874 118.053 51.5418C118.106 51.3963 118.159 51.2375 118.172 51.0523H119.098V51.0258Z" fill="white"/>
<path d="M122.644 47.4668H126.229V48.2474H123.557V49.6763H126.071V50.4701H123.557V52.0578H126.375L126.269 52.8384H122.644V47.4668Z" fill="white"/>
<path d="M131.746 47.4668C132.157 47.4668 132.487 47.5197 132.752 47.6123C133.017 47.7049 133.228 47.8373 133.374 47.9828C133.533 48.1416 133.638 48.3003 133.691 48.4855C133.757 48.6708 133.784 48.856 133.784 49.0412C133.784 49.3985 133.718 49.6895 133.572 49.9277C133.44 50.1658 133.215 50.3511 132.911 50.4966L134.022 52.8516H133.03L132.064 50.7083C132.024 50.7083 131.971 50.7215 131.918 50.7215C131.865 50.7215 131.813 50.7215 131.76 50.7215H130.807V52.8516H129.907V47.4668H131.746ZM131.813 49.9541C132.024 49.9541 132.183 49.9277 132.329 49.888C132.474 49.8483 132.567 49.7821 132.646 49.7028C132.725 49.6234 132.778 49.5308 132.818 49.4249C132.845 49.3191 132.871 49.1868 132.871 49.0545C132.871 48.9354 132.858 48.8163 132.818 48.7105C132.778 48.6046 132.712 48.5252 132.633 48.4459C132.54 48.3797 132.434 48.3135 132.276 48.2739C132.13 48.2342 131.945 48.2077 131.733 48.2077H130.807V49.9541H131.813Z" fill="white"/>
<path d="M138.639 48.2606H136.933V47.4668H141.246V48.2606H139.552V52.8516H138.639V48.2606Z" fill="white"/>
<path d="M144.633 47.4668H145.546V52.8516H144.633V47.4668Z" fill="white"/>
<path d="M152.809 47.4668V48.2474H150.282V49.7689H152.664V50.5627H150.282V52.8516H149.369V47.4668H152.809Z" fill="white"/>
<path d="M156.368 47.4668H157.281V52.8516H156.368V47.4668Z" fill="white"/>
<path d="M161.105 47.4668H164.69V48.2474H162.018V49.6763H164.532V50.4701H162.018V52.0578H164.836L164.73 52.8384H161.105V47.4668Z" fill="white"/>
<path d="M170.313 47.4664C170.71 47.4664 171.068 47.5193 171.385 47.6251C171.703 47.731 171.967 47.903 172.192 48.1147C172.417 48.3396 172.589 48.6174 172.695 48.9482C172.814 49.2789 172.867 49.6759 172.867 50.1257C172.867 50.5755 172.801 50.9724 172.682 51.3032C172.549 51.6472 172.377 51.925 172.139 52.15C171.901 52.3749 171.61 52.5469 171.279 52.666C170.935 52.785 170.552 52.838 170.128 52.838H168.369V47.4531H170.313V47.4664ZM170.168 52.0706C170.485 52.0706 170.75 52.0309 170.975 51.9383C171.2 51.8457 171.385 51.7134 171.531 51.5414C171.676 51.3694 171.782 51.1709 171.848 50.9328C171.914 50.6946 171.941 50.43 171.941 50.1389C171.941 49.5435 171.808 49.0805 171.57 48.7497C171.319 48.419 170.909 48.247 170.34 48.247H169.295V52.0838H170.168V52.0706Z" fill="white"/>
</svg>
