<svg width="63" height="59" viewBox="0 0 63 59" fill="none" xmlns="http://www.w3.org/2000/svg">
<circle cx="40.9673" cy="21.5" r="21.5" fill="#E5FDFF"/>
<path d="M26.6803 42.7142C28.2008 42.7142 29.6715 42.7142 31.1494 42.7142C34.2117 42.7142 36.0022 44.9961 35.2704 47.942C34.6664 50.3511 34.0625 52.753 33.4585 55.155C32.9044 57.3451 31.4407 58.4895 29.167 58.4895C26.5737 58.4895 23.9803 58.4895 21.394 58.4895C19.6462 58.4895 17.9836 58.1222 16.4275 57.3168C15.6815 56.9282 15.312 56.3489 15.312 55.5083C15.312 51.3331 15.312 47.1579 15.3049 42.9827C15.3049 42.4034 15.4755 41.923 15.852 41.485C18.9925 37.8467 22.1188 34.1943 25.2663 30.556C26.1687 29.5175 27.5116 29.2702 28.6484 29.8919C29.7994 30.5207 30.311 31.8206 29.8776 33.1416C28.8899 36.1371 27.881 39.1254 26.8792 42.1208C26.801 42.3045 26.7513 42.4811 26.6803 42.7142Z" fill="#22BECA"/>
<path d="M18.5874 13.9469C19.1203 13.9469 19.6461 13.9469 20.179 13.9469C20.8398 13.9469 21.2874 13.6361 21.5432 13.0356C22.0263 11.9193 22.5237 10.8031 22.9855 9.6728C23.2555 9.01579 23.6179 8.49301 24.3994 8.50007C25.1881 8.50714 25.5363 9.04405 25.7991 9.69399C26.2539 10.789 26.7441 11.8628 27.1989 12.9578C27.476 13.629 27.952 13.961 28.6838 13.9469C29.6857 13.9328 30.6875 13.954 31.6893 13.9398C32.3501 13.9328 32.8972 14.1235 33.1672 14.7664C33.4443 15.4234 33.2027 15.9603 32.7053 16.4336C31.9664 17.1401 31.2701 17.8819 30.5312 18.5813C30.0125 19.0688 29.8491 19.6057 30.0338 20.3051C30.4246 21.7392 30.7514 23.1874 31.1209 24.6215C31.2843 25.2574 31.2417 25.8296 30.6946 26.2535C30.1191 26.6985 29.5435 26.5784 28.9538 26.2323C27.7815 25.547 26.5807 24.9041 25.4226 24.2047C24.7121 23.7738 24.0868 23.7526 23.3621 24.1977C22.2039 24.9112 20.9961 25.5399 19.8308 26.2252C19.2482 26.5643 18.6727 26.7127 18.0901 26.2747C17.5074 25.8437 17.479 25.2574 17.6496 24.6004C18.0261 23.1662 18.353 21.718 18.7366 20.2839C18.9214 19.6057 18.7508 19.0829 18.2535 18.6025C17.4932 17.8678 16.7614 17.1048 16.0012 16.3771C15.5322 15.925 15.3475 15.4022 15.5891 14.7947C15.8306 14.173 16.3493 13.9398 16.9888 13.9469C17.5288 13.954 18.0545 13.9469 18.5874 13.9469Z" fill="#22BECA"/>
<path d="M37.0677 21.9018C39.3627 21.9089 39.1211 22.0502 40.0021 19.9873C40.2437 19.4151 40.4995 18.8499 40.7411 18.2777C40.9329 17.8255 41.2598 17.5288 41.7713 17.5288C42.2829 17.5288 42.6097 17.8043 42.8087 18.2635C43.2066 19.1961 43.6329 20.1215 44.0165 21.0611C44.251 21.6404 44.6631 21.9089 45.2813 21.9018C46.077 21.8947 46.8728 21.9089 47.6686 21.8947C48.1873 21.8877 48.5994 22.0572 48.8125 22.5518C49.0328 23.0533 48.8551 23.4631 48.4928 23.8234C47.9173 24.3956 47.3631 24.9891 46.7662 25.533C46.276 25.9781 46.1481 26.4656 46.3328 27.1014C46.6383 28.1893 46.887 29.2843 47.1712 30.3794C47.3062 30.9092 47.2991 31.3967 46.816 31.7499C46.3541 32.089 45.8994 31.976 45.4376 31.7075C44.4784 31.1494 43.4979 30.6125 42.5387 30.0473C42.0271 29.7435 41.5653 29.7365 41.0537 30.0403C40.0945 30.6054 39.114 31.1423 38.1548 31.7004C37.6788 31.976 37.2027 32.0961 36.7338 31.7216C36.2933 31.3684 36.2648 30.9092 36.4069 30.3935C36.7125 29.249 36.9682 28.0904 37.2738 26.953C37.423 26.4161 37.2951 25.9993 36.9043 25.6249C36.2933 25.0314 35.7035 24.4239 35.0925 23.8305C34.723 23.4702 34.5454 23.0533 34.7514 22.5588C34.9504 22.0572 35.3625 21.8736 35.8883 21.8877C36.2719 21.9089 36.6698 21.9018 37.0677 21.9018Z" fill="#22BECA"/>
<path d="M2.4162 21.9017C2.56541 21.9017 2.72172 21.9017 2.87093 21.9017C4.53353 21.9017 4.53353 21.9017 5.19431 20.3546C5.49272 19.6622 5.79114 18.977 6.08956 18.2846C6.28139 17.8254 6.60823 17.5358 7.1198 17.5358C7.63137 17.5287 7.96531 17.8113 8.15715 18.2705C8.56214 19.203 8.98135 20.1285 9.35792 21.0681C9.59239 21.6474 10.0045 21.9158 10.6226 21.9088C11.4326 21.9017 12.2497 21.9088 13.0668 21.9088C13.5713 21.9088 13.9549 22.0925 14.1539 22.5658C14.3599 23.0391 14.2178 23.4489 13.8697 23.8021C13.2942 24.3743 12.74 24.9678 12.136 25.5117C11.6102 25.9851 11.4824 26.5008 11.6742 27.179C11.9868 28.2599 12.2284 29.362 12.5126 30.457C12.6476 30.9727 12.605 31.4319 12.1431 31.771C11.7026 32.0889 11.2621 32.0183 10.8216 31.7569C9.84107 31.1917 8.84635 30.6477 7.87294 30.0684C7.36137 29.7717 6.89954 29.7576 6.38797 30.0614C5.42878 30.6265 4.44827 31.1634 3.48908 31.7215C3.01303 31.9971 2.53699 32.1172 2.06805 31.7427C1.62043 31.3895 1.60622 30.9232 1.74121 30.4146C2.03963 29.2701 2.29541 28.1115 2.60804 26.9741C2.75725 26.4372 2.62225 26.0204 2.23857 25.646C1.63464 25.0525 1.03781 24.445 0.433869 23.8516C0.0644024 23.4913 -0.120331 23.0886 0.0857178 22.5799C0.291767 22.0783 0.696759 21.9017 1.22254 21.9088C1.62043 21.9088 2.01831 21.9017 2.4162 21.9017Z" fill="#22BECA"/>
<path d="M13.486 49.6233C13.486 51.8981 13.486 54.18 13.486 56.4548C13.486 57.7335 12.7755 58.4682 11.5037 58.4894C10.6155 58.5035 9.72739 58.5035 8.83214 58.4894C7.57453 58.4682 6.84981 57.7617 6.84981 56.5184C6.84271 51.9052 6.84271 47.299 6.84981 42.6858C6.84981 41.4636 7.56743 40.7713 8.79662 40.7572C9.72739 40.7501 10.6511 40.7431 11.5818 40.7572C12.7613 40.7713 13.4789 41.499 13.4789 42.6788C13.4931 44.996 13.486 47.3061 13.486 49.6233Z" fill="#22BECA"/>
</svg>
