<svg width="58" height="54" viewBox="0 0 58 54" fill="none" xmlns="http://www.w3.org/2000/svg">
<rect y="54" width="54" height="57.1765" rx="10" transform="rotate(-90 0 54)" fill="url(#paint0_linear_119_27811)"/>
<g clip-path="url(#clip0_119_27811)">
<path d="M11 25.7254C11.9254 24.2878 12.9385 22.9301 14.1561 21.7421C17.2441 18.7271 20.8775 16.8302 25.0857 16.1015C25.8845 15.9617 26.6833 15.8718 27.4918 15.8419C27.7743 15.8319 27.8717 15.7421 27.862 15.4525C27.8522 14.1248 27.8522 12.787 27.862 11.4592C27.862 11.0299 27.8814 11 28.31 11.0099C29.2452 11.0099 29.1186 10.9201 29.1186 11.8186C29.1283 13.0166 29.1283 14.2246 29.1186 15.4226C29.1186 15.7221 29.1965 15.8219 29.4985 15.8419C34.2911 16.1015 38.509 17.8485 42.1328 21.0832C43.5647 22.361 44.7726 23.8485 45.8149 25.4758C46.0487 25.8452 46.0584 26.1647 45.8149 26.5341C42.5127 31.6356 37.9343 34.7504 32.0701 35.8785C31.2129 36.0482 30.3362 36.1381 29.4595 36.168C29.1868 36.178 29.1088 36.2778 29.1186 36.5474C29.1283 37.8752 29.1186 39.2129 29.1186 40.5407C29.1186 40.98 29.0991 41 28.6802 41C27.7256 41 27.862 41.0898 27.862 40.1614C27.8522 38.9733 27.8522 37.7753 27.862 36.5873C27.862 36.2678 27.7645 36.178 27.4528 36.168C22.6894 35.8885 18.491 34.1713 14.877 30.9567C13.3574 29.599 12.1105 28.0016 11 26.2845C11 26.0948 11 25.9051 11 25.7254ZM27.8717 33.1431C27.8717 32.8236 27.8717 32.5141 27.8717 32.1946C27.8912 31.2262 27.7061 31.3361 28.7679 31.3261C29.0504 31.3261 29.138 31.4459 29.138 31.7254C29.1283 32.5041 29.138 33.2928 29.138 34.0715C29.138 35.0698 29.0601 34.95 29.9953 34.7803C33.8333 34.0815 36.6582 31.0066 37.155 27.0233C37.1842 26.7537 37.1258 26.6339 36.8433 26.6439C36.0835 26.6539 35.3139 26.6539 34.5541 26.6439C33.6092 26.6339 33.7164 26.8236 33.7067 25.7254C33.7067 25.4359 33.8235 25.346 34.0963 25.346C34.8561 25.356 35.6257 25.346 36.3855 25.346C37.3596 25.346 37.2427 25.4259 37.0771 24.4675C36.3952 20.5341 33.3852 17.6289 29.5082 17.1297C29.2452 17.0998 29.1283 17.1597 29.138 17.4492C29.1478 18.2279 29.1478 19.0166 29.138 19.7953C29.1283 20.7637 29.3134 20.6539 28.2419 20.6639C27.9594 20.6639 27.8717 20.5441 27.8717 20.2645C27.8814 19.4858 27.8717 18.6971 27.8717 17.9184C27.8717 16.9201 27.9496 17.0399 27.0145 17.2096C23.1862 17.8985 20.3418 20.9933 19.8547 24.9667C19.8255 25.2262 19.8839 25.356 20.1664 25.346C20.9262 25.3361 21.6958 25.3361 22.4556 25.346C23.4005 25.356 23.2933 25.1663 23.3128 26.2545C23.3128 26.5441 23.1959 26.6339 22.9232 26.6339C22.027 26.6239 21.1211 26.6239 20.2249 26.6339C19.845 26.6339 19.806 26.6838 19.8645 27.0632C19.8742 27.1331 19.8937 27.203 19.9034 27.2728C20.41 31.2163 23.683 34.4708 27.5405 34.8602C27.8035 34.8901 27.8912 34.7903 27.8814 34.5307C27.862 34.0715 27.8717 33.6123 27.8717 33.1431ZM35.0412 33.752C35.0802 33.7421 35.1289 33.7321 35.1678 33.7221C39.074 32.2346 42.2009 29.7188 44.5583 26.1847C44.6849 25.995 44.5973 25.8951 44.5096 25.7554C42.4347 22.6306 39.6975 20.3045 36.327 18.767C35.9082 18.5773 35.4893 18.3777 35.0217 18.2778C35.4406 18.6971 35.8497 19.1164 36.2101 19.5757C37.418 21.1231 38.1584 22.8802 38.3629 24.8569C38.4116 25.356 38.4214 25.356 38.8987 25.356C40.0384 25.356 41.1781 25.356 42.3178 25.356C43.2238 25.366 43.1166 25.2262 43.1361 26.2046C43.1458 26.574 43.0095 26.6639 42.6783 26.6539C41.4217 26.6339 40.1748 26.6439 38.9182 26.6439C38.4214 26.6439 38.4116 26.6439 38.3629 27.153C38.285 27.9916 38.0804 28.8103 37.7882 29.599C37.2037 31.2063 36.2686 32.564 35.0412 33.752ZM21.988 18.2878C21.8809 18.2279 21.8127 18.2978 21.7348 18.3178C17.9065 19.8053 14.8185 22.2612 12.5001 25.7254C12.3638 25.9351 12.3832 26.0948 12.5099 26.2945C14.8185 29.7287 17.887 32.1847 21.6958 33.6722C21.7737 33.7021 21.8614 33.782 21.988 33.7121C21.5107 33.2828 21.0821 32.8236 20.7022 32.3344C19.5333 30.797 18.8124 29.0698 18.6273 27.1231C18.5884 26.7737 18.4812 26.6239 18.1013 26.6339C16.9616 26.6639 15.8219 26.6539 14.6822 26.6439C13.7665 26.6339 13.8736 26.7837 13.8542 25.7753C13.8444 25.4559 13.9516 25.346 14.2633 25.346C15.5296 25.356 16.7863 25.356 18.0526 25.356C18.5591 25.356 18.5591 25.356 18.6176 24.8569C18.8416 22.7903 19.6307 20.9733 20.936 19.386C21.2672 18.9966 21.6179 18.6472 21.988 18.2878Z" fill="white"/>
<path d="M13.8643 13.9451C13.8643 13.2463 13.8643 12.5474 13.8643 11.8486C13.874 11.2596 14.1078 11.01 14.6728 11.01C16.0658 11 17.449 11.01 18.842 11C19.1147 11 19.2316 11.0998 19.2219 11.3894C19.2024 12.4576 19.3291 12.2779 18.3647 12.2879C17.4198 12.2978 16.4749 12.2978 15.53 12.2879C15.228 12.2779 15.1111 12.3677 15.1209 12.6972C15.1404 13.8153 15.1209 14.9334 15.1306 16.0516C15.1404 16.391 15.0235 16.5008 14.702 16.4908C13.7668 16.4709 13.874 16.6007 13.874 15.6622C13.8643 15.0832 13.8643 14.5141 13.8643 13.9451Z" fill="white"/>
<path d="M43.1365 13.9751C43.1365 14.6839 43.1267 15.4027 43.1365 16.1115C43.1365 16.3711 43.0488 16.4909 42.7761 16.4909C41.7045 16.4709 41.8896 16.6007 41.8799 15.5924C41.8701 14.614 41.8701 13.6356 41.8799 12.6473C41.8799 12.3777 41.8019 12.2779 41.5292 12.2779C40.4284 12.2879 39.3179 12.2779 38.2172 12.2879C37.8957 12.2879 37.7691 12.188 37.7788 11.8486C37.8081 10.8702 37.6717 11 38.6263 10.99C39.8342 10.98 41.0421 10.99 42.25 10.99C42.9124 10.99 43.1365 11.2296 43.1365 11.8985C43.1365 12.5974 43.1365 13.2862 43.1365 13.9751Z" fill="white"/>
<path d="M13.8643 38.0449C13.8643 37.3361 13.874 36.6273 13.8643 35.9085C13.8643 35.629 13.9519 35.5092 14.2344 35.5092C15.2865 35.5291 15.1111 35.3993 15.1209 36.3877C15.1306 37.3661 15.1306 38.3444 15.1209 39.3228C15.1111 39.6323 15.2183 39.7221 15.5105 39.7122C16.6015 39.7022 17.6925 39.7122 18.7835 39.7022C19.105 39.7022 19.2316 39.802 19.2219 40.1414C19.1927 41.1198 19.3291 40.99 18.3842 41C17.1763 41.01 15.9683 41 14.7702 41C14.098 41 13.874 40.7704 13.874 40.0716C13.8643 39.3927 13.8643 38.7138 13.8643 38.0449Z" fill="white"/>
<path d="M43.1365 38.0749C43.1365 38.7637 43.1365 39.4526 43.1365 40.1414C43.1267 40.7404 42.893 41 42.2987 41C40.935 41 39.5615 41 38.1977 41.01C37.8957 41.01 37.7691 40.9201 37.7788 40.5907C37.7983 39.5724 37.6814 39.7321 38.6068 39.7221C39.5712 39.7121 40.5453 39.7121 41.5097 39.7221C41.7922 39.7221 41.8896 39.6323 41.8799 39.3428C41.8701 38.2146 41.8799 37.0765 41.8701 35.9484C41.8701 35.6289 41.9675 35.5091 42.2793 35.5191C43.2436 35.5391 43.1267 35.4093 43.1267 36.3677C43.1365 36.9268 43.1365 37.5058 43.1365 38.0749Z" fill="white"/>
<path d="M32.616 26.0249C32.6063 28.3411 30.736 30.2279 28.4565 30.2179C26.2161 30.208 24.375 28.2911 24.375 25.965C24.3847 23.6489 26.255 21.762 28.5345 21.772C30.7847 21.792 32.6258 23.7088 32.616 26.0249ZM31.3594 26.0149C31.3594 24.3677 30.1223 23.0698 28.5247 23.0698C26.9174 23.0599 25.6511 24.3377 25.6414 25.975C25.6316 27.6422 26.8785 28.9401 28.4955 28.9401C30.0931 28.9401 31.3594 27.6522 31.3594 26.0149Z" fill="white"/>
</g>
<defs>
<linearGradient id="paint0_linear_119_27811" x1="27" y1="54" x2="27" y2="111.176" gradientUnits="userSpaceOnUse">
<stop stop-color="#F8D839"/>
<stop offset="1" stop-color="#FDE776"/>
</linearGradient>
<clipPath id="clip0_119_27811">
<rect width="35" height="30" fill="white" transform="translate(11 11)"/>
</clipPath>
</defs>
</svg>
