<svg width="61" height="53" viewBox="0 0 61 53" fill="none" xmlns="http://www.w3.org/2000/svg">
<circle cx="39.5" cy="21.5" r="21.5" fill="#E5FDFF"/>
<path d="M42.9437 31.3329C42.9437 35.9918 42.9437 40.6508 42.9437 45.3097C42.9437 46.313 42.6197 46.6348 41.608 46.6369C40.3839 46.639 39.1576 46.6411 37.9335 46.6348C37.048 46.6306 36.6925 46.2814 36.6925 45.4085C36.6904 35.994 36.6904 26.5815 36.6925 17.1669C36.6925 16.2877 37.0395 15.9469 37.9314 15.9427C39.1892 15.9364 40.447 15.9364 41.7027 15.9427C42.6134 15.9469 42.9437 16.2877 42.9437 17.2131C42.9458 21.9183 42.9437 26.6256 42.9437 31.3329Z" fill="#22BECA"/>
<path d="M31.3481 34.2333C31.3481 37.9415 31.3481 41.6497 31.3481 45.3579C31.3481 46.3128 31.0284 46.6325 30.0693 46.6346C28.8283 46.6388 27.5873 46.6409 26.3442 46.6346C25.4503 46.6304 25.1222 46.2981 25.1222 45.4021C25.1201 37.9541 25.1201 30.504 25.1222 23.0561C25.1222 22.1621 25.4545 21.8319 26.3505 21.8277C27.6083 21.8235 28.8661 21.8214 30.1239 21.8277C31.0137 21.8319 31.3481 22.1727 31.3481 23.0624C31.3481 26.7853 31.3481 30.5103 31.3481 34.2333Z" fill="#22BECA"/>
<path d="M13.5305 37.5041C13.5305 34.875 13.5305 32.2479 13.5305 29.6187C13.5305 28.7121 13.8544 28.3861 14.7462 28.384C16.0356 28.3819 17.327 28.3798 18.6164 28.384C19.3925 28.3861 19.7543 28.729 19.7543 29.4967C19.7585 34.835 19.7585 40.1733 19.7543 45.5095C19.7543 46.2583 19.4093 46.618 18.6626 46.6285C17.3249 46.6453 15.9851 46.6432 14.6474 46.6285C13.8775 46.6201 13.5305 46.252 13.5305 45.4843C13.5284 42.8256 13.5305 40.1649 13.5305 37.5041Z" fill="#22BECA"/>
<path d="M22.4635 49.7414C29.5097 49.7414 36.5538 49.754 43.6001 49.7288C44.7885 49.7246 44.9883 50.528 44.8347 51.3063C44.7443 51.769 44.4288 52.0256 43.9618 52.0803C43.8335 52.095 43.7052 52.0866 43.5748 52.0866C29.4845 52.0866 15.3941 52.0803 1.30381 52.0993C0.285786 52.1014 -0.130677 51.5145 0.0354877 50.5365C0.117518 50.0632 0.458261 49.7814 0.939928 49.7477C1.11661 49.7351 1.29539 49.7414 1.47208 49.7414C8.46992 49.7414 15.4678 49.7414 22.4635 49.7414Z" fill="#22BECA"/>
<path d="M40.9541 5.73931C39.976 5.7919 39.1263 5.84448 38.2765 5.88234C37.6939 5.90758 37.2901 5.51005 37.3847 5.00945C37.4562 4.63716 37.6855 4.39948 38.0725 4.37634C39.7131 4.27749 41.3558 4.17653 42.9986 4.10081C43.5728 4.07346 43.8967 4.43734 43.8189 5.03259C43.6043 6.64586 43.3687 8.25492 43.1205 9.86188C43.049 10.3204 42.6767 10.5623 42.2435 10.4992C41.8102 10.4361 41.5536 10.0659 41.6146 9.57162C41.6671 9.14043 41.7387 8.71135 41.8018 8.28016C41.8649 7.85318 41.928 7.4283 42.0079 6.88564C41.3895 7.41989 40.8573 7.88052 40.3231 8.33905C31.4112 15.9868 21.5086 22.034 10.7163 26.6319C7.96306 27.8034 5.14458 28.8194 2.35553 29.9047C2.26509 29.9405 2.17465 29.9762 2.0821 30.0014C1.62778 30.1255 1.22604 29.9447 1.08301 29.5576C0.929463 29.1433 1.12087 28.7394 1.59202 28.5607C2.55535 28.1968 3.5292 27.8602 4.49464 27.4985C14.6286 23.704 24.1462 18.7506 32.8457 12.2997C35.5106 10.3246 38.0262 8.14975 40.6092 6.06323C40.6954 5.99592 40.7711 5.91389 40.9541 5.73931Z" fill="#22BECA"/>
<path d="M8.18794 40.655C8.18794 42.2178 8.19004 43.7827 8.18794 45.3455C8.18584 46.2878 7.8472 46.6306 6.9091 46.6348C5.66813 46.6391 4.42715 46.6391 3.18407 46.6348C2.27543 46.6306 1.93468 46.2815 1.93468 45.3686C1.93258 42.2094 1.93258 39.0481 1.93468 35.8888C1.93468 34.9928 2.26701 34.6647 3.16094 34.6626C4.45029 34.6605 5.73964 34.6584 7.0311 34.6626C7.82406 34.6647 8.18163 35.0159 8.18584 35.8173C8.19215 37.4306 8.18584 39.0439 8.18794 40.655Z" fill="#22BECA"/>
</svg>
