<svg width="80" height="79" viewBox="0 0 80 79" fill="none" xmlns="http://www.w3.org/2000/svg">
<path d="M0 10C0 4.47715 4.47715 0 10 0H70C75.5229 0 80 4.47715 80 10V69C80 74.5229 75.5229 79 70 79H10C4.47715 79 0 74.5229 0 69V10Z" fill="url(#paint0_linear_691_388)"/>
<path d="M40 63C52.6777 63 63 52.6777 63 40C63 27.3223 52.6777 17 40 17C27.3223 17 17 27.3223 17 40C17 52.6777 27.3223 63 40 63ZM40 19.562C51.2683 19.562 60.438 28.7317 60.438 40C60.438 51.2683 51.2683 60.438 40 60.438C28.7317 60.438 19.562 51.2683 19.562 40C19.562 28.7317 28.7317 19.562 40 19.562Z" fill="white"/>
<path d="M41.5748 49.938C41.5748 52.0366 38.4246 52.0366 38.4246 49.938C38.4246 47.8371 41.5748 47.8371 41.5748 49.938Z" fill="white"/>
<path d="M38.7202 28.4871H41.2822V44.7496H38.7202V28.4871Z" fill="white"/>
<defs>
<linearGradient id="paint0_linear_691_388" x1="40" y1="-14.5" x2="40" y2="79" gradientUnits="userSpaceOnUse">
<stop stop-color="#40E0ED"/>
<stop offset="1" stop-color="#55D0D9"/>
</linearGradient>
</defs>
</svg>
