<svg width="35" height="35" viewBox="0 0 35 35" fill="none" xmlns="http://www.w3.org/2000/svg">
<ellipse cx="17.2386" cy="17.2383" rx="16.8182" ry="16.8179" stroke="white" stroke-width="0.840901"/>
<path d="M20.6737 9.86198C21.7251 9.86198 22.7334 10.2796 23.4768 11.0231C24.2203 11.7665 24.6379 12.7748 24.6379 13.8262V20.6735C24.6379 21.7248 24.2203 22.7332 23.4768 23.4766C22.7334 24.22 21.7251 24.6377 20.6737 24.6377H13.8263C12.7749 24.6377 11.7665 24.22 11.0231 23.4766C10.2796 22.7332 9.86197 21.7248 9.86197 20.6735V13.8262C9.86197 12.7748 10.2796 11.7665 11.0231 11.0231C11.7665 10.2796 12.7749 9.86198 13.8263 9.86198H20.6737ZM20.6737 8.42045H13.8263C12.3939 8.42473 11.0213 8.99563 10.0085 10.0085C8.9956 11.0213 8.42469 12.3938 8.42041 13.8262V20.6735C8.42469 22.1058 8.9956 23.4783 10.0085 24.4912C11.0213 25.504 12.3939 26.0749 13.8263 26.0792H20.6737C22.1061 26.0749 23.4786 25.504 24.4914 24.4912C25.5043 23.4783 26.0752 22.1058 26.0795 20.6735V13.8262C26.0752 12.3938 25.5043 11.0213 24.4914 10.0085C23.4786 8.99563 22.1061 8.42473 20.6737 8.42045Z" fill="white"/>
<path d="M21.9603 11.4837C21.756 11.4837 21.5564 11.5443 21.3866 11.6577C21.2168 11.7712 21.0845 11.9324 21.0063 12.1211C20.9282 12.3097 20.9077 12.5173 20.9476 12.7176C20.9874 12.9179 21.0858 13.1019 21.2302 13.2463C21.3746 13.3907 21.5585 13.489 21.7588 13.5289C21.9591 13.5687 22.1667 13.5483 22.3554 13.4701C22.544 13.392 22.7053 13.2596 22.8188 13.0898C22.9322 12.92 22.9928 12.7204 22.9928 12.5162C22.9928 12.3806 22.9661 12.2464 22.9142 12.1211C22.8623 11.9958 22.7862 11.882 22.6903 11.7861C22.5945 11.6902 22.4806 11.6142 22.3554 11.5623C22.2301 11.5104 22.0958 11.4837 21.9603 11.4837Z" fill="white"/>
<path d="M17.2986 14.0915C17.9288 14.0911 18.545 14.2777 19.0692 14.6276C19.5934 14.9776 20.002 15.4751 20.2434 16.0573C20.4847 16.6395 20.548 17.2802 20.4251 17.8983C20.3022 18.5165 19.9988 19.0843 19.5531 19.53C19.1074 19.9756 18.5396 20.2791 17.9215 20.4019C17.3033 20.5248 16.6626 20.4616 16.0804 20.2202C15.4982 19.9789 15.0006 19.5702 14.6507 19.0461C14.3008 18.5219 14.1142 17.9057 14.1145 17.2755C14.116 16.4315 14.4519 15.6224 15.0487 15.0256C15.6455 14.4288 16.4545 14.0929 17.2986 14.0915ZM17.2986 12.65C16.3837 12.6517 15.4898 12.9247 14.73 13.4343C13.9702 13.9439 13.3785 14.6673 13.0297 15.5131C12.6809 16.3589 12.5906 17.2891 12.7703 18.1862C12.95 19.0833 13.3916 19.9069 14.0393 20.5531C14.687 21.1993 15.5117 21.6389 16.4092 21.8165C17.3067 21.9942 18.2367 21.9017 19.0817 21.551C19.9267 21.2002 20.6488 20.6068 21.1566 19.8458C21.6645 19.0848 21.9353 18.1904 21.935 17.2755C21.9347 16.6672 21.8146 16.0649 21.5814 15.5031C21.3481 14.9413 21.0065 14.431 20.5758 14.0014C20.1452 13.5718 19.6341 13.2313 19.0718 12.9994C18.5094 12.7675 17.9069 12.6488 17.2986 12.65Z" fill="white"/>
</svg>
