<svg width="101" height="101" viewBox="0 0 101 101" fill="none" xmlns="http://www.w3.org/2000/svg">
<circle cx="50.5" cy="50.5" r="49" fill="#22BECA" stroke="white" stroke-width="3"/>
<path d="M35.3127 30.0006C34.7129 29.9865 34.1325 30.2106 33.7003 30.6233C33.2664 31.0361 33.0141 31.6059 33 32.2039V69.7961C33.0141 70.3941 33.2664 70.9639 33.7003 71.3767C34.1325 71.7894 34.7129 72.0135 35.3127 71.9994H65.9122C66.512 72.0135 67.0924 71.7894 67.5246 71.3767C67.9585 70.9639 68.2108 70.3941 68.2249 69.7961V32.2039C68.2108 31.6059 67.9585 31.0361 67.5246 30.6233C67.0924 30.2106 66.512 29.9865 65.9122 30.0006H35.3127ZM66.8701 69.7961C66.856 70.036 66.7466 70.26 66.5684 70.4188C66.3885 70.5776 66.1521 70.6587 65.9122 70.6446H35.3127C35.0727 70.6587 34.8364 70.5776 34.6564 70.4188C34.4783 70.26 34.3689 70.036 34.3548 69.7961V38.1294H66.87L66.8701 69.7961ZM66.8701 36.7746H34.3548V32.204C34.369 31.9641 34.4783 31.7401 34.6565 31.5813C34.8364 31.4225 35.0728 31.3414 35.3127 31.3555H65.9123C66.1522 31.3414 66.3886 31.4225 66.5685 31.5813C66.7466 31.74 66.856 31.9641 66.8701 32.204L66.8701 36.7746Z" fill="white"/>
<path d="M37.8699 32.0328C37.0479 32.0328 36.307 32.5285 35.993 33.287C35.679 34.0473 35.8518 34.9206 36.434 35.5027C37.0144 36.0831 37.8894 36.2577 38.6479 35.9419C39.4082 35.6279 39.9021 34.887 39.9021 34.065C39.9021 32.943 38.9919 32.0328 37.8699 32.0328ZM37.8699 34.7424C37.5965 34.7424 37.3495 34.5766 37.2437 34.3243C37.1396 34.0703 37.1978 33.7792 37.3919 33.5852C37.5859 33.3929 37.877 33.3347 38.1292 33.4388C38.3833 33.5446 38.5473 33.7916 38.5473 34.065C38.5473 34.439 38.2439 34.7424 37.8699 34.7424Z" fill="white"/>
<path d="M42.7072 32.0328C41.8851 32.0328 41.1442 32.5285 40.8302 33.287C40.5145 34.0473 40.6891 34.9206 41.2695 35.5027C41.8517 36.0831 42.7249 36.2577 43.4851 35.9419C44.2437 35.6279 44.7394 34.887 44.7394 34.065C44.7376 32.943 43.8291 32.0346 42.7072 32.0328ZM42.7072 34.7424C42.4338 34.7424 42.1868 34.5766 42.081 34.3243C41.9769 34.0703 42.0351 33.7792 42.2274 33.5852C42.4214 33.3929 42.7125 33.3347 42.9665 33.4388C43.2188 33.5446 43.3846 33.7916 43.3846 34.065C43.3846 34.439 43.0812 34.7424 42.7072 34.7424Z" fill="white"/>
<path d="M47.5442 32.0328C46.7221 32.0328 45.9812 32.5285 45.6654 33.287C45.3514 34.0473 45.5261 34.9206 46.1064 35.5027C46.6886 36.0831 47.5618 36.2577 48.3221 35.9419C49.0806 35.6279 49.5763 34.887 49.5763 34.065C49.5728 32.943 48.6644 32.0346 47.5442 32.0328ZM47.5442 34.7424C47.269 34.7424 47.022 34.5766 46.9179 34.3243C46.8139 34.0703 46.8703 33.7792 47.0644 33.5852C47.2584 33.3929 47.5495 33.3347 47.8035 33.4388C48.0558 33.5446 48.2216 33.7916 48.2216 34.065C48.2216 34.439 47.9182 34.7424 47.5442 34.7424Z" fill="white"/>
<path d="M59.7291 44.9353C60.6235 44.9353 61.4314 44.3955 61.7736 43.5682C62.1158 42.7408 61.9253 41.7882 61.292 41.1567C60.657 40.5234 59.7044 40.3347 58.8787 40.6786C58.0514 41.0226 57.5134 41.8306 57.5151 42.7267C57.5151 43.3142 57.748 43.8752 58.1643 44.2897C58.5789 44.7042 59.1417 44.9371 59.7291 44.9353ZM59.7291 41.8693C60.0748 41.8693 60.3888 42.0775 60.5211 42.3986C60.6534 42.7196 60.5811 43.0883 60.3359 43.3335C60.0889 43.5787 59.7202 43.6528 59.401 43.5187C59.0799 43.3864 58.87 43.0742 58.87 42.7267C58.87 42.4991 58.9599 42.2804 59.1222 42.1198C59.2828 41.9593 59.5015 41.8693 59.7291 41.8693Z" fill="white"/>
<path d="M59.7291 50.1517C60.6235 50.1517 61.4314 49.6119 61.7736 48.7846C62.1158 47.9572 61.9253 47.0046 61.292 46.3713C60.657 45.7398 59.7044 45.551 58.8787 45.895C58.0514 46.239 57.5134 47.047 57.5151 47.9431C57.5151 48.5288 57.748 49.0915 58.1643 49.5061C58.5789 49.9206 59.1417 50.1517 59.7291 50.1517ZM59.7291 47.084C60.0748 47.084 60.3888 47.2939 60.5211 47.615C60.6534 47.9343 60.5811 48.3047 60.3359 48.5499C60.0889 48.7951 59.7202 48.8692 59.401 48.7352C59.0799 48.6028 58.87 48.2906 58.87 47.9431C58.87 47.7155 58.9599 47.4968 59.1222 47.3362C59.2828 47.1757 59.5015 47.084 59.7291 47.084Z" fill="white"/>
<path d="M59.729 55.3717C60.6234 55.3717 61.4296 54.8319 61.7735 54.0064C62.1158 53.179 61.9253 52.2264 61.2937 51.5949C60.6604 50.9616 59.7078 50.7729 58.8823 51.1151C58.0549 51.4573 57.5151 52.2635 57.5151 53.1596C57.5151 53.7453 57.748 54.308 58.1643 54.7243C58.5789 55.1389 59.1416 55.3717 59.729 55.3717ZM59.729 52.3005C60.0748 52.3005 60.3888 52.5104 60.5211 52.8315C60.6534 53.1508 60.5811 53.5212 60.3359 53.7664C60.0889 54.0116 59.7202 54.084 59.4009 53.9517C59.0798 53.8194 58.8699 53.5054 58.8699 53.1596C58.8699 52.932 58.9599 52.7133 59.1222 52.5527C59.2827 52.3922 59.5014 52.3005 59.729 52.3005Z" fill="white"/>
<path d="M51.6367 58.9928C51.6367 59.3668 51.9401 59.6702 52.3141 59.6702H63.708C64.082 59.6702 64.3854 59.3668 64.3854 58.9928C64.3854 58.6189 64.082 58.3154 63.708 58.3154H52.3141C51.9401 58.3154 51.6367 58.6189 51.6367 58.9928Z" fill="white"/>
<path d="M63.708 62.5621H52.3141C51.9401 62.5621 51.6367 62.8656 51.6367 63.2395C51.6367 63.6135 51.9401 63.9169 52.3141 63.9169H63.708C64.082 63.9169 64.3854 63.6135 64.3854 63.2395C64.3854 62.8656 64.082 62.5621 63.708 62.5621Z" fill="white"/>
<path d="M63.708 66.806H52.3141C51.9401 66.806 51.6367 67.1095 51.6367 67.4834C51.6367 67.8574 51.9401 68.1608 52.3141 68.1608H63.708C64.082 68.1608 64.3854 67.8574 64.3854 67.4834C64.3854 67.1095 64.082 66.806 63.708 66.806Z" fill="white"/>
<path d="M38.7436 55.3717H52.8439C53.8971 55.3699 54.7509 54.5162 54.7544 53.4612V42.374C54.7544 41.3191 53.8989 40.4617 52.8439 40.46H38.7436C37.687 40.46 36.8296 41.3173 36.8296 42.374V53.4612C36.8314 54.5179 37.6887 55.3717 38.7436 55.3717ZM38.1844 49.1938V42.3738C38.1862 42.0668 38.4367 41.8163 38.7436 41.8145H52.8439C53.1509 41.8163 53.3996 42.0668 53.3996 42.3738V48.562L52.163 47.5689L52.1612 47.5671C51.1592 46.7715 49.748 46.7433 48.716 47.5001L46.9096 48.8549L44.9991 46.5739C44.4911 45.9495 43.7396 45.5737 42.9352 45.5402C42.1272 45.5243 41.3511 45.8524 40.7989 46.4434L38.1844 49.1938ZM38.1844 53.4752V51.1484L41.7972 47.3557C42.083 47.0505 42.4869 46.8829 42.9068 46.8935C43.3249 46.9059 43.7183 47.0982 43.9864 47.4193L46.3026 50.1924L46.352 50.247L49.5132 54.0186L38.7434 54.0169C38.4365 54.0169 38.186 53.7699 38.1842 53.4612L38.1844 53.4752ZM51.2808 54.0309L47.7897 49.8713L49.5185 48.5941C50.0583 48.1901 50.8009 48.2025 51.3249 48.6241L53.4118 50.2911V53.4523C53.4118 53.7593 53.163 54.008 52.8561 54.008L51.2808 54.0309Z" fill="white"/>
<path d="M37.5148 68.1608H48.0321C48.4061 68.1608 48.7095 67.8573 48.7095 67.4834V58.9928C48.7095 58.6189 48.4061 58.3154 48.0321 58.3154H37.5148C37.1408 58.3154 36.8374 58.6189 36.8374 58.9928V67.4834C36.8374 67.8573 37.1408 68.1608 37.5148 68.1608ZM38.1922 59.6702H47.3547V66.806H38.1832L38.1922 59.6702Z" fill="white"/>
</svg>
