<svg width="35" height="35" viewBox="0 0 35 35" fill="none" xmlns="http://www.w3.org/2000/svg">
<ellipse cx="17.2386" cy="17.2383" rx="16.8182" ry="16.8179" stroke="white" stroke-width="0.840901"/>
<path d="M12.784 11.1031C12.7838 11.5491 12.6064 11.9768 12.2909 12.292C11.9753 12.6073 11.5474 12.7842 11.1014 12.784C10.6553 12.7838 10.2277 12.6064 9.91241 12.2908C9.59716 11.9753 9.42019 11.5474 9.42041 11.1014C9.42063 10.6554 9.59804 10.2277 9.9136 9.91244C10.2292 9.5972 10.657 9.42023 11.1031 9.42045C11.5491 9.42067 11.9768 9.59808 12.292 9.91363C12.6073 10.2292 12.7843 10.657 12.784 11.1031ZM12.8345 14.0294H9.47086V24.5574H12.8345V14.0294ZM18.149 14.0294H14.8022V24.5574H18.1154V19.0327C18.1154 15.955 22.1265 15.6691 22.1265 19.0327V24.5574H25.4481V17.8891C25.4481 12.7008 19.5113 12.8942 18.1154 15.4421L18.149 14.0294Z" fill="white"/>
</svg>
