<svg width="45" height="51" viewBox="0 0 45 51" fill="none" xmlns="http://www.w3.org/2000/svg">
<path d="M22.4158 0C14.9195 4.1995 7.43966 8.38986 0 12.5583V37.6871C7.50662 41.8659 14.9785 46.0258 22.4815 50.2028C29.9875 45.9985 37.4655 41.8093 44.8943 37.6476V12.5163C37.3822 8.33325 29.9096 4.17271 22.4158 0ZM11.9393 36.6888C11.1242 36.225 10.415 35.8214 9.68155 35.4045V32.7547C9.27432 32.5173 8.94744 32.3268 8.61935 32.1351C8.15794 32.2702 7.76837 32.482 7.3861 32.8941V35.4172C6.65077 35.8385 5.95867 36.2353 5.14604 36.7016V31.4107C6.15772 30.6869 7.36175 30.1154 8.54021 29.4044C9.68277 30.06 10.8162 30.7107 11.9393 31.3553V36.6888ZM21.2775 35.4501C20.1836 36.0832 19.0533 36.7381 17.8425 37.4388C16.6616 36.757 15.53 36.1026 14.4058 35.4538V31.421C15.4984 30.7904 16.6288 30.1379 17.8352 29.4409C18.9839 30.1026 20.1343 30.7655 21.2775 31.4235V35.4501ZM22.2015 23.3806C21.5995 23.0507 21.0084 22.7 20.267 22.274C20.698 22.0822 20.9336 21.9775 21.2099 21.8545C21.636 22.0895 22.0719 22.3293 22.5728 22.6045C24.1664 21.6896 25.7777 20.7643 27.4054 19.83V14.1793C25.7996 13.2541 24.1883 12.3258 22.5582 11.3865C20.9153 12.3349 19.3059 13.2644 17.7177 14.1811V19.8269C18.1871 20.0929 18.6473 20.3942 19.1409 20.625C19.7588 20.9135 20.1666 20.6383 20.1739 19.9353C20.1891 18.4525 20.1751 16.9684 20.1812 15.4856C20.1824 15.2269 20.124 14.9603 20.2439 14.7095C20.4606 14.5257 20.6974 14.6279 20.9001 14.6261C21.0943 14.7996 21.051 15.0011 21.0517 15.1873C21.0541 16.7901 21.0602 18.3928 21.0498 19.9962C21.0407 21.3353 20.1313 21.9519 18.8804 21.4351C18.3319 21.2087 17.8255 20.8763 17.3105 20.5726C16.9477 20.3583 16.826 20.0144 16.8278 19.5968C16.8363 17.8748 16.8376 16.1521 16.8272 14.4295C16.8242 13.92 17.0329 13.57 17.4706 13.3204C18.9461 12.4798 20.4192 11.6343 21.8856 10.7784C22.3202 10.5246 22.7384 10.4966 23.173 10.7474C24.6857 11.6197 26.1971 12.4938 27.711 13.3636C28.1273 13.6029 28.3032 13.9657 28.3032 14.4338C28.3014 16.1564 28.299 17.8791 28.3044 19.6017C28.3063 20.0795 28.1066 20.4216 27.6939 20.6578C26.1794 21.5265 24.6692 22.4024 23.1548 23.2716C22.8559 23.4427 22.5327 23.5626 22.2015 23.3806ZM24.3381 17.5084C23.7744 17.414 23.1968 17.4 22.6465 17.2241C22.1346 17.0603 21.7614 16.7724 21.7005 16.1856C21.6348 15.5447 21.8509 15.0315 22.4359 14.7637C23.422 14.3114 24.4379 14.3248 25.4131 14.7984C25.9451 15.0571 26.1947 15.5319 26.1533 16.1314C25.9043 16.2879 25.6706 16.2435 25.3857 16.1948C25.0503 15.2099 24.22 15.2549 23.3885 15.3298C22.9825 15.3663 22.6404 15.5106 22.6282 16.0462C22.8857 16.4206 23.2552 16.4395 23.6052 16.4936C24.2182 16.588 24.8403 16.6324 25.4332 16.8327C25.942 17.0043 26.3194 17.2953 26.3767 17.8797C26.4351 18.4811 26.2269 18.9553 25.7247 19.2949C24.9048 19.8488 22.9466 19.8227 22.151 19.2487C21.6945 18.9187 21.5392 18.5499 21.5831 17.8864C21.7998 17.7476 22.0335 17.8042 22.3141 17.845C22.5899 18.9833 23.5127 18.8506 24.3746 18.8274C24.8707 18.814 25.3412 18.7349 25.4514 18.1085C25.2749 17.5479 24.7624 17.5796 24.3381 17.5084ZM30.5835 35.5055C29.4482 36.1641 28.299 36.8307 27.1327 37.5063C25.9384 36.8246 24.7538 36.2183 23.6478 35.4653V31.5014C24.777 30.8464 25.9073 30.1908 27.0542 29.5255C27.4169 29.6862 27.7566 29.8366 28.2618 30.0606V24.8671C29.1493 25.3954 29.9267 25.6949 30.5835 26.2507V35.5055ZM30.7113 10.9471H30.368V11.9478H30.0107V10.9471H29.6716V10.6622H30.7113V10.9471ZM32.3451 11.9478H31.9878V11.2386L31.7449 11.9478H31.446L31.2013 11.2332V11.9478H30.844V10.6622H31.2762L31.5994 11.4973L31.9147 10.6622H32.3451V11.9478ZM39.7939 32.6914C39.1724 33.2314 38.3999 33.5485 37.6713 34.0032C37.3809 33.624 37.6147 33.2058 37.44 32.8381C37.1758 32.5131 36.7254 32.4297 36.4131 32.1533C35.9626 32.3025 35.6065 32.5338 35.2419 32.8186V34.1249C36.3236 34.755 37.412 35.3892 38.6136 36.0893C37.902 36.6322 37.2336 36.9421 36.5817 37.2781C36.4259 37.3584 36.242 37.3639 36.0947 37.2805C35.0374 36.684 33.9868 36.0759 32.9477 35.4799V31.4241C34.0635 30.7813 35.1774 30.1397 36.3169 29.4835C37.5349 30.0435 38.6227 30.7722 39.7391 31.4119C39.8834 31.8478 39.8219 32.2495 39.7939 32.6914ZM36.995 33.8291C36.7935 33.9466 36.5927 34.0635 36.3723 34.1919C36.1544 34.0744 35.9505 33.9655 35.7794 33.8729C35.6406 33.6069 35.6845 33.3732 35.7076 33.1315C35.8652 32.9166 36.0947 32.8071 36.3717 32.7012C36.5598 32.804 36.7637 32.9154 36.9366 33.0098C37.0711 33.2727 37.0504 33.5047 36.995 33.8291Z" fill="#90C43F"/>
<path d="M28.2605 24.8667V30.0602C27.7553 29.8362 27.4156 29.6859 27.0528 29.5252C25.906 30.1905 24.7756 30.8461 23.6465 31.501V35.465C24.7525 36.2179 25.9371 36.8242 27.1314 37.506C28.2976 36.8303 29.4469 36.1638 30.5821 35.5051V26.2503C29.9253 25.6945 29.148 25.3951 28.2605 24.8667ZM28.28 34.0826C27.9324 34.3888 27.5453 34.6091 27.1265 34.7625C26.6779 34.6603 26.3394 34.3955 25.9845 34.1441C25.8719 33.7393 25.9225 33.3369 25.9474 32.9193C26.2846 32.6119 26.6602 32.3739 27.1575 32.2272C27.5015 32.419 27.8722 32.6253 28.28 32.853V34.0826Z" fill="#47493D"/>
<path d="M9.68199 32.7552C9.27476 32.5179 8.94728 32.3267 8.61979 32.1356C8.15839 32.2707 7.76881 32.4825 7.38654 32.894C7.38654 33.6829 7.38654 34.5357 7.38654 35.4171C6.65122 35.839 5.95911 36.2359 5.14648 36.7015C5.14648 34.8742 5.14648 33.196 5.14648 31.4112C6.15816 30.6875 7.36219 30.1153 8.54066 29.4043C9.68321 30.0599 10.8166 30.7106 11.9391 31.3552C11.9391 33.1162 11.9391 34.823 11.9391 36.6887C11.124 36.2249 10.4149 35.8213 9.68199 35.4044C9.68199 34.5059 9.68199 33.6494 9.68199 32.7552Z" fill="#47493D"/>
<path d="M38.6138 36.0892C37.9016 36.6322 37.2338 36.9414 36.5819 37.2775C36.426 37.3578 36.2422 37.3633 36.0943 37.2799C35.037 36.6834 33.9863 36.0752 32.9473 35.4787C32.9473 34.0927 32.9473 32.7839 32.9473 31.4229C34.063 30.7801 35.177 30.1385 36.3165 29.4823C37.5345 30.0429 38.6223 30.7709 39.7393 31.4113C39.8829 31.8465 39.822 32.2489 39.794 32.6902C39.1719 33.2301 38.3995 33.5473 37.6715 34.002C37.3811 33.6234 37.6149 33.2046 37.4402 32.8369C37.1766 32.5119 36.7261 32.4285 36.4133 32.1527C35.9628 32.3012 35.6067 32.5332 35.2421 32.818C35.2421 33.2295 35.2421 33.6544 35.2421 34.1243C36.3238 34.755 37.4122 35.3892 38.6138 36.0892Z" fill="#47493D"/>
<path d="M28.2798 32.8532C28.2798 33.3109 28.2798 33.6908 28.2798 34.0834C27.9322 34.3896 27.5457 34.6093 27.1263 34.7633C26.6777 34.6604 26.3392 34.3956 25.9843 34.1449C25.8717 33.7401 25.9222 33.3383 25.9472 32.9201C26.2844 32.6127 26.66 32.3747 27.1573 32.228C27.5012 32.4192 27.8719 32.6255 28.2798 32.8532Z" fill="#90C43F"/>
</svg>
