<svg width="82" height="97" viewBox="0 0 82 97" fill="none" xmlns="http://www.w3.org/2000/svg">
<g opacity="0.09">
<path d="M44.741 -4C29.7787 4.38203 14.8493 12.7458 0 21.0659V71.222C14.9829 79.5627 29.8966 87.8657 44.8722 96.2028C59.8539 87.8111 74.7797 79.4497 89.6071 71.143V20.9821C74.6133 12.6328 59.6984 4.32857 44.741 -4ZM23.8303 69.2294C22.2034 68.3036 20.788 67.4981 19.324 66.6659V61.3771C18.5112 60.9033 17.8587 60.523 17.2039 60.1403C16.2829 60.41 15.5054 60.8328 14.7424 61.6554V66.6914C13.2747 67.5321 11.8933 68.3243 10.2713 69.255V58.6945C12.2906 57.2499 14.6938 56.1091 17.0459 54.69C19.3264 55.9985 21.5887 57.2973 23.8303 58.5839V69.2294ZM42.469 66.757C40.2857 68.0205 38.0295 69.3279 35.613 70.7263C33.256 69.3655 30.9973 68.0594 28.7533 66.7643V58.7152C30.9342 57.4565 33.1903 56.154 35.5984 54.7629C37.891 56.0835 40.1873 57.4066 42.469 58.72V66.757ZM44.3133 42.6667C43.1117 42.0082 41.932 41.3084 40.4522 40.4579C41.3124 40.0752 41.7826 39.8662 42.3342 39.6208C43.1846 40.0898 44.0545 40.5685 45.0545 41.1176C48.2352 39.2915 51.4512 37.4448 54.7 35.5798V24.3013C51.495 22.4546 48.279 20.6018 45.0253 18.7271C41.7461 20.62 38.5338 22.4752 35.3639 24.305V35.5738C36.3007 36.1047 37.2192 36.7061 38.2045 37.1666C39.4377 37.7425 40.2517 37.1933 40.2663 35.79C40.2967 32.8304 40.2687 29.8683 40.2809 26.9086C40.2833 26.3923 40.1667 25.8601 40.406 25.3596C40.8385 24.9927 41.3112 25.1968 41.7157 25.1931C42.1033 25.5394 42.0171 25.9415 42.0183 26.3133C42.0231 29.5123 42.0353 32.7113 42.0146 35.9115C41.9964 38.5844 40.1812 39.8152 37.6845 38.7837C36.5898 38.3317 35.579 37.6684 34.5511 37.0621C33.827 36.6344 33.584 35.948 33.5876 35.1145C33.6047 31.6774 33.6071 28.239 33.5864 24.8007C33.5804 23.7838 33.9971 23.0852 34.8706 22.587C37.8157 20.9092 40.7559 19.2216 43.6828 17.5133C44.5503 17.0067 45.3849 16.9508 46.2524 17.4514C49.2716 19.1924 52.2883 20.9371 55.31 22.6733C56.141 23.1508 56.4921 23.8749 56.4921 24.8092C56.4885 28.2475 56.4836 31.6859 56.4945 35.1242C56.4982 36.078 56.0997 36.7608 55.2759 37.2322C52.2531 38.9659 49.2388 40.7143 46.216 42.4492C45.6194 42.7906 44.9743 43.03 44.3133 42.6667ZM48.5778 30.946C47.4528 30.7576 46.2998 30.7297 45.2015 30.3786C44.1797 30.0518 43.4349 29.4771 43.3134 28.3059C43.1822 27.0265 43.6135 26.0023 44.7811 25.4677C46.7493 24.565 48.7771 24.5917 50.7235 25.537C51.7854 26.0533 52.2835 27.001 52.2009 28.1977C51.7039 28.51 51.2374 28.4213 50.6688 28.3241C49.9994 26.3583 48.3421 26.4482 46.6825 26.5976C45.8721 26.6705 45.1893 26.9585 45.165 28.0276C45.6789 28.7748 46.4164 28.8125 47.115 28.9206C48.3385 29.1089 49.5802 29.1976 50.7636 29.5974C51.7793 29.94 52.5326 30.5207 52.6468 31.6871C52.7634 32.8875 52.3479 33.8339 51.3455 34.5119C49.709 35.6175 45.8004 35.5653 44.2125 34.4195C43.3013 33.761 42.9915 33.0248 43.0789 31.7005C43.5115 31.4234 43.978 31.5364 44.5381 31.6178C45.0885 33.8898 46.9304 33.625 48.6507 33.5788C49.6409 33.5521 50.5801 33.3941 50.8 32.1439C50.4477 31.0249 49.4247 31.0881 48.5778 30.946ZM61.0434 66.8675C58.7775 68.1821 56.4836 69.5125 54.1557 70.8611C51.772 69.5004 49.4077 68.2903 47.2001 66.7874V58.8755C49.4538 57.5682 51.71 56.2597 53.999 54.9318C54.7231 55.2525 55.4011 55.5526 56.4095 55.9997V45.6336C58.1809 46.6882 59.7324 47.286 61.0434 48.3953V66.8675ZM61.2985 17.8499H60.6133V19.8473H59.9001V17.8499H59.2234V17.2813H61.2985V17.8499ZM64.5595 19.8473H63.8463V18.4319L63.3615 19.8473H62.765L62.2766 18.4209V19.8473H61.5634V17.2813H62.426L63.0711 18.9482L63.7005 17.2813H64.5595V19.8473ZM79.427 61.2508C78.1865 62.3284 76.6447 62.9614 75.1904 63.869C74.6109 63.1121 75.0774 62.2774 74.7287 61.5436C74.2014 60.8948 73.3023 60.7283 72.6791 60.1768C71.78 60.4744 71.0692 60.9361 70.3415 61.5047V64.112C72.5005 65.3695 74.6728 66.6355 77.0712 68.0327C75.6509 69.1164 74.3168 69.7349 73.0156 70.4055C72.7046 70.5659 72.3377 70.5768 72.0436 70.4104C69.9332 69.2197 67.8362 68.006 65.7623 66.8165V58.7212C67.9893 57.4382 70.2127 56.1577 72.4871 54.8479C74.9182 55.9657 77.0894 57.42 79.3176 58.6969C79.6056 59.5668 79.4828 60.3687 79.427 61.2508ZM73.8406 63.5215C73.4384 63.756 73.0375 63.9893 72.5977 64.2457C72.1627 64.0112 71.7557 63.7937 71.4143 63.609C71.1373 63.0781 71.2248 62.6115 71.2709 62.1292C71.5856 61.7003 72.0436 61.4816 72.5965 61.2702C72.9719 61.4755 73.3789 61.6979 73.7239 61.8862C73.9924 62.4111 73.9511 62.874 73.8406 63.5215Z" fill="#90C43F"/>
<path d="M56.4067 45.6328V55.9989C55.3983 55.5518 54.7203 55.2517 53.9962 54.9309C51.7072 56.2589 49.451 57.5674 47.1973 58.8747V66.7865C49.4049 68.2894 51.7692 69.4995 54.1529 70.8603C56.4808 69.5117 58.7746 68.1813 61.0405 66.8667V48.3944C59.7296 47.2852 58.1781 46.6874 56.4067 45.6328ZM56.4456 64.0273C55.7518 64.6385 54.9791 65.0783 54.1432 65.3845C53.2478 65.1804 52.5723 64.6518 51.8639 64.1501C51.6392 63.3421 51.74 62.539 51.7898 61.7056C52.4629 61.092 53.2125 60.6169 54.2052 60.3241C54.8916 60.7069 55.6315 61.1187 56.4456 61.5731V64.0273Z" fill="#47493D"/>
<path d="M19.3242 61.3783C18.5114 60.9045 17.8577 60.523 17.2041 60.1415C16.2831 60.4112 15.5055 60.834 14.7425 61.6553C14.7425 63.2299 14.7425 64.9321 14.7425 66.6913C13.2749 67.5333 11.8935 68.3255 10.2715 69.2549C10.2715 65.6076 10.2715 62.2579 10.2715 58.6957C12.2908 57.2511 14.6939 56.109 17.0461 54.6899C19.3266 55.9985 21.5889 57.2972 23.8293 58.5839C23.8293 62.0988 23.8293 65.5055 23.8293 69.2294C22.2024 68.3036 20.787 67.4981 19.3242 66.6658C19.3242 64.8725 19.3242 63.1631 19.3242 61.3783Z" fill="#47493D"/>
<path d="M77.0698 68.0329C75.6483 69.1167 74.3155 69.7339 73.0143 70.4045C72.7033 70.5649 72.3364 70.5758 72.0411 70.4094C69.9307 69.2187 67.8337 68.005 65.7598 66.8143C65.7598 64.0478 65.7598 61.4357 65.7598 58.719C67.9868 57.436 70.2102 56.1554 72.4846 54.8457C74.9157 55.9647 77.0869 57.4178 79.3163 58.6959C79.6031 59.5646 79.4816 60.3677 79.4257 61.2486C78.184 62.3262 76.6422 62.9592 75.1891 63.8668C74.6096 63.1111 75.0761 62.2752 74.7274 61.5414C74.2013 60.8926 73.3023 60.7261 72.6778 60.1757C71.7787 60.4722 71.0679 60.9351 70.3402 61.5037C70.3402 62.325 70.3402 63.1731 70.3402 64.111C72.4992 65.3697 74.6715 66.6357 77.0698 68.0329Z" fill="#47493D"/>
<path d="M56.4445 61.5736C56.4445 62.4873 56.4445 63.2454 56.4445 64.0291C55.7508 64.6402 54.9793 65.0788 54.1422 65.3862C53.2468 65.1809 52.5712 64.6523 51.8629 64.1518C51.6382 63.3438 51.739 62.542 51.7888 61.7073C52.4619 61.0937 53.2115 60.6187 54.2042 60.3259C54.8906 60.7074 55.6305 61.1192 56.4445 61.5736Z" fill="#90C43F"/>
</g>
</svg>
