<svg width="68" height="56" viewBox="0 0 68 56" fill="none" xmlns="http://www.w3.org/2000/svg">
<circle cx="39.5" cy="21.5" r="21.5" fill="#FFE4FF"/>
<path d="M36.6421 53.6C37.0769 52.8384 37.4184 52.2489 37.751 51.6564C38.5857 50.1769 38.5477 48.6156 37.5876 47.4307C36.5458 46.1467 35.1946 45.7673 33.61 46.208C33.5224 46.2313 33.429 46.2401 33.289 46.2634C33.0526 45.099 32.4952 44.1564 31.4446 43.5698C30.4203 42.9979 29.3493 42.9745 28.2607 43.3656C27.785 41.2235 26.0837 39.636 23.1858 40.4006C23.1391 40.2517 23.0924 40.1029 23.0487 39.9511C22.6197 38.5153 21.68 37.5902 20.2062 37.3364C18.6858 37.0737 17.4163 37.5961 16.5408 38.8947C16.0973 39.5513 15.7266 40.2547 15.3268 40.9288C15.2334 40.8938 15.1751 40.8938 15.1547 40.8646C13.6517 38.6759 11.2412 37.8004 9.03498 36.6301C8.10112 36.1369 7.16143 35.6554 6.21298 35.1885C5.87446 35.0221 5.74898 34.8266 5.76648 34.4268C6.01746 28.6077 8.31124 23.7633 12.6332 19.8645C12.9834 19.5493 13.2432 19.4589 13.6634 19.7273C17.107 21.8986 20.8804 22.3509 24.8463 21.8869C26.8833 21.6505 28.9319 21.56 30.8784 22.4414C31.1323 22.5552 31.3804 22.6894 31.716 22.8587C30.9543 23.3373 30.2656 23.7721 29.574 24.204C27.7413 25.348 25.9027 26.4832 24.073 27.633C22.0885 28.8791 21.9397 31.1058 23.7403 32.6204C25.4008 34.0182 27.2802 34.4326 29.3376 33.7002C30.4407 33.3091 31.4971 32.7896 32.5711 32.3198C33 32.133 33.4232 31.9258 33.8493 31.7245C36.5312 30.4667 39.1664 30.5484 41.7433 32.028C45.2073 34.0153 48.6684 35.9998 52.1237 38.0017C53.0283 38.5241 53.542 39.3033 53.3844 40.3976C53.256 41.2965 52.7307 41.8889 51.8727 42.172C51.184 42.3967 50.5361 42.277 49.9145 41.9122C48.4962 41.0805 47.0662 40.2692 45.645 39.4404C45.2073 39.1866 44.7433 38.9764 44.4223 39.5222C44.0867 40.0941 44.4894 40.4181 44.9622 40.6836C46.0857 41.3198 47.2063 41.9619 48.3182 42.6214C49.5293 43.3364 49.9233 44.6292 49.29 45.7498C48.6538 46.8792 47.2939 47.2002 46.0507 46.4969C44.7024 45.7323 43.36 44.956 42.0234 44.1739C41.5828 43.9171 41.1304 43.7333 40.8036 44.279C40.4709 44.8335 40.8649 45.134 41.3055 45.3879C42.324 45.9716 43.3425 46.5582 44.3552 47.1535C45.5838 47.8743 45.9777 49.0329 45.3707 50.1127C44.7695 51.1837 43.5351 51.4376 42.3094 50.7401C41.431 50.2411 40.5555 49.7391 39.6859 49.2226C39.2073 48.9366 38.7724 48.9249 38.4777 49.4385C38.18 49.9551 38.5973 50.206 38.9563 50.4337C39.394 50.7109 39.8581 50.9385 40.29 51.2245C41.1071 51.7644 41.3843 52.6516 41.0312 53.495C40.6927 54.3033 39.8726 54.7849 38.9563 54.5426C38.1829 54.3384 37.4592 53.9415 36.6421 53.6Z" fill="#CA55CA"/>
<path d="M54.6189 38.2413C53.793 37.5964 53.1656 36.9864 52.4331 36.5545C49.2171 34.6606 45.9749 32.8133 42.7327 30.9631C41.0138 29.9854 39.1986 29.3142 37.1791 29.4251C35.5566 29.5127 34.0653 30.0642 32.6062 30.7354C31.4359 31.2753 30.2744 31.8473 29.075 32.3113C27.4758 32.93 25.9816 32.6674 24.6655 31.5409C23.5769 30.61 23.647 29.5623 24.8639 28.8035C28.0303 26.8249 31.1937 24.8434 34.3717 22.8881C36.6217 21.5049 39.0323 20.6556 41.7229 20.9504C42.3708 21.0204 43.0187 21.1751 43.6432 21.3706C46.9175 22.3979 50.0313 22.0564 53.0138 20.3609C54.7473 19.3774 54.7619 19.3862 56.1598 20.787C59.8952 24.5341 61.8271 29.0691 62.0372 34.3395C62.046 34.5351 61.8855 34.8473 61.7191 34.9261C59.3028 36.0788 56.8777 37.1966 54.6189 38.2413Z" fill="#CA55CA"/>
<path d="M67.8298 30.8287C67.7364 31.6254 67.6255 32.5097 67.5351 33.3968C67.4796 33.9221 67.2111 34.249 66.7267 34.4474C65.9242 34.7743 65.1304 35.1332 64.3279 35.4601C63.7034 35.7169 63.5224 35.6089 63.4991 34.9114C63.4086 32.4805 63.038 30.0991 62.2179 27.7995C60.9368 24.2013 58.8035 21.1837 55.9524 18.6623C55.1644 17.9649 55.1819 17.8569 56.1099 17.3403C57.0934 16.7917 58.0885 16.2577 59.0633 15.6944C59.5827 15.3938 60.0263 15.4434 60.4786 15.8257C65.0779 19.7363 67.4855 24.7149 67.8298 30.8287Z" fill="#CA55CA"/>
<path d="M0 30.8787C0.326849 24.7532 2.72861 19.7717 7.32201 15.8524C7.80061 15.4438 8.25003 15.3913 8.79575 15.7065C9.83175 16.3047 10.8911 16.865 11.9329 17.4545C12.5895 17.8281 12.607 18.0207 12.0117 18.5431C9.81424 20.4691 8.00197 22.6929 6.67999 25.3077C5.215 28.2055 4.48542 31.2843 4.3541 34.5207C4.30157 35.7814 4.26947 35.7873 3.08464 35.2824C2.43678 35.0081 1.79184 34.725 1.13814 34.4624C0.665372 34.2698 0.358951 33.9721 0.303503 33.4351C0.210117 32.548 0.0933856 31.6637 0 30.8787Z" fill="#CA55CA"/>
<path d="M21.1956 51.8929C19.5876 51.8929 18.4699 50.1974 19.2374 48.7616C20.3639 46.6546 21.5779 44.5943 22.8153 42.5515C23.4164 41.5563 24.753 41.317 25.7394 41.9007C26.7696 42.5106 27.1431 43.8092 26.5303 44.9036C25.4184 46.8851 24.2627 48.8433 23.1275 50.8102C23.0925 50.8715 23.0517 50.9299 23.0108 50.9853C22.5526 51.5836 21.9485 51.89 21.1956 51.8929Z" fill="#CA55CA"/>
<path d="M31.8823 46.996C31.8064 47.1974 31.7014 47.6118 31.5 47.9707C30.6391 49.5028 29.7578 51.0233 28.8648 52.5408C28.1498 53.7577 26.8541 54.1459 25.7481 53.498C24.6566 52.8618 24.3531 51.5252 25.0477 50.3083C25.9407 48.7412 26.8366 47.174 27.7588 45.6215C28.3074 44.6964 29.3376 44.3141 30.3035 44.6147C31.2724 44.9124 31.9057 45.7791 31.8823 46.996Z" fill="#CA55CA"/>
<path d="M15.1838 44.4805C15.3239 44.0894 15.4115 43.6692 15.6099 43.3103C16.2432 42.1575 16.9056 41.0223 17.5768 39.89C18.2714 38.7169 19.57 38.3404 20.6615 38.9707C21.75 39.604 22.0769 40.9085 21.4115 42.0933C20.7344 43.3015 20.0516 44.5097 19.3278 45.6887C18.785 46.5729 17.7782 46.9173 16.8122 46.6284C15.8842 46.3511 15.2626 45.499 15.1838 44.4805Z" fill="#CA55CA"/>
<path d="M34.7568 47.4484C36.3152 47.4572 37.4329 49.0506 36.7529 50.4572C36.0613 51.8872 35.2354 53.2588 34.3803 54.5983C33.7704 55.5526 32.4688 55.7539 31.5 55.179C30.5369 54.607 30.1079 53.3755 30.6361 52.3687C31.354 51.0029 32.142 49.6693 32.9533 48.3531C33.3472 47.7198 34.0009 47.4397 34.7568 47.4484Z" fill="#CA55CA"/>
</svg>
