<svg width="1902" height="1086" viewBox="0 0 1902 1086" fill="none" xmlns="http://www.w3.org/2000/svg">
<path opacity="0.22" d="M-267.668 1252.46L-266.686 1252.29C-233.543 1211.02 -201.312 1169.1 -169.231 1127.33C-63.3136 989.432 41.4152 853.024 175.32 747.63C483.94 504.636 947.67 426.673 1937.89 875.317L1938.99 875.129C947.888 425.99 483.762 504.061 174.712 747.29C40.7572 852.733 -64.0297 989.151 -169.931 1127.13C-202.104 1169.04 -234.426 1211.09 -267.668 1252.46ZM-301.821 1258.3L-300.781 1258.12C-257.739 1209.15 -216.05 1158.83 -174.352 1108.55C-58.7189 969.031 56.5244 829.937 199.122 721.724C533.642 467.965 1019.06 384.073 2013.89 862.362L2014.99 862.174C1019.34 383.38 533.456 467.351 198.579 721.414C55.8744 829.685 -59.3692 968.779 -175.052 1108.35C-216.849 1158.72 -258.68 1209.23 -301.821 1258.3ZM-342.1 1265.18L-341.002 1264.99C-287.147 1208.68 -235.043 1149.97 -182.789 1091.11C-56.7586 949.201 69.887 806.503 222.746 694.961C584.435 431.068 1092.97 341.77 2086.35 849.931L2087.39 849.754C1093.24 341.038 584.248 430.454 222.204 694.651C69.2945 806.241 -57.4087 948.949 -183.431 1090.9C-235.842 1149.86 -288.095 1208.73 -342.1 1265.18ZM-388.446 1273.11L-387.349 1272.92C-322.032 1209.81 -258.663 1142.75 -194.847 1075.25C-57.4817 929.992 81.9413 782.526 246.856 667.066C637.034 393.942 1169.93 300.036 2155.18 838.163L2156.22 837.985C1170.2 299.343 636.848 393.328 246.371 666.746C81.4068 782.254 -58.0742 929.73 -195.489 1075.04C-259.455 1142.68 -322.98 1209.85 -388.446 1273.11ZM-422.058 1265.01L-421.914 1265.71C-351.004 1201 -281.37 1131.54 -210.907 1061.17C-60.8893 911.404 93.1015 757.693 272.427 637.549C691.945 356.421 1250.25 259.259 2220.3 827.026L2221.29 826.858C1250.53 258.566 691.825 355.836 271.876 637.199C92.5011 757.392 -61.5394 911.151 -211.557 1060.91C-281.871 1131.14 -351.298 1200.44 -422.058 1265.01ZM-428.992 1231.33L-428.847 1232.03C-363.32 1174 -297.994 1112.1 -231.614 1049.21C-67.361 893.621 103.617 731.759 300.261 605.95C749.862 318.386 1334.24 219.712 2281.44 816.532L2282.42 816.365C1334.58 219.048 749.807 317.83 299.776 605.629C103.016 731.458 -67.9533 893.359 -232.206 1048.95C-298.494 1111.7 -363.68 1173.42 -428.992 1231.33ZM-435.942 1197.56L-435.797 1198.26C-377.166 1147.71 -317.991 1094.29 -257.598 1039.81C-77.0964 876.841 113.851 704.46 331.613 571.972C811.632 279.894 1422.12 181.922 2338.54 806.809L2339.46 806.65C1422.45 181.219 811.503 279.27 331.063 571.623C113.25 704.16 -77.6967 876.54 -258.248 1039.55C-318.434 1093.88 -377.46 1147.16 -435.942 1197.56ZM-442.907 1163.72L-442.763 1164.42C-392.725 1122.41 -341.843 1078.39 -289.834 1033.45C-90.806 861.386 124.11 675.543 367.527 535.157C878.049 240.728 1513.89 146.21 2391.3 797.787L2392.22 797.629C1514.28 145.497 877.921 240.104 367.026 534.758C123.56 675.193 -91.4148 861.046 -290.434 1033.15C-342.294 1077.94 -393.027 1121.81 -442.907 1163.72ZM-449.889 1129.8L-449.745 1130.5C-410.427 1098.31 -370.278 1064.93 -329.316 1030.84C-109.335 847.805 134.661 644.841 409.437 495.218C949.782 200.936 1609.32 113.142 2439.44 789.555L2440.36 789.397C1609.71 112.43 949.719 200.342 408.994 494.809C134.168 644.481 -109.878 847.494 -329.916 1030.54C-370.728 1064.48 -410.729 1097.72 -449.889 1129.8ZM-456.887 1095.8L-456.751 1096.46C-430.81 1075.72 -404.486 1054.51 -377.633 1032.97C-134.306 837.222 145.362 612.256 458.616 451.937C1023.81 162.729 1698.53 84.1257 2466.7 767.66L2466.46 766.491C1698.28 83.5217 1023.54 162.251 458.181 451.567C144.869 611.896 -134.848 836.911 -378.234 1032.67C-404.929 1054.1 -431.095 1075.21 -456.887 1095.8ZM-463.893 1061.76L-463.757 1062.43C-454.843 1055.45 -445.87 1048.47 -436.857 1041.4C-168.351 831.379 155.71 577.955 516.341 405.418C1094.17 129.025 1766.17 60.4917 2455 710.815L2454.75 709.606C1765.92 59.8876 1093.83 128.558 515.956 405C155.209 577.557 -168.844 831.019 -437.4 1041.09C-446.322 1048.02 -455.136 1054.9 -463.893 1061.76ZM-470.915 1027.65L-470.779 1028.31C-182.634 807.909 182.601 533.925 583.867 355.65C1169.08 95.6716 1831.03 39.3506 2442.45 649.836L2442.18 648.55C1830.67 38.7663 1168.74 95.2042 583.481 355.231C182.323 533.447 -182.762 807.286 -470.915 1027.65ZM-477.945 993.494L-477.809 994.157C-173.041 765.868 228.902 480.44 662.163 302.99C1248.14 62.9818 1891.35 20.5601 2428.89 583.984L2428.62 582.659C1890.99 19.9758 1247.8 62.5145 661.77 302.533C228.624 479.963 -173.178 765.205 -477.945 993.494ZM-484.991 959.262L-484.855 959.925C-131.1 700.213 367.165 367.156 883.192 202.354C1422.29 30.176 1980.78 41.7543 2414.14 512.323L2413.86 510.959C1980.36 41.1409 1421.95 29.7086 882.972 201.867C366.945 366.669 -131.228 699.589 -484.991 959.262ZM-492.045 924.991L-491.909 925.654C-130.497 665.359 395.044 331.997 927.186 167.305C1464.9 0.893424 2009.36 6.7986 2398.13 434.541L2397.84 433.137C2008.93 6.18522 1464.56 0.426087 926.908 166.828C394.816 331.471 -130.567 664.725 -492.045 924.991ZM-499.107 890.681L-498.979 891.305C-130.846 631.112 420.193 298.395 967.173 133.425C1180.42 69.1117 1393.06 30.2904 1593.95 31.214C1794.85 32.1376 1984 72.8062 2150.35 167.463C2233.35 214.699 2310.69 275.375 2380.99 351.261L2380.71 349.896C2310.62 274.459 2233.59 214.093 2150.92 167.042C1984.44 72.3274 1795.11 31.6494 1594.09 30.7066C1393.07 29.7638 1180.32 68.6049 966.961 132.977C420.03 297.898 -130.916 630.478 -499.107 890.681ZM-506.177 856.332L-506.049 856.956C-112.596 583.756 503.536 231.311 1091.39 75.9819C1293.03 22.6943 1491.37 -7.38672 1676.26 -3.12133C1861.09 1.15395 2032.54 39.7657 2180.38 123.864C2246.25 161.396 2307.46 207.92 2363.13 264.511L2362.86 263.185C2307.45 207.033 2246.48 160.752 2180.89 123.453C2032.98 39.2869 1861.4 0.616912 1676.4 -3.62872C1491.38 -7.91334 1292.98 22.1776 1091.22 75.485C503.374 230.814 -112.609 583.112 -506.177 856.332ZM-513.255 821.944L-513.127 822.568C-226.575 626.978 184.743 391.165 616.409 215.845C938.93 84.8572 1272.82 -12.3956 1574.35 -33.8052C1875.87 -55.2147 2145.08 -0.829871 2338.45 171.34C2340.72 173.373 2343 175.406 2345.22 177.488L2344.98 176.319C2343 174.558 2341.08 172.788 2339.11 171.027C2145.59 -1.27958 1876.13 -55.7029 1574.38 -34.2538C1272.68 -12.8146 938.726 84.4481 616.031 215.465C184.523 390.678 -226.695 626.393 -513.255 821.944ZM-520.342 787.517L-520.213 788.141C-213.313 582.129 244.026 331.868 715.02 154.344C1035.74 33.5116 1362.8 -53.6524 1652.96 -70.0923C1920.6 -85.2626 2156.87 -40.3409 2327.97 93.6626L2327.75 92.6099C2156.55 -41.013 1920.42 -85.8376 1653.02 -70.6678C1362.69 -54.1982 1035.57 32.9366 714.742 153.866C243.798 331.342 -213.376 581.535 -520.342 787.517ZM-527.436 753.051L-527.307 753.675C-199.382 537.045 308.029 271.966 819.111 93.6006C1136.24 -17.0914 1454.79 -94.4066 1732.72 -106.089C1960.89 -115.642 2161.73 -80.9676 2311.95 15.8412L2311.76 14.9444C2161.49 -81.5716 1960.77 -116.188 1732.73 -106.616C1454.68 -94.9524 1136.01 -17.6175 818.833 93.1234C307.867 271.469 -199.444 536.451 -527.436 753.051ZM-534.53 718.585L-534.402 719.209C-185.195 492.039 375.826 212.182 926.724 34.2734C1238.78 -66.4702 1547.52 -134.48 1812.67 -141.677C2001.07 -146.811 2167.51 -121.187 2297.42 -54.7284L2297.25 -55.5471C2167.32 -121.801 2000.96 -147.357 1812.67 -142.243C1547.41 -135.026 1238.55 -66.9963 926.446 33.7962C375.656 211.646 -185.2 491.434 -534.53 718.585ZM1859.7 888.687C878.621 468.751 434.893 540.711 150.278 772.738C23.9499 875.707 -71.0114 1010.16 -167.677 1147.09C-191.349 1180.6 -215.112 1214.25 -239.467 1247.63L-238.485 1247.47C-214.221 1214.22 -190.557 1180.67 -166.919 1147.28C-70.2456 1010.39 24.7155 875.939 150.936 773.029C435.245 541.256 878.518 469.414 1858.6 888.875L1859.7 888.687Z" fill="#22BECA"/>
</svg>
