<svg width="80" height="79" viewBox="0 0 80 79" fill="none" xmlns="http://www.w3.org/2000/svg">
<path d="M0 10C0 4.47715 4.47715 0 10 0H70C75.5229 0 80 4.47715 80 10V69C80 74.5229 75.5229 79 70 79H10C4.47715 79 0 74.5229 0 69V10Z" fill="url(#paint0_linear_691_389)"/>
<path d="M68.819 30.2895C68.5773 29.3784 67.9986 28.6175 67.1929 28.1471C66.3872 27.6768 65.4447 27.5536 64.5389 27.7974C63.6355 28.0412 62.8811 28.6249 62.4148 29.4375L51.1808 49.0644C51.1491 49.1186 51.1271 49.1802 51.1125 49.2417L49.379 57.5482C49.2984 57.9323 49.4718 58.3215 49.8063 58.516C49.9454 58.5973 50.1017 58.6367 50.2531 58.6367C50.4679 58.6367 50.6828 58.5579 50.8512 58.4052L57.1161 52.7388C57.1625 52.6969 57.204 52.6477 57.2357 52.591L68.4696 32.9641C68.936 32.1514 69.058 31.2009 68.8163 30.2873L68.819 30.2895ZM50.739 56.8902L52.1136 50.3029L55.71 52.3961L50.7414 56.8903L50.739 56.8902ZM56.5036 51.4651L52.5165 49.1429L61.6065 33.2638L65.5936 35.586L56.5036 51.4651ZM67.4394 32.3602L66.1917 34.542L62.2046 32.2198L63.4523 30.0379C63.7575 29.5036 64.2556 29.1219 64.8513 28.9594C65.447 28.7968 66.0672 28.8781 66.5971 29.1884C67.1269 29.4962 67.5053 29.9986 67.6664 30.5994C67.8276 31.2003 67.747 31.8258 67.4394 32.3602ZM57.4262 54.2749C57.0965 54.2749 56.828 54.5458 56.828 54.8782V63.793H20.131V16.2063H44.464C45.0939 16.2063 45.6579 16.4599 46.1389 16.9623L46.2244 17.0485C46.7151 17.5631 46.9886 18.2379 46.9886 18.9496V25.5274C46.9886 25.8598 47.2572 26.1307 47.5868 26.1307H54.1085C54.8141 26.1307 55.4831 26.4041 55.9934 26.9015L56.0788 26.9877C56.5769 27.4728 56.8284 28.0393 56.8284 28.6771V35.5474C56.8284 35.8798 57.097 36.1507 57.4266 36.1507C57.7562 36.1507 58.0248 35.8798 58.0248 35.5474V28.6771C58.0248 27.7167 57.6414 26.835 56.9139 26.1258L46.9963 16.1229C46.2931 15.3915 45.4191 15.0025 44.4668 15.0025L19.5357 15C19.377 15 19.2256 15.064 19.1133 15.1773C19.001 15.2906 18.9375 15.4433 18.9375 15.6033V64.3967C18.9375 64.5567 19.001 64.7094 19.1133 64.8227C19.2256 64.936 19.377 65 19.5357 65H57.4265C57.7561 65 58.0247 64.7291 58.0247 64.3967V54.8786C58.0247 54.5461 57.7558 54.2749 57.4262 54.2749ZM48.1849 24.9231V19.0227L54.0349 24.9231H48.1849ZM51.586 43.373H35.6861C35.3565 43.373 35.0879 43.1021 35.0879 42.7697C35.0879 42.4372 35.3565 42.1663 35.6861 42.1663H51.586C51.9156 42.1663 52.1842 42.4372 52.1842 42.7697C52.1842 43.1021 51.9156 43.373 51.586 43.373ZM49.4423 47.6431H35.6863C35.3567 47.6431 35.0881 47.3722 35.0881 47.0398C35.0881 46.7073 35.3567 46.4364 35.6863 46.4364H49.4423C49.7719 46.4364 50.0405 46.7073 50.0405 47.0398C50.0405 47.3722 49.7719 47.6431 49.4423 47.6431ZM25.1656 41.9299V47.8844H31.0693V45.412C31.0693 45.0795 31.3379 44.8086 31.6675 44.8086C31.9971 44.8086 32.2657 45.0795 32.2657 45.412V48.4877C32.2657 48.8202 31.9971 49.0911 31.6675 49.0911H24.5676C24.238 49.0911 23.9694 48.8202 23.9694 48.4877V41.3268C23.9694 40.9943 24.238 40.7234 24.5676 40.7234H30.2491C30.5788 40.7234 30.8473 40.9943 30.8473 41.3268C30.8473 41.6592 30.5788 41.9301 30.2491 41.9301H25.1634L25.1656 41.9299ZM33.7968 41.7255L29.0602 46.5029C28.9479 46.6162 28.794 46.6802 28.6378 46.6802C28.6134 46.6802 28.5865 46.6777 28.5596 46.6753C28.3741 46.6506 28.2129 46.5398 28.1202 46.3798L26.8579 44.1733C26.6919 43.8852 26.792 43.5158 27.0776 43.3508C27.3633 43.1833 27.7295 43.2843 27.8931 43.5724L28.7672 45.0992L32.952 40.8784C33.184 40.6444 33.5649 40.6444 33.7968 40.8784C34.0288 41.1123 34.0288 41.4965 33.7968 41.7304L33.7968 41.7255ZM35.0884 57.9689C35.0884 57.6365 35.357 57.3656 35.6866 57.3656H46.8986C47.2282 57.3656 47.4968 57.6365 47.4968 57.9689C47.4968 58.3014 47.2282 58.5723 46.8986 58.5723H35.6866C35.357 58.5723 35.0884 58.3014 35.0884 57.9689ZM35.0884 53.6988C35.0884 53.3664 35.357 53.0955 35.6866 53.0955H44.4591C44.7887 53.0955 45.0573 53.3664 45.0573 53.6988C45.0573 54.0313 44.7887 54.3022 44.4591 54.3022H35.6866C35.357 54.3022 35.0884 54.0313 35.0884 53.6988ZM23.9695 52.2557C23.9695 51.9233 24.2381 51.6524 24.5677 51.6524H30.3713C30.701 51.6524 30.9695 51.9233 30.9695 52.2557C30.9695 52.5882 30.701 52.8591 30.3713 52.8591H25.1659V58.8136H31.0696V56.2796C31.0696 55.9472 31.3382 55.6763 31.6678 55.6763C31.9974 55.6763 32.266 55.9472 32.266 56.2796V59.417C32.266 59.7494 31.9974 60.0203 31.6678 60.0203H24.568C24.2383 60.0203 23.9698 59.7494 23.9698 59.417L23.9695 52.2557ZM33.7971 52.6547L29.0604 57.4321C28.9481 57.5453 28.7943 57.6094 28.638 57.6094C28.6136 57.6094 28.5868 57.6069 28.5599 57.6045C28.3743 57.5798 28.2132 57.469 28.1204 57.3089L26.8581 55.1025C26.6921 54.8143 26.7922 54.4449 27.0779 54.28C27.3635 54.1125 27.7298 54.2135 27.8934 54.5016L28.7674 56.0284L32.9523 51.8075C33.1842 51.5736 33.5651 51.5736 33.7971 51.8075C34.029 52.0415 34.029 52.4257 33.7971 52.6596L33.7971 52.6547ZM35.7528 38.1058L36.0506 36.579L37.3935 36.0175L38.6753 36.8844C38.9122 37.0444 39.2296 37.0124 39.4322 36.8105L41.571 34.6532C41.7737 34.4488 41.803 34.1312 41.6443 33.8899L40.7848 32.597L41.3415 31.2426L42.8553 30.9422C43.1361 30.8855 43.3363 30.6393 43.3363 30.3512V27.3C43.3363 27.0119 43.1336 26.7632 42.8553 26.709L41.3415 26.4086L40.7848 25.0542L41.6443 23.7613C41.803 23.5224 41.7712 23.2023 41.571 22.9979L39.4322 20.8407C39.2295 20.6363 38.9146 20.6068 38.6753 20.7668L37.3935 21.6337L36.0506 21.0722L35.7528 19.5454C35.6966 19.2622 35.4524 19.0602 35.1668 19.0602H32.1417C31.856 19.0602 31.6094 19.2646 31.5557 19.5454L31.2578 21.0722L29.915 21.6337L28.6332 20.7668C28.3963 20.6068 28.0789 20.6388 27.8763 20.8407L25.7375 22.9979C25.5348 23.2023 25.5055 23.52 25.6642 23.7613L26.5236 25.0542L25.967 26.4086L24.4532 26.709C24.1724 26.7657 23.9722 27.0119 23.9722 27.3V30.3512C23.9722 30.6393 24.1748 30.888 24.4532 30.9422L25.967 31.2426L26.5236 32.597L25.6642 33.8899C25.5055 34.1287 25.5373 34.4489 25.7375 34.6532L27.8763 36.8105C28.0789 37.0149 28.3939 37.0444 28.6332 36.8844L29.915 36.0175L31.2578 36.579L31.5557 38.1058C31.6119 38.389 31.856 38.5909 32.1417 38.5909H35.1668C35.4524 38.5909 35.699 38.3865 35.7528 38.1058ZM34.9397 36.0298L34.6736 37.3867H32.63L32.3639 36.0298C32.3248 35.8328 32.1905 35.6678 32.0074 35.589L30.0736 34.7788C29.8881 34.7025 29.6781 34.7222 29.5121 34.8355L28.3719 35.6063L26.9264 34.1484L27.6907 32.9984C27.803 32.831 27.8225 32.6192 27.7468 32.432L26.9435 30.4816C26.8679 30.2945 26.7018 30.159 26.5065 30.1221L25.1612 29.8537V27.7925L26.5065 27.5241C26.7018 27.4847 26.8654 27.3492 26.9435 27.1645L27.7468 25.2141C27.8225 25.027 27.803 24.8152 27.6907 24.6478L26.9264 23.4977L28.3719 22.0399L29.5121 22.8107C29.6781 22.924 29.8881 22.9437 30.0736 22.8673L32.0074 22.0571C32.193 21.9808 32.3272 21.8158 32.3639 21.6163L32.63 20.2595H34.6736L34.9397 21.6163C34.9788 21.8133 35.1131 21.9783 35.2962 22.0571L37.2299 22.8673C37.4155 22.9437 37.6255 22.924 37.7915 22.8107L38.9317 22.0399L40.3771 23.4977L39.6129 24.6478C39.5006 24.8152 39.481 25.027 39.5567 25.2141L40.36 27.1645C40.4357 27.3517 40.6017 27.4871 40.7971 27.5241L42.1423 27.7925V29.8537L40.7971 30.1221C40.6017 30.1615 40.4382 30.2969 40.36 30.4816L39.5567 32.432C39.481 32.6192 39.5006 32.831 39.6129 32.9984L40.3771 34.1484L38.9317 35.6063L37.7915 34.8355C37.6255 34.7222 37.4155 34.7025 37.2299 34.7788L35.2962 35.589C35.1106 35.6654 34.9763 35.8304 34.9397 36.0298ZM38.0429 28.8241C38.0429 26.3837 36.075 24.3964 33.653 24.3964C31.2334 24.3964 29.2631 26.3812 29.2631 28.8241C29.2631 31.2645 31.2309 33.2518 33.653 33.2518C36.0726 33.2518 38.0429 31.267 38.0429 28.8241ZM33.653 32.0452C31.8926 32.0452 30.4594 30.5996 30.4594 28.8241C30.4594 27.0486 31.8926 25.6031 33.653 25.6031C35.4134 25.6031 36.8466 27.0486 36.8466 28.8241C36.8466 30.5996 35.4134 32.0452 33.653 32.0452Z" fill="white"/>
<defs>
<linearGradient id="paint0_linear_691_389" x1="40" y1="-14.5" x2="40" y2="79" gradientUnits="userSpaceOnUse">
<stop stop-color="#40E0ED"/>
<stop offset="1" stop-color="#55D0D9"/>
</linearGradient>
</defs>
</svg>
