<svg width="117" height="113" viewBox="0 0 117 113" fill="none" xmlns="http://www.w3.org/2000/svg">
<g opacity="0.06">
<path d="M63.5235 67.7215C69.7907 67.7215 74.8713 62.641 74.8713 56.3738C74.8713 50.1066 69.7907 45.026 63.5235 45.026C57.2563 45.026 52.1758 50.1066 52.1758 56.3738C52.1758 62.641 57.2563 67.7215 63.5235 67.7215Z" fill="#00D8FF"/>
<path d="M63.5203 82.3711C47.5837 82.3711 33.659 80.4949 23.238 76.9233C16.4791 74.6176 10.7374 71.5433 6.6459 68.0395C2.30572 64.3323 0 60.286 0 56.3753C0 48.8704 8.22826 41.5237 22.04 36.7314C33.3425 32.7982 48.081 30.6055 63.4977 30.6055C78.6431 30.6055 93.1782 32.7303 104.413 36.6184C110.991 38.8789 116.529 41.8176 120.463 45.0727C124.735 48.6443 126.995 52.555 126.995 56.3753C126.995 64.174 117.795 72.0632 102.966 76.9685C92.4774 80.4497 78.4623 82.3711 63.5203 82.3711ZM63.5203 36.0307C48.8948 36.0307 34.4276 38.1556 23.8484 41.8402C11.1443 46.2708 5.44783 52.329 5.44783 56.3753C5.44783 60.5798 11.5738 67.2031 25.0012 71.7919C34.8571 75.1601 48.1941 76.9459 63.5203 76.9459C77.8972 76.9459 91.302 75.1375 101.271 71.8146C115.218 67.1805 121.593 60.5572 121.593 56.3753C121.593 54.2278 119.965 51.696 117.004 49.2321C113.591 46.3838 108.617 43.7842 102.672 41.7272C91.9801 38.0651 78.078 36.0307 63.5203 36.0307Z" fill="#00D8FF"/>
<path d="M37.7731 112.932C35.4674 112.932 33.4329 112.435 31.7149 111.44C25.2273 107.688 22.9667 96.8826 25.702 82.5284C27.9399 70.7511 33.4103 56.9168 41.1186 43.5572C48.6913 30.4462 57.7786 18.9177 66.7528 11.1189C71.9972 6.55266 77.3094 3.20711 82.1017 1.44391C87.3235 -0.47752 91.8445 -0.47752 95.1448 1.42131C101.904 5.30938 104.142 17.2449 100.977 32.5259C98.739 43.3764 93.4042 56.4647 85.9446 69.4174C77.9876 83.2065 69.3976 94.3283 61.1015 101.584C55.7215 106.286 50.1833 109.722 45.1197 111.508C42.4749 112.458 39.9884 112.932 37.7731 112.932ZM43.447 44.9135L45.7979 46.2698C38.4964 58.9287 33.0938 72.5143 31.0142 83.5456C28.505 96.7696 30.9237 104.727 34.4049 106.738C35.2639 107.236 36.3942 107.507 37.7731 107.507C42.2715 107.507 49.3469 104.659 57.5299 97.5156C65.3739 90.6662 73.5796 79.9966 81.2427 66.7274C88.4311 54.272 93.5399 41.7488 95.6647 31.4635C98.626 17.064 96.0716 8.24805 92.4322 6.14577C90.5786 5.08333 87.5721 5.21896 83.9553 6.55266C79.7734 8.08981 75.0489 11.0963 70.3018 15.233C61.7797 22.6475 53.0767 33.6788 45.7979 46.2924L43.447 44.9135Z" fill="#00D8FF"/>
<path d="M89.2686 113C83.12 113 75.3212 109.293 67.1834 102.285C58.0962 94.4639 48.8507 82.8223 41.1197 69.4627C33.5244 56.3517 28.0992 42.7209 25.8161 31.034C24.4824 24.2073 24.2337 17.9457 25.0927 12.9047C26.0422 7.41171 28.2801 3.50102 31.603 1.57959C38.3393 -2.33109 49.8001 1.69262 61.4643 12.0684C69.7378 19.415 78.4181 30.5819 85.9004 43.512C93.88 57.3011 99.2374 70.2991 101.362 81.1043C102.741 88.1119 102.967 94.6222 101.995 99.9118C100.955 105.54 98.6045 109.542 95.2137 111.508C93.5183 112.503 91.5065 113 89.2686 113ZM45.8216 66.7501C53.1456 79.4089 62.2329 90.8697 70.7324 98.1712C80.9273 106.942 89.0199 108.841 92.5237 106.806C96.1631 104.704 98.8305 96.0915 96.0727 82.1668C94.0382 71.9493 88.9069 59.5164 81.2212 46.2473C74.0101 33.7919 65.7141 23.0996 57.8701 16.1373C46.884 6.37187 37.9776 4.17918 34.3382 6.28145C32.4846 7.34389 31.1057 10.0339 30.4501 13.8316C29.7042 18.2169 29.9302 23.823 31.1509 29.9942C33.321 41.0933 38.5202 54.1364 45.8216 66.7501Z" fill="#00D8FF"/>
</g>
</svg>
