<svg width="57" height="51" viewBox="0 0 57 51" fill="none" xmlns="http://www.w3.org/2000/svg">
<path d="M28.4042 30.2815C31.2065 30.2815 33.4783 28.0097 33.4783 25.2074C33.4783 22.4051 31.2065 20.1333 28.4042 20.1333C25.6018 20.1333 23.3301 22.4051 23.3301 25.2074C23.3301 28.0097 25.6018 30.2815 28.4042 30.2815Z" fill="#00D8FF"/>
<path d="M28.4028 36.8318C21.2768 36.8318 15.0505 35.9929 10.3908 34.3959C7.36856 33.3649 4.80119 31.9902 2.97168 30.4235C1.03099 28.7658 0 26.9566 0 25.2079C0 21.8521 3.67923 18.5671 9.85507 16.4243C14.909 14.6655 21.4992 13.6851 28.3927 13.6851C35.1649 13.6851 41.6642 14.6352 46.6878 16.3737C49.6291 17.3845 52.1055 18.6985 53.8643 20.154C55.7746 21.7511 56.7854 23.4997 56.7854 25.2079C56.7854 28.6951 52.6716 32.2227 46.0409 34.4161C41.3509 35.9727 35.084 36.8318 28.4028 36.8318ZM28.4028 16.1109C21.8631 16.1109 15.3941 17.0611 10.6637 18.7086C4.98313 20.6897 2.43597 23.3986 2.43597 25.2079C2.43597 27.088 5.17518 30.0495 11.1792 32.1014C15.5862 33.6075 21.5498 34.406 28.4028 34.406C34.8314 34.406 40.8253 33.5973 45.2828 32.1115C51.5193 30.0394 54.3697 27.0778 54.3697 25.2079C54.3697 24.2477 53.6419 23.1156 52.3178 22.0139C50.7915 20.7403 48.5678 19.5779 45.9095 18.6581C41.1285 17.0206 34.9122 16.1109 28.4028 16.1109Z" fill="#00D8FF"/>
<path d="M16.8895 50.4971C15.8585 50.4971 14.9488 50.2748 14.1806 49.83C11.2797 48.1521 10.2689 43.3206 11.4919 36.9022C12.4926 31.636 14.9387 25.4501 18.3854 19.4764C21.7715 13.6139 25.8348 8.45894 29.8476 4.97176C32.1926 2.92999 34.568 1.43404 36.7108 0.645639C39.0457 -0.213521 41.0672 -0.213521 42.543 0.635531C45.5652 2.37407 46.5659 7.71097 45.1508 14.5438C44.1501 19.3955 41.7647 25.2479 38.4291 31.0397C34.8712 37.2054 31.0302 42.1784 27.3207 45.423C24.915 47.5254 22.4386 49.0618 20.1745 49.8603C18.9919 50.2849 17.88 50.4971 16.8895 50.4971ZM19.4265 20.0829L20.4777 20.6893C17.2129 26.3497 14.7972 32.4244 13.8673 37.357C12.7453 43.2701 13.8268 46.828 15.3834 47.7276C15.7675 47.95 16.2729 48.0713 16.8895 48.0713C18.9009 48.0713 22.0646 46.7977 25.7237 43.6036C29.2311 40.541 32.9002 35.7701 36.3267 29.8369C39.541 24.2675 41.8253 18.6678 42.7755 14.0687C44.0996 7.6301 42.9574 3.68808 41.33 2.74805C40.5012 2.27299 39.1569 2.33363 37.5396 2.92999C35.6697 3.61732 33.5572 4.96165 31.4345 6.81137C27.6239 10.1267 23.7324 15.0593 20.4777 20.6994L19.4265 20.0829Z" fill="#00D8FF"/>
<path d="M39.916 50.5274C37.1667 50.5274 33.6795 48.8697 30.0407 45.7363C25.9774 42.239 21.8433 37.0335 18.3865 31.0598C14.9903 25.1973 12.5644 19.1024 11.5435 13.8766C10.9472 10.8241 10.836 8.02425 11.2201 5.77022C11.6446 3.31403 12.6453 1.56539 14.1311 0.706228C17.1432 -1.04241 22.2679 0.756767 27.4835 5.39623C31.1829 8.68125 35.0643 13.6745 38.41 19.4561C41.978 25.6219 44.3735 31.4338 45.3237 36.2653C45.9402 39.3987 46.0413 42.3098 45.6067 44.675C45.1417 47.1918 44.0905 48.9809 42.5744 49.8603C41.8163 50.305 40.9167 50.5274 39.916 50.5274ZM20.4889 29.8469C23.7638 35.5073 27.8271 40.6319 31.6276 43.8967C36.1862 47.8185 39.8048 48.6676 41.3715 47.7579C42.9989 46.8178 44.1916 42.9668 42.9584 36.7404C42.0487 32.1717 39.7543 26.6124 36.3176 20.6792C33.0933 15.1098 29.3837 10.3288 25.8763 7.21563C20.964 2.84907 16.9815 1.86862 15.3542 2.80864C14.5253 3.28371 13.9088 4.48653 13.6156 6.18464C13.2821 8.14554 13.3831 10.6523 13.929 13.4117C14.8993 18.3746 17.2241 24.2068 20.4889 29.8469Z" fill="#00D8FF"/>
</svg>
