<svg width="101" height="101" viewBox="0 0 101 101" fill="none" xmlns="http://www.w3.org/2000/svg">
<circle cx="50.5" cy="50.5" r="49" fill="#22BECA" stroke="white" stroke-width="3"/>
<path d="M33.5367 38.0628H43.8161C44.3849 38.0628 44.8485 37.5992 44.8485 37.0304V35.3664C44.8485 34.7976 44.3849 34.334 43.8161 34.334L33.5367 34.332C32.9679 34.332 32.5043 34.7956 32.5043 35.3644V37.0283C32.5043 37.5992 32.9679 38.0628 33.5367 38.0628ZM33.2311 35.3644C33.2311 35.1944 33.3687 35.0567 33.5388 35.0567L43.816 35.0587C43.9861 35.0587 44.1237 35.1964 44.1237 35.3664V37.0304C44.1237 37.2004 43.9861 37.3381 43.816 37.3381L33.5367 37.336C33.3666 37.336 33.229 37.1984 33.229 37.0283L33.2311 35.3644ZM70.7572 65.1904L67.9414 62.3746C67.9435 62.326 67.9495 62.2754 67.9495 62.2268V35.2287C67.9495 33.4494 66.5001 32 64.7208 32H33.2287C31.4494 32 30 33.4494 30 35.2287V62.2247C30 64.0041 31.4494 65.4535 33.2287 65.4535H63.0443L66.767 69.1761C67.3176 69.7267 68.0382 70 68.7609 70C69.4837 70 70.2063 69.7247 70.7549 69.1761C71.8581 68.079 71.8584 66.2895 70.7572 65.1904ZM33.229 32.7267H64.721C66.1016 32.7267 67.223 33.8502 67.223 35.2287V39.6679H30.7271V35.2287C30.7271 33.8501 31.8505 32.7267 33.229 32.7267ZM30.727 62.2267V40.3947H67.2229V61.6556L66.3849 60.8175C66.0083 60.441 65.4537 60.352 64.9901 60.5483L62.5063 58.0645C63.5488 56.4835 64.1602 54.5949 64.1602 52.5647C64.1602 49.1194 62.4355 45.9818 59.5387 44.1276L59.4233 42.7349C59.4152 42.6316 59.3626 42.5365 59.2796 42.4737C59.1966 42.411 59.0913 42.3867 58.9901 42.409L56.6885 42.8725C55.8606 42.6559 55.0043 42.5426 54.1399 42.5426C48.6157 42.5426 44.1218 47.0365 44.1218 52.5607C44.1218 58.0849 48.6157 62.5789 54.1399 62.5789C56.1703 62.5789 58.0589 61.9676 59.6398 60.9251L62.1236 63.4089C61.9414 63.8421 62.0122 64.3542 62.3321 64.7267L33.229 64.7287C31.8505 64.7287 30.727 63.6052 30.727 62.2267ZM62.573 62.8299L60.2369 60.4939C60.9272 59.9636 61.5426 59.3462 62.075 58.6559L64.411 60.9919L62.573 62.8299ZM52.2511 59.164C51.3949 58.919 50.6094 58.5121 49.9252 57.9777V55.7449C49.9252 55.7409 49.9293 55.7368 49.9333 55.7368H52.2511L52.2511 59.164ZM55.3037 59.3279C54.9252 59.3927 54.5385 59.4332 54.1398 59.4332C53.743 59.4332 53.3564 59.3927 52.9758 59.3279L52.9778 53.2083C52.9778 53.2043 52.9819 53.2002 52.9859 53.2002H55.3037L55.3037 59.3279ZM58.3563 57.9797C57.6721 58.5141 56.8867 58.921 56.0304 59.166V50.6698C56.0304 50.6658 56.0345 50.6617 56.0385 50.6617H58.3462C58.3502 50.6617 58.3543 50.6658 58.3543 50.6698L58.3563 57.9797ZM58.3482 49.9355H56.0406C55.6357 49.9355 55.3057 50.2654 55.3057 50.6703V52.4719H52.9879C52.5831 52.4719 52.2531 52.8019 52.2531 53.2068V55.0084H49.9353C49.5304 55.0084 49.2004 55.3383 49.2004 55.7432V57.3242C48.0081 56.0874 47.2692 54.4092 47.2692 52.559C47.2692 48.7696 50.3522 45.6864 54.1418 45.6864C54.4475 45.6864 54.7491 45.7128 55.0507 45.7533C52.9718 48.2654 50.7734 50.0063 48.8404 50.6338C48.6623 50.6905 48.557 50.8747 48.5975 51.0569C48.6339 51.2249 48.7837 51.3423 48.9517 51.3423C48.9659 51.3423 48.9801 51.3423 48.9943 51.3403L49.1198 51.3261C51.4133 51.063 54.223 50.7411 57.8709 46.7897C59.8162 48.0508 61.0166 50.233 61.0166 52.5611C61.0166 54.4113 60.2777 56.0894 59.0854 57.3262L59.0834 50.6703C59.0834 50.2654 58.7531 49.9355 58.3482 49.9355ZM51.2611 50.2432C53.1984 48.9881 55.2308 46.9234 57.075 44.2977C57.1883 44.1377 57.1519 43.9171 56.996 43.7977L56.7369 43.6033L58.7349 43.1985L58.9029 45.2288L58.7875 45.1418C58.6317 45.0244 58.413 45.0507 58.2896 45.2005C55.492 48.6013 53.2001 49.7593 51.2611 50.2432ZM55.6518 43.6986L56.2753 44.1662C56.0425 44.4901 55.8077 44.7998 55.5688 45.1055C55.0992 45.0164 54.6214 44.9617 54.1396 44.9617C49.9494 44.9617 46.5405 48.3706 46.5405 52.5609C46.5405 56.7511 49.9494 60.16 54.1396 60.16C58.3299 60.16 61.7388 56.7511 61.7388 52.5609C61.7388 50.0245 60.4513 47.6419 58.3542 46.2392C58.4453 46.1359 58.5323 46.0408 58.6255 45.9315L59.1133 46.2979C59.2267 46.3829 59.3825 46.395 59.506 46.3262C59.6315 46.2574 59.7044 46.1217 59.6923 45.978L59.6153 45.057C62.0161 46.806 63.4331 49.557 63.4331 52.5628C63.4331 57.6863 59.2651 61.8545 54.1415 61.8545C49.0181 61.8545 44.8499 57.6865 44.8499 52.5628C44.8499 47.4392 49.0179 43.2712 54.1415 43.2712C54.603 43.2712 55.0605 43.3077 55.514 43.3745C55.4998 43.4979 55.5506 43.6217 55.6518 43.6986ZM70.2448 68.6642C69.429 69.48 68.0991 69.48 67.2833 68.6642L62.9088 64.2897C62.6963 64.0772 62.6963 63.731 62.9088 63.5185L65.0991 61.3282C65.3116 61.1156 65.6578 61.1156 65.8704 61.3282L70.2448 65.7026C71.0606 66.5204 71.0606 67.8484 70.2448 68.6642ZM33.682 50.994C33.682 50.7936 33.8439 50.6317 34.0444 50.6317H40.8014C41.0018 50.6317 41.1637 50.7936 41.1637 50.994C41.1637 51.1945 41.0018 51.3564 40.8014 51.3564H34.0444C33.846 51.3564 33.682 51.1945 33.682 50.994ZM33.682 44.721C33.682 44.5206 33.8439 44.3587 34.0444 44.3587H36.3925C36.5929 44.3587 36.7548 44.5206 36.7548 44.721C36.7548 44.9214 36.5929 45.0834 36.3925 45.0834H34.0444C33.846 45.0854 33.682 44.9235 33.682 44.721ZM33.682 54.1298C33.682 53.9294 33.8439 53.7674 34.0444 53.7674H35.0848C35.2852 53.7674 35.4472 53.9294 35.4472 54.1298C35.4472 54.3302 35.2852 54.4921 35.0848 54.4921H34.0444C33.846 54.4921 33.682 54.3302 33.682 54.1298ZM43.8883 44.721C43.8883 44.9214 43.7263 45.0834 43.5259 45.0834L38.5604 45.0854C38.36 45.0854 38.198 44.9235 38.198 44.7231C38.198 44.5227 38.36 44.3607 38.5604 44.3607H43.5259C43.7263 44.3587 43.8883 44.5206 43.8883 44.721ZM42.0725 47.8587C42.0725 48.0591 41.9106 48.221 41.7102 48.221H34.0463C33.8458 48.221 33.6839 48.0591 33.6839 47.8587C33.6839 47.6583 33.8458 47.4963 34.0463 47.4963H41.7102C41.9106 47.4943 42.0725 47.6583 42.0725 47.8587ZM33.6821 57.2654C33.6821 57.0649 33.844 56.903 34.0444 56.903H38.3076C38.508 56.903 38.6699 57.0649 38.6699 57.2654C38.6699 57.4658 38.508 57.6277 38.3076 57.6277H34.0444C33.846 57.6277 33.6821 57.4658 33.6821 57.2654ZM41.1656 60.401C41.1656 60.6014 41.0037 60.7633 40.8033 60.7633H34.0463C33.8458 60.7633 33.6839 60.6014 33.6839 60.401C33.6839 60.2006 33.8458 60.0386 34.0463 60.0386H40.8033C41.0037 60.0386 41.1656 60.2006 41.1656 60.401ZM42.0725 54.1295C42.0725 54.3299 41.9106 54.4919 41.7102 54.4919H37.3154C37.115 54.4919 36.9531 54.3299 36.9531 54.1295C36.9531 53.9291 37.115 53.7672 37.3154 53.7672H41.7102C41.9106 53.7672 42.0725 53.9291 42.0725 54.1295Z" fill="white"/>
</svg>
