<svg width="71" height="96" viewBox="0 0 71 96" fill="none" xmlns="http://www.w3.org/2000/svg">
<g opacity="0.09">
<path d="M72.7362 17.9151C72.3924 17.8824 65.0518 17.338 65.0518 17.338C65.0518 17.338 59.9496 12.2498 59.3911 11.6898C58.8311 11.1266 57.7376 11.2946 57.3113 11.4238C57.2507 11.4409 56.1991 11.7691 54.4584 12.3058C52.7536 7.37931 49.7498 2.85264 44.4624 2.85264C44.3162 2.85264 44.1653 2.85887 44.0129 2.8682C42.5102 0.872423 40.6467 -0.000244141 39.0367 -0.000244141C26.7182 -0.000244141 20.832 15.4791 18.9871 23.3455C14.1991 24.8326 10.7956 25.8935 10.3662 26.0335C7.68911 26.8766 7.60667 26.9606 7.25978 29.49C6.99222 31.4049 0 85.7451 0 85.7451L54.4787 96.0024L84 89.5826C84 89.5826 73.6385 19.1766 73.5731 18.6929C73.5078 18.2106 73.0847 17.9431 72.7362 17.9151ZM43.6084 15.1478C43.6084 15.3329 43.6053 15.5071 43.6053 15.6829C40.6062 16.6178 37.352 17.6289 34.0838 18.6478C35.9178 11.5389 39.3524 8.10109 42.3593 6.80531C43.1138 8.71242 43.6084 11.4533 43.6084 15.1478ZM38.696 3.32242C39.2342 3.32242 39.7662 3.50287 40.2796 3.85909C36.33 5.7242 32.1004 10.4298 30.3116 19.8206C27.6998 20.6326 25.1487 21.4291 22.7858 22.1633C24.8796 14.9969 29.848 3.32242 38.696 3.32242ZM40.8193 45.1855C40.8193 45.1855 37.6304 43.476 33.7244 43.476C27.9907 43.476 27.7013 47.0911 27.7013 47.9995C27.7013 52.9695 40.5922 54.8751 40.5922 66.5153C40.5922 75.6744 34.8149 81.57 27.0184 81.57C17.6664 81.57 12.8816 75.7195 12.8816 75.7195L15.3844 67.4051C15.3844 67.4051 20.3 71.6502 24.4533 71.6502C27.16 71.6502 28.2629 69.5035 28.2629 67.9371C28.2629 61.4535 17.6867 61.1642 17.6867 50.5102C17.6867 41.5486 24.0893 32.8686 37.0191 32.8686C41.9953 32.8686 44.4593 34.3044 44.4593 34.3044L40.8193 45.1855ZM46.8378 14.678C46.8378 14.3498 46.8409 14.0293 46.8409 13.6762C46.8409 10.618 46.4162 8.15242 45.738 6.19864C48.4633 6.53931 50.2787 9.65664 51.4469 13.2422C50.0796 13.6715 48.524 14.1538 46.8378 14.678Z" fill="#79B259"/>
<path d="M72.7362 17.9151C72.3924 17.8824 65.0518 17.338 65.0518 17.338C65.0518 17.338 59.9496 12.2498 59.3911 11.6898C58.8311 11.1266 57.7376 11.2946 57.3113 11.4238C57.2507 11.4409 56.1991 11.7691 54.4584 12.3058C52.7536 7.37931 49.7498 2.85264 44.4624 2.85264C44.3162 2.85264 44.1653 2.85887 44.0129 2.8682C42.5102 0.872423 40.6467 -0.000244141 39.0367 -0.000244141C26.7182 -0.000244141 23.6787 15.4791 21.8338 23.3455C17.0458 24.8326 13.3716 33.0195 12.9376 33.1564C10.2636 33.9995 10.1811 34.0835 9.83267 36.6144C9.56356 38.5278 0 85.7451 0 85.7451L54.4787 96.0024L84 89.5826C84 89.5826 73.6385 19.1766 73.5731 18.6929C73.5078 18.2106 73.0847 17.9431 72.7362 17.9151ZM43.6084 15.1478C43.6084 15.3329 43.6053 15.5071 43.6053 15.6829C40.6062 16.6178 37.352 17.6289 34.0838 18.6478C35.9178 11.5389 39.3524 8.10109 42.3593 6.80531C43.1138 8.71242 43.6084 11.4533 43.6084 15.1478ZM38.696 3.32242C39.2342 3.32242 39.7662 3.50287 40.2796 3.85909C36.33 5.7242 32.1004 10.4298 30.3116 19.8206C27.6998 20.6326 25.1487 21.4291 22.7858 22.1633C24.8796 14.9969 29.848 3.32242 38.696 3.32242ZM40.8193 45.1855C40.8193 45.1855 37.6304 43.476 33.7244 43.476C27.9907 43.476 27.7013 47.0911 27.7013 47.9995C27.7013 52.9695 40.5922 54.8751 40.5922 66.5153C40.5922 75.6744 34.8149 81.57 27.0184 81.57C17.6664 81.57 12.8816 75.7195 12.8816 75.7195L15.3844 67.4051C15.3844 67.4051 20.3 71.6502 24.4533 71.6502C27.16 71.6502 28.2629 69.5035 28.2629 67.9371C28.2629 61.4535 17.6867 61.1642 17.6867 50.5102C17.6867 41.5486 24.0893 32.8686 37.0191 32.8686C41.9953 32.8686 44.4593 34.3044 44.4593 34.3044L40.8193 45.1855ZM46.8378 14.678C46.8378 14.3498 46.8409 14.0293 46.8409 13.6762C46.8409 10.618 46.4162 8.15242 45.738 6.19864C48.4633 6.53931 50.2787 9.65664 51.4469 13.2422C50.0796 13.6715 48.524 14.1538 46.8378 14.678Z" fill="#79B259"/>
<path d="M54.4777 96.0014L83.9991 89.5831C83.9991 89.5831 73.6375 19.1771 73.5722 18.6934C73.5068 18.2096 73.0853 17.9436 72.7353 17.9156C72.3915 17.8829 65.0508 17.3385 65.0508 17.3385C65.0508 17.3385 59.9486 12.2502 59.3902 11.6902C59.0915 11.3885 58.6451 11.3029 58.2235 11.2998C57.1035 13.1976 57.3353 16.8018 57.3353 16.8018L53.8633 95.8847L54.4777 96.0014Z" fill="#55932C"/>
<path d="M44.4653 2.85435C44.3191 2.85435 44.1682 2.86058 44.0157 2.86991C42.5131 0.874131 40.6495 0.00146484 39.0395 0.00146484C26.7708 0.00146484 20.8799 15.3595 19.0117 23.2524L22.8182 22.0717C24.9244 14.9021 29.8882 3.32258 38.6988 3.32258C39.2371 3.32258 39.7691 3.50302 40.2824 3.85924C36.3437 5.71813 32.1251 10.4066 30.3299 19.7461L34.1099 18.5795C35.9486 11.5157 39.3693 8.09658 42.3653 6.80546C43.1182 8.71413 43.6144 11.4535 43.6144 15.1479C43.6144 15.3159 43.6144 15.4761 43.6113 15.6364L46.8437 14.6361C46.8437 14.325 46.8468 14.0139 46.8468 13.6764C46.8468 10.6181 46.4222 8.15258 45.7439 6.1988C48.4599 6.53791 50.2737 9.64124 51.4404 13.2112L54.4551 12.2764C52.7455 7.36391 49.7433 2.85435 44.4653 2.85435Z" fill="#4A7A2B"/>
<path d="M66.2844 17.4318C65.5471 17.3742 65.0508 17.3385 65.0508 17.3385C65.0508 17.3385 59.9486 12.2502 59.3902 11.6902C59.0915 11.3885 58.6451 11.3029 58.2235 11.2998C57.1035 13.1976 57.3353 16.8018 57.3353 16.8018L53.8633 95.8847L54.4793 96.0014L70.1873 92.5854L66.2844 17.4318Z" fill="#4C822A"/>
</g>
</svg>
