<svg width="48" height="55" viewBox="0 0 48 55" fill="none" xmlns="http://www.w3.org/2000/svg">
<path d="M41.5636 10.2373C41.3671 10.2187 37.1724 9.90756 37.1724 9.90756C37.1724 9.90756 34.2569 7 33.9378 6.68C33.6178 6.35822 32.9929 6.45422 32.7493 6.528C32.7147 6.53778 32.1138 6.72533 31.1191 7.032C30.1449 4.21689 28.4284 1.63022 25.4071 1.63022C25.3236 1.63022 25.2373 1.63378 25.1502 1.63911C24.2916 0.498667 23.2267 0 22.3067 0C15.2676 0 11.904 8.84533 10.8498 13.3404C8.11378 14.1902 6.16889 14.7964 5.92356 14.8764C4.39378 15.3582 4.34667 15.4062 4.14844 16.8516C3.99556 17.9458 0 48.9973 0 48.9973L31.1307 54.8587L48 51.1902C48 51.1902 42.0791 10.9582 42.0418 10.6818C42.0044 10.4062 41.7627 10.2533 41.5636 10.2373ZM24.9191 8.656C24.9191 8.76178 24.9173 8.86133 24.9173 8.96178C23.2036 9.496 21.344 10.0738 19.4764 10.656C20.5244 6.59378 22.4871 4.62933 24.2053 3.88889C24.6364 4.97867 24.9191 6.54489 24.9191 8.656ZM22.112 1.89867C22.4196 1.89867 22.7236 2.00178 23.0169 2.20533C20.76 3.27111 18.3431 5.96 17.3209 11.3262C15.8284 11.7902 14.3707 12.2453 13.0204 12.6649C14.2169 8.56978 17.056 1.89867 22.112 1.89867ZM23.3253 25.8204C23.3253 25.8204 21.5031 24.8436 19.2711 24.8436C15.9947 24.8436 15.8293 26.9093 15.8293 27.4284C15.8293 30.2684 23.1956 31.3573 23.1956 38.0089C23.1956 43.2427 19.8942 46.6116 15.4391 46.6116C10.0951 46.6116 7.36089 43.2684 7.36089 43.2684L8.79111 38.5173C8.79111 38.5173 11.6 40.9431 13.9733 40.9431C15.52 40.9431 16.1502 39.7164 16.1502 38.8213C16.1502 35.1164 10.1067 34.9511 10.1067 28.8631C10.1067 23.7422 13.7653 18.7822 21.1538 18.7822C23.9973 18.7822 25.4053 19.6027 25.4053 19.6027L23.3253 25.8204ZM26.7644 8.38756C26.7644 8.2 26.7662 8.01689 26.7662 7.81511C26.7662 6.06756 26.5236 4.65867 26.136 3.54222C27.6933 3.73689 28.7307 5.51822 29.3982 7.56711C28.6169 7.81244 27.728 8.088 26.7644 8.38756Z" fill="#79B259"/>
<path d="M41.5636 10.2373C41.3671 10.2187 37.1724 9.90756 37.1724 9.90756C37.1724 9.90756 34.2569 7 33.9378 6.68C33.6178 6.35822 32.9929 6.45422 32.7493 6.528C32.7147 6.53778 32.1138 6.72533 31.1191 7.032C30.1449 4.21689 28.4284 1.63022 25.4071 1.63022C25.3236 1.63022 25.2373 1.63378 25.1502 1.63911C24.2916 0.498667 23.2267 0 22.3067 0C15.2676 0 13.5307 8.84533 12.4764 13.3404C9.74044 14.1902 7.64089 18.8684 7.39289 18.9467C5.86489 19.4284 5.81778 19.4764 5.61867 20.9227C5.46489 22.016 0 48.9973 0 48.9973L31.1307 54.8587L48 51.1902C48 51.1902 42.0791 10.9582 42.0418 10.6818C42.0044 10.4062 41.7627 10.2533 41.5636 10.2373ZM24.9191 8.656C24.9191 8.76178 24.9173 8.86133 24.9173 8.96178C23.2036 9.496 21.344 10.0738 19.4764 10.656C20.5244 6.59378 22.4871 4.62933 24.2053 3.88889C24.6364 4.97867 24.9191 6.54489 24.9191 8.656ZM22.112 1.89867C22.4196 1.89867 22.7236 2.00178 23.0169 2.20533C20.76 3.27111 18.3431 5.96 17.3209 11.3262C15.8284 11.7902 14.3707 12.2453 13.0204 12.6649C14.2169 8.56978 17.056 1.89867 22.112 1.89867ZM23.3253 25.8204C23.3253 25.8204 21.5031 24.8436 19.2711 24.8436C15.9947 24.8436 15.8293 26.9093 15.8293 27.4284C15.8293 30.2684 23.1956 31.3573 23.1956 38.0089C23.1956 43.2427 19.8942 46.6116 15.4391 46.6116C10.0951 46.6116 7.36089 43.2684 7.36089 43.2684L8.79111 38.5173C8.79111 38.5173 11.6 40.9431 13.9733 40.9431C15.52 40.9431 16.1502 39.7164 16.1502 38.8213C16.1502 35.1164 10.1067 34.9511 10.1067 28.8631C10.1067 23.7422 13.7653 18.7822 21.1538 18.7822C23.9973 18.7822 25.4053 19.6027 25.4053 19.6027L23.3253 25.8204ZM26.7644 8.38756C26.7644 8.2 26.7662 8.01689 26.7662 7.81511C26.7662 6.06756 26.5236 4.65867 26.136 3.54222C27.6933 3.73689 28.7307 5.51822 29.3982 7.56711C28.6169 7.81244 27.728 8.088 26.7644 8.38756Z" fill="#79B259"/>
<path d="M31.1304 54.8579L47.9997 51.1903C47.9997 51.1903 42.0789 10.9583 42.0415 10.6819C42.0042 10.4054 41.7633 10.2534 41.5633 10.2374C41.3669 10.2187 37.1722 9.90764 37.1722 9.90764C37.1722 9.90764 34.2566 7.00008 33.9375 6.68008C33.7669 6.50764 33.5117 6.45875 33.2709 6.45697C32.6309 7.54141 32.7633 9.60097 32.7633 9.60097L30.7793 54.7912L31.1304 54.8579Z" fill="#55932C"/>
<path d="M25.4082 1.6312C25.3246 1.6312 25.2384 1.63475 25.1513 1.64009C24.2926 0.499643 23.2277 0.000976562 22.3077 0.000976562C15.2971 0.000976562 11.9308 8.77698 10.8633 13.2872L13.0384 12.6125C14.2419 8.51564 17.0784 1.89875 22.1131 1.89875C22.4206 1.89875 22.7246 2.00187 23.018 2.20542C20.7673 3.26764 18.3566 5.94675 17.3308 11.2836L19.4908 10.617C20.5415 6.58053 22.4962 4.62675 24.2082 3.88898C24.6384 4.97964 24.922 6.54498 24.922 8.65609C24.922 8.75209 24.922 8.84364 24.9202 8.9352L26.7673 8.36364C26.7673 8.18587 26.7691 8.00809 26.7691 7.8152C26.7691 6.06764 26.5264 4.65875 26.1388 3.54231C27.6908 3.73609 28.7273 5.50942 29.394 7.54942L31.1166 7.0152C30.1397 4.20809 28.4242 1.6312 25.4082 1.6312Z" fill="#4A7A2B"/>
<path d="M37.8771 9.96103C37.4557 9.92814 37.1722 9.9077 37.1722 9.9077C37.1722 9.9077 34.2566 7.00014 33.9375 6.68014C33.7669 6.5077 33.5117 6.45881 33.2709 6.45703C32.6309 7.54148 32.7633 9.60103 32.7633 9.60103L30.7793 54.7912L31.1313 54.8579L40.1073 52.9059L37.8771 9.96103Z" fill="#4C822A"/>
</svg>
