<svg width="906" height="585" viewBox="0 0 906 585" fill="none" xmlns="http://www.w3.org/2000/svg">
<path d="M1132.96 155.582L1135.5 157.377C989.91 168.955 947.416 184.257 949.646 204.023C951.087 216.83 971.308 231.835 994.396 248.971C1019.51 267.61 1047.98 288.738 1059.91 312.707C1083.98 361.051 1040.8 420.413 767.488 492.487C531.403 554.75 375.831 671.234 278.87 773.026L276.869 771.614C374.105 669.614 530.027 552.969 766.546 490.595C1037.76 419.072 1080.9 360.729 1057.33 313.395C1045.6 289.841 1017.36 268.88 992.446 250.389C968.979 232.973 948.428 217.721 946.904 204.182C944.564 183.399 987.13 167.413 1132.97 155.586M1121.94 147.806L1124.48 149.6C977.138 161.423 934.636 177.398 936.963 198.11C938.446 211.281 958.075 226.669 980.378 244.175C1004.04 262.737 1030.7 283.645 1042.41 307.161C1067.11 356.789 1025.25 417.48 748.539 490.452C513.081 552.543 359.688 665.013 264.671 763.009L262.675 761.601C357.975 663.402 511.714 550.759 747.595 488.554C1022.21 416.135 1064.03 356.463 1039.82 307.842C1028.31 284.718 1001.86 263.977 978.372 245.546C955.713 227.772 935.784 212.138 934.22 198.262C931.776 176.544 974.356 159.879 1121.94 147.806ZM1110.91 140.027L1113.46 141.823C964.333 153.892 921.82 170.566 924.263 192.245C925.789 205.765 944.797 221.53 966.317 239.375C988.552 257.809 1013.44 278.441 1024.9 301.465C1050.27 352.421 1009.85 414.504 729.594 488.408C494.802 550.325 343.58 658.8 250.489 753.004L248.493 751.596C341.862 657.176 493.441 548.54 728.646 486.512C1006.79 413.162 1047.19 352.101 1022.31 302.15C1011.04 279.501 986.329 259.015 964.253 240.712C942.41 222.601 923.115 206.604 921.516 192.4C918.962 169.716 961.538 152.349 1110.92 140.033L1110.91 140.027ZM1099.89 132.248L1102.43 134.044C951.484 146.367 908.981 163.765 911.534 186.443C913.096 200.311 931.479 216.423 952.203 234.588C973.024 252.839 996.196 273.147 1007.39 295.626C1033.44 347.952 994.596 411.485 710.645 486.366C476.564 548.094 327.495 652.583 236.325 743.011L234.327 741.601C325.784 650.961 475.212 546.307 709.697 484.47C991.528 410.148 1030.36 347.637 1004.8 296.311C993.779 274.172 970.776 254.006 950.092 235.882C929.069 217.456 910.423 201.112 908.788 186.597C906.123 162.918 948.675 144.826 1099.89 132.248ZM1088.86 124.47L1091.41 126.266C938.586 138.848 896.112 156.997 898.782 180.706C900.38 194.905 918.124 211.347 938.045 229.808C957.481 247.822 978.973 267.738 989.871 289.625C1016.63 343.368 979.512 408.424 691.694 484.325C458.374 545.852 311.444 646.371 222.174 733.027L220.184 731.623C309.747 644.749 457.03 544.062 690.743 482.427C976.431 407.087 1013.54 343.056 987.28 290.308C976.538 268.731 955.19 248.948 935.881 231.056C915.679 212.335 897.699 195.671 896.031 180.859C893.254 156.154 935.782 137.309 1088.86 124.47ZM1077.84 116.692L1080.38 118.485C925.639 131.334 883.216 150.263 886.005 175.037C887.639 189.549 904.735 206.308 923.843 225.035C941.909 242.741 961.765 262.203 972.341 283.446C999.834 338.656 964.615 405.31 672.743 482.281C440.234 543.595 295.438 640.166 208.042 723.057L206.056 721.656C293.738 638.544 438.9 541.803 671.796 480.386C961.528 403.981 996.754 338.352 969.755 284.129C959.321 263.175 939.591 243.836 921.639 226.239C902.273 207.26 884.961 190.29 883.257 175.19C880.359 149.424 922.839 129.8 1077.84 116.692ZM1066.81 108.913L1069.36 110.708C912.645 123.828 870.289 143.561 873.207 169.439C874.874 184.247 891.303 201.287 909.607 220.269C926.317 237.599 944.575 256.534 954.804 277.073C983.051 333.807 949.938 402.144 653.789 480.241C422.158 541.325 279.468 633.962 193.938 713.106L191.954 711.707C277.776 632.344 420.829 539.531 652.845 478.347C946.834 400.82 979.972 333.511 952.213 277.761C942.121 257.489 923.966 238.663 907.351 221.432C888.814 202.21 872.185 184.963 870.457 169.597C867.435 142.728 909.846 122.295 1066.81 108.913ZM1055.79 101.135L1058.33 102.928C899.591 116.326 857.338 136.901 860.381 163.916C862.078 179.002 877.841 196.306 895.332 215.507C910.704 232.381 927.397 250.71 937.242 270.481C966.287 328.792 935.502 398.913 634.843 478.199C404.142 539.038 263.54 627.766 179.855 703.171L177.88 701.778C261.856 626.141 402.819 537.242 633.905 476.309C932.395 397.595 963.213 328.509 934.663 271.169C924.948 251.659 908.333 233.42 893.039 216.629C875.344 197.204 859.4 179.699 857.636 164.081C854.482 136.069 896.795 114.798 1055.79 101.135ZM1044.76 93.3559L1047.3 95.1483C886.479 108.833 844.355 130.278 847.527 158.474C849.256 173.823 864.338 191.362 881.015 210.752C895.065 227.092 910.237 244.735 919.66 263.637C949.517 323.6 921.342 395.608 615.901 476.151C386.171 536.737 247.686 621.58 165.825 693.272L163.857 691.884C246.025 619.969 384.867 534.944 614.956 474.267C918.224 394.292 946.447 323.323 917.072 264.332C907.767 245.64 892.671 228.085 878.69 211.83C861.827 192.22 846.574 174.484 844.79 158.634C841.5 129.453 883.687 107.307 1044.76 93.3559ZM1033.73 85.5766L1036.27 87.369C873.306 101.347 831.336 123.697 834.648 153.116C836.404 168.707 850.804 186.455 866.667 206.005C879.406 221.708 893.079 238.562 902.025 256.525C932.735 318.207 907.514 392.214 596.945 474.114C368.274 534.418 231.884 615.4 151.81 683.385L149.847 682C230.23 613.782 366.97 532.619 596 472.22C904.371 390.9 929.672 317.924 899.439 257.209C890.59 239.437 876.976 222.658 864.289 207.034C848.258 187.274 833.704 169.337 831.898 153.276C828.48 122.873 870.516 99.8228 1033.73 85.5766ZM1022.71 77.7972L1025.25 79.5884C860.066 93.8676 818.285 117.159 821.742 147.846C823.523 163.657 837.227 181.578 852.284 201.26C863.719 216.214 875.928 232.176 884.343 249.079C915.952 312.559 894.076 388.719 577.996 472.075C350.467 532.076 216.148 609.229 137.838 673.528L135.881 672.147C214.499 607.614 349.18 530.27 577.049 470.179C890.916 387.409 912.888 312.284 881.757 249.762C873.418 233.014 861.267 217.126 849.881 202.239C834.678 182.361 820.825 164.25 819 148C815.433 116.342 857.282 92.3481 1022.71 77.7972ZM1011.68 70.0179L1014.22 71.8066C846.754 86.3988 805.208 110.676 808.807 142.673C810.61 158.666 823.631 176.746 837.873 196.517C848.003 210.581 858.747 225.499 866.588 241.245C899.136 306.615 881.117 385.098 559.046 470.032C332.753 529.707 200.48 603.065 123.907 663.699L121.954 662.322C198.841 601.45 331.48 527.898 558.1 468.137C877.936 383.794 896.076 306.349 864.001 241.93C856.247 226.36 845.528 211.48 835.432 197.457C821.055 177.498 807.909 159.251 806.068 142.825C802.352 109.859 843.974 84.8793 1011.68 70.0179ZM1000.65 62.2361L1003.19 64.026C833.374 78.9333 792.083 104.231 795.852 137.596C797.672 153.764 809.998 171.955 823.432 191.78C873.673 265.944 939.255 362.72 540.097 467.989C315.144 527.312 184.893 596.91 110.018 653.901L108.071 652.527C183.27 595.291 313.889 525.499 539.149 466.096C935.419 361.595 870.614 265.955 820.959 192.675C807.401 172.667 794.963 154.31 793.098 137.757C789.234 103.425 830.591 77.4212 1000.65 62.2361ZM989.621 54.4555L992.162 56.2479C819.927 71.4835 778.944 97.851 782.853 132.639C784.687 148.939 796.319 167.211 808.952 187.055C857.089 262.662 919.613 360.868 521.143 465.951C297.657 524.884 169.394 590.762 96.1768 644.135L94.2418 642.77C167.784 589.146 296.428 523.073 520.2 464.054C915.845 359.717 854.04 262.64 806.455 187.899C793.714 167.886 781.982 149.458 780.104 132.793C776.078 97.0494 817.125 69.9704 989.618 54.453L989.621 54.4555ZM978.595 46.6761L981.135 48.4685C806.393 64.0434 765.747 91.5346 769.828 127.793C771.675 144.192 782.614 162.507 794.453 182.328C840.485 259.383 899.994 359.004 502.202 463.903C280.268 522.432 154.013 584.635 82.4152 634.427L80.4976 633.074C152.425 583.024 279.047 520.609 501.251 462.012C896.288 357.837 837.441 259.326 791.918 183.133C779.99 163.152 768.968 144.696 767.083 127.947C762.892 90.7304 803.586 62.5316 978.595 46.6761ZM967.57 38.898L970.109 40.6892C792.77 56.6093 752.518 85.2758 756.773 123.072C758.628 139.538 768.885 157.855 779.927 177.602C823.857 256.101 880.393 357.134 483.248 461.865C263.016 519.943 138.747 578.52 68.723 624.767L66.8141 623.42C137.177 576.91 261.815 518.11 482.295 459.968C876.746 355.952 820.824 256.013 777.374 178.365C766.239 158.47 755.912 140.021 754.027 123.229C749.663 84.4766 789.954 55.1102 967.578 38.9041L967.57 38.898ZM956.545 31.1199L959.075 32.905C779.028 49.1978 739.25 79.0898 743.685 118.489C745.543 134.994 755.099 153.253 765.371 172.883C807.201 252.825 860.803 355.26 464.297 459.824C245.946 517.411 123.612 572.422 55.1072 615.161L53.2156 613.826C122.07 570.812 244.775 515.57 463.351 457.929C857.226 354.056 804.191 252.702 762.799 173.601C752.452 153.831 742.829 135.437 740.935 118.647C736.397 78.2942 776.227 47.6948 956.545 31.1199ZM945.518 23.3405L948.055 25.1305C765.189 41.7863 725.94 72.9789 730.564 114.057C732.42 130.533 741.288 148.707 750.796 168.169C790.544 249.552 841.238 353.376 445.345 457.779C229.058 514.819 108.623 566.337 41.5712 605.611L39.7074 604.296C107.119 564.729 227.936 512.972 444.402 455.887C837.719 352.168 787.53 249.39 748.194 168.841C738.632 149.258 729.704 130.979 727.822 114.208C723.085 72.1871 762.382 40.2945 945.518 23.3405ZM934.492 15.5612L937.036 17.356C751.217 34.4086 712.595 66.958 717.418 109.791C719.26 126.219 727.457 144.229 736.205 163.464C773.848 246.269 821.692 351.497 426.399 455.74C212.333 512.19 93.8173 560.284 28.1636 596.152L26.3345 594.861C92.359 558.679 211.243 510.335 425.452 453.846C818.228 350.268 770.857 246.081 733.576 164.086C724.78 144.739 716.54 126.618 714.662 109.94C709.735 66.165 748.411 32.9093 934.492 15.5612ZM923.465 7.78184L925.997 9.56813C737.096 27.0252 699.189 61.0162 704.218 105.693C706.055 122.002 713.572 139.806 721.57 158.749C757.142 242.994 802.159 349.608 407.457 453.692C195.834 509.504 79.2026 554.25 14.8723 586.775L13.09 585.517C77.8074 552.651 194.821 507.633 406.503 451.804C798.752 348.364 754.166 242.771 718.934 159.334C710.887 140.285 703.333 122.387 701.47 105.85C696.336 60.2356 734.311 25.5456 923.465 7.78184ZM912.435 3.77926e-05L914.967 1.78633C722.824 19.6672 685.744 55.1857 690.994 101.802C692.809 117.93 699.661 135.457 706.931 154.038C740.427 239.712 782.651 347.713 388.506 451.654C179.625 506.741 64.8098 548.242 1.71109 577.489L0 576.282C63.5016 546.65 178.688 504.842 387.554 449.762C779.281 346.461 737.456 239.465 704.273 154.59C696.971 135.914 690.085 118.3 688.249 101.959C682.893 54.4088 720.036 18.1851 912.435 3.77926e-05ZM291.076 781.638C390.268 675.837 548.376 555.169 785.498 492.634C1053.45 421.974 1097.79 364.905 1074.85 318.814C1062.93 294.87 1032.84 273.743 1006.47 255.229C982.21 238.194 961.059 223.346 959.574 210.151C957.339 190.274 999.872 174.946 1144 163.36L1146.54 165.156C1002.66 176.498 960.194 191.139 962.318 210.001C963.716 222.428 984.516 237.032 1008.38 253.784C1034.96 272.449 1065.29 293.746 1077.44 318.128C1100.88 365.238 1056.48 423.321 786.451 494.526C549.756 556.95 391.998 677.46 293.081 783.052L291.076 781.638Z" fill="#22BECA"/>
</svg>
