<svg width="491" height="706" viewBox="0 0 491 706" fill="none" xmlns="http://www.w3.org/2000/svg">
<path d="M479.952 -17.2632L481.997 -15.9833C357.542 18.032 320.443 39.1485 321.053 57.3435C321.444 69.1327 337.649 79.999 356.152 92.409C376.277 105.908 399.093 121.209 407.674 141.805C424.983 183.346 384.432 245.92 147.532 357.015C-57.1017 452.984 -196.853 587.035 -285.853 697.978L-287.461 696.971C-198.214 585.789 -58.1553 451.531 146.855 355.389C381.94 245.144 422.382 183.534 405.436 142.86C397.003 122.622 374.368 107.442 354.403 94.0499C335.597 81.438 319.127 70.3918 318.713 57.9287C318.075 38.797 355.28 17.027 479.956 -17.2606M471.093 -22.8078L473.137 -21.5288C347.18 12.9941 310.031 34.7437 310.661 53.8112C311.065 65.9356 326.742 77.2552 344.553 90.1375C363.452 103.794 384.739 119.177 393.159 139.384C410.927 182.028 371.411 245.64 131.565 358.118C-72.5255 453.826 -210.165 583.764 -297.265 690.835L-298.87 689.831C-211.516 582.524 -73.5703 452.369 130.886 356.487C368.915 244.861 408.328 182.213 390.92 140.434C382.642 120.564 361.515 105.306 342.76 91.7436C324.663 78.666 308.748 67.1636 308.321 54.3895C307.656 34.3971 344.917 11.9883 471.093 -22.8078ZM462.231 -28.355L464.277 -27.0743C336.79 7.96291 299.586 30.3709 300.252 50.3261C300.669 62.7715 315.794 74.5437 332.919 87.8685C350.612 101.633 370.413 117.038 378.657 136.822C396.9 180.607 358.523 245.295 115.601 359.212C-87.9112 454.651 -223.447 580.494 -308.664 683.7L-310.268 682.696C-224.801 579.243 -88.9517 453.192 114.919 357.584C356.009 244.522 394.299 180.798 376.413 137.876C368.306 118.414 348.645 103.118 331.078 89.4517C313.697 75.9282 298.343 63.9841 297.908 50.9087C297.213 30.0274 334.515 6.95945 462.238 -28.3506L462.231 -28.355ZM453.368 -33.9022L455.414 -32.6215C326.363 2.94388 289.119 26.03 289.814 46.9058C290.239 59.672 304.811 71.8693 321.238 85.6202C337.742 99.4377 356.109 114.811 364.156 134.127C382.893 179.089 345.757 244.888 99.6339 360.309C-103.262 455.457 -236.709 577.217 -320.049 676.575L-321.654 675.57C-238.057 575.967 -104.295 453.996 98.9522 358.68C343.237 244.121 380.292 179.284 361.915 135.181C353.989 116.157 335.756 100.89 319.36 87.1705C302.696 73.2215 287.916 60.8482 287.471 47.4869C286.746 25.6889 324.076 1.94507 453.368 -33.9022ZM444.506 -39.4486L446.552 -38.1678C315.893 -2.06095 278.626 21.7245 279.352 43.5498C279.787 56.6206 293.794 69.229 309.52 83.3864C324.862 97.201 341.827 112.473 349.665 131.281C368.905 177.461 333.14 244.414 83.6654 361.407C-118.571 456.246 -249.942 573.94 -331.423 669.456L-333.022 668.455C-251.279 572.688 -119.597 454.78 82.981 359.777C330.609 243.649 366.304 177.658 347.419 132.333C339.694 113.792 322.842 98.622 307.6 84.9013C291.653 70.5452 277.46 57.7655 277.005 44.1307C276.252 21.3881 313.61 -3.05948 444.506 -39.4486ZM435.645 -44.9949L437.688 -43.7159C305.381 -7.05392 268.106 17.4553 268.865 40.2613C269.31 53.6203 282.746 66.6286 297.764 81.1647C311.962 94.9086 327.567 110.015 335.172 128.269C354.941 175.709 320.686 243.86 67.697 362.503C-133.837 457.012 -263.139 570.662 -342.782 662.346L-344.378 661.347C-264.478 569.41 -134.854 455.542 67.0153 360.874C318.149 243.104 352.344 175.914 332.93 129.322C325.427 111.316 309.922 96.3048 295.813 82.6455C280.593 67.9137 266.986 54.7414 266.521 40.8417C265.734 17.1221 303.101 -8.04837 435.645 -44.9949ZM426.783 -50.5412L428.828 -49.2614C294.828 -12.0318 257.559 13.2216 258.356 37.0428C258.809 50.6744 271.66 64.0529 285.978 78.9559C299.049 92.5624 313.331 107.429 320.686 125.077C340.998 173.827 308.421 243.223 51.7256 363.601C-149.047 457.756 -276.304 567.379 -354.118 655.251L-355.713 654.253C-277.637 566.129 -150.06 456.284 51.0467 361.975C305.87 242.474 338.401 174.039 318.44 126.134C311.183 108.715 296.982 93.935 283.985 80.4059C269.485 65.3147 256.478 51.774 256.009 37.6284C255.188 12.8939 292.55 -13.0254 426.783 -50.5412ZM417.922 -56.0876L419.964 -54.8095C284.225 -16.996 246.988 9.03053 247.818 33.8993C248.278 47.7863 260.546 61.5186 274.159 76.7572C286.122 90.1485 299.114 104.695 306.194 121.683C327.08 171.786 296.365 242.486 35.7615 364.697C-164.206 458.474 -289.434 564.097 -365.437 648.167L-367.025 647.173C-290.759 562.84 -165.213 456.999 35.0868 363.073C293.812 241.743 324.487 172.01 303.957 122.739C296.971 105.974 284.041 91.4999 272.138 78.1749C258.366 62.7584 245.958 48.8663 245.474 34.4898C244.616 8.70424 281.949 -17.9856 417.922 -56.0876ZM409.059 -61.6348L411.101 -60.3567C273.572 -21.9435 236.387 4.8801 237.25 30.8353C237.721 44.9655 249.395 59.0262 262.304 74.5715C273.179 87.6712 284.922 101.816 291.7 118.056C313.17 169.581 284.549 241.637 19.8005 365.788C-179.325 459.172 -302.502 560.813 -376.715 641.108L-378.297 640.118C-303.809 559.565 -180.316 457.697 19.1197 364.17C281.986 240.897 310.579 169.808 289.456 119.119C282.765 103.058 271.08 88.9833 260.258 75.9526C247.205 60.2311 235.399 46.0113 234.914 31.4209C234.016 4.55941 271.299 -22.9313 409.059 -61.6348ZM400.196 -67.182L402.238 -65.9039C262.866 -26.8736 225.754 0.774153 226.656 27.855C227.134 42.2072 238.215 56.573 250.422 72.398C260.225 85.1084 270.746 98.7511 277.179 114.186C299.262 167.188 273.022 240.65 3.82746 366.89C-194.38 459.841 -315.526 557.525 -387.98 634.058L-389.557 633.07C-316.826 556.27 -195.371 458.361 3.14716 365.263C270.437 239.916 296.677 167.41 274.938 115.238C268.575 99.9673 258.098 86.386 248.335 73.7412C235.998 57.7465 224.799 43.228 224.308 28.4429C223.381 0.45486 260.595 -27.8605 400.196 -67.182ZM391.333 -72.7292L393.374 -71.452C252.103 -31.7875 215.09 -3.28658 216.033 24.9621C216.518 39.5168 226.997 54.1552 238.51 70.2317C247.254 82.4466 256.589 95.4855 262.64 110.009C285.369 164.556 261.831 239.506 -12.1397 367.989C-209.357 460.475 -328.495 554.237 -399.21 627.029L-400.783 626.044C-329.791 552.983 -210.333 458.985 -12.8213 366.361C259.231 238.78 282.784 164.785 260.398 111.062C254.402 96.6703 245.111 83.6928 236.404 71.5325C224.78 55.2953 214.188 40.5021 213.693 25.5427C212.72 -3.59949 249.837 -32.7709 391.333 -72.7292ZM382.47 -78.2764L384.508 -77.0009C241.278 -36.6799 204.401 -7.29151 205.379 22.1642C205.871 36.8857 215.759 51.7827 226.574 68.0724C234.267 79.6601 242.425 91.9506 248.064 105.481C271.468 161.652 251.057 238.169 -28.108 369.085C-224.254 461.069 -341.407 550.943 -410.408 620.02L-411.977 619.038C-342.694 549.688 -225.218 459.574 -28.7883 367.458C248.439 237.451 268.885 161.889 245.821 106.535C240.245 93.1569 232.106 80.8973 224.439 69.3424C213.522 52.898 203.538 37.8647 203.042 22.7419C202.028 -7.60381 239.015 -37.6639 382.47 -78.2764ZM373.604 -83.8254L375.644 -82.549C230.396 -41.5585 193.668 -11.252 194.702 19.4596C195.197 34.3429 204.488 49.4537 214.612 65.9229C252.478 127.533 301.907 207.925 -44.0751 370.182C-239.06 461.621 -354.249 547.645 -421.571 613.033L-423.136 612.054C-355.524 546.384 -240.008 460.12 -44.7569 368.556C298.721 207.479 249.878 128.03 212.453 67.1562C202.235 50.5353 192.86 35.2858 192.352 20.048C191.301 -11.5562 228.129 -42.5349 373.604 -83.8254ZM364.74 -89.3735L366.782 -88.0954C219.455 -46.4115 182.92 -15.1507 183.98 16.8746C184.478 31.8793 193.174 47.1771 202.617 63.7906C238.601 127.09 285.339 209.309 -60.0466 371.283C-253.759 462.123 -367.018 544.341 -432.696 606.07L-434.251 605.097C-368.281 543.079 -254.685 460.619 -60.7238 369.652C282.212 208.829 236.011 127.555 200.441 64.9801C190.917 48.225 182.146 32.797 181.634 17.4564C180.538 -15.4473 217.173 -47.3859 364.737 -89.3752L364.74 -89.3735ZM355.877 -94.9207L357.919 -93.6426C208.439 -51.2416 172.118 -18.9799 173.229 14.3979C173.731 29.4939 181.835 44.9422 190.606 61.6602C224.707 126.653 268.791 210.68 -76.0061 372.372C-268.374 462.587 -379.688 541.036 -443.757 599.147L-445.298 598.182C-380.933 539.777 -269.293 461.07 -76.6909 370.749C265.718 210.174 222.124 127.084 188.399 62.8188C179.564 45.9642 171.399 30.3968 170.886 14.9791C169.745 -19.2806 206.153 -52.214 355.877 -94.9207ZM347.016 -100.467L349.056 -99.1898C197.349 -56.0521 161.285 -22.7499 162.443 12.0433C162.949 27.2009 170.473 42.7593 178.571 59.5345C210.792 126.217 252.259 212.042 -91.9776 373.473C-282.87 462.994 -392.261 537.725 -454.762 592.259L-456.297 591.298C-393.491 536.463 -283.771 461.465 -92.6636 371.844C249.237 211.512 208.221 126.617 176.352 60.6565C168.185 43.7569 160.61 28.0855 160.1 12.6268C158.911 -23.0459 195.053 -57.0112 347.023 -100.463L347.016 -100.467ZM338.154 -106.013L340.188 -104.74C186.155 -60.8223 150.415 -26.4456 151.621 9.82374C152.127 25.0171 159.06 40.6327 166.511 57.421C196.854 125.791 235.737 213.398 -107.946 374.571C-297.209 463.332 -404.724 534.409 -465.706 585.409L-467.227 584.457C-405.929 533.143 -298.083 461.791 -108.626 372.943C232.776 212.837 194.305 126.154 164.279 58.5041C156.773 41.5955 149.793 25.8638 149.274 10.4093C148.042 -26.7385 183.872 -61.7874 338.154 -106.013ZM329.291 -111.561L331.331 -110.284C174.878 -65.5771 139.503 -30.064 140.762 7.75003C141.267 22.917 147.621 38.5619 154.434 55.3141C182.915 125.368 219.236 214.741 -123.916 375.666C-311.389 463.586 -417.063 531.082 -476.586 578.599L-478.084 577.662C-418.237 529.812 -312.222 462.03 -124.593 374.04C216.325 214.166 180.364 125.695 152.179 56.3591C145.328 39.5017 138.931 23.7675 138.422 8.32828C137.129 -30.353 172.591 -66.5309 329.291 -111.561ZM320.428 -117.108L322.473 -115.828C163.487 -70.2792 128.556 -33.5923 129.869 5.83724C130.366 20.9609 136.16 36.5588 142.342 53.2194C168.942 124.942 202.752 216.085 -139.88 376.764C-325.428 463.777 -429.249 527.755 -487.363 571.854L-488.833 570.934C-430.384 526.481 -326.234 462.209 -140.562 375.138C199.888 215.482 166.413 125.241 140.068 54.2211C133.853 37.4634 128.029 21.7678 127.518 6.41547C126.178 -33.8817 161.2 -71.24 320.428 -117.108ZM311.566 -122.655L313.601 -121.381C151.969 -74.9628 117.553 -37.0368 118.92 4.08999C119.421 19.1035 124.651 34.616 130.215 51.1215C154.961 124.524 186.278 217.418 -155.841 377.855C-339.272 463.88 -441.274 524.417 -498.046 565.168L-499.479 564.271C-442.356 523.138 -340.011 462.285 -156.529 376.235C183.464 216.792 152.447 124.788 127.936 52.0895C122.338 35.4931 117.083 19.8979 116.576 4.67498C115.179 -37.3157 149.699 -75.9085 311.566 -122.655ZM302.7 -128.204L304.735 -126.93C140.322 -79.5986 106.508 -40.3706 107.938 2.54177C108.432 17.3885 113.114 32.7468 118.083 49.028C140.972 124.102 169.826 218.742 -171.81 378.955C-352.864 463.864 -453.112 521.066 -508.625 558.547L-510 557.686C-454.121 519.781 -353.536 462.232 -172.496 377.331C167.045 218.102 138.464 124.343 115.788 49.9692C110.799 33.6035 106.093 18.1681 105.596 3.12527C104.136 -40.6462 138.049 -80.546 302.7 -128.204ZM-276.041 704.119C-184.886 589.059 -42.7081 450.678 162.825 354.29C395.081 245.373 436.464 184.767 419.967 145.161C411.394 124.586 387.205 109.544 366.003 96.3626C346.499 84.2335 329.494 73.6619 329.089 61.5158C328.482 43.2177 365.616 22.0701 488.822 -11.7186L490.869 -10.4379C367.881 23.0837 330.852 43.5756 331.43 60.9384C331.81 72.3787 348.533 82.7763 367.716 94.7037C389.089 107.992 413.475 123.155 422.215 144.104C439.065 184.589 397.565 246.156 163.511 355.914C-41.6516 452.13 -183.522 590.306 -274.43 705.127L-276.041 704.119Z" fill="#22BECA"/>
</svg>
