<svg width="1902" height="713" viewBox="0 0 1902 713" fill="none" xmlns="http://www.w3.org/2000/svg">
<path opacity="0.25" d="M-267.668 1131.36L-266.686 1131.21C-233.543 1093.93 -201.312 1056.07 -169.23 1018.34C-63.3135 893.769 41.4155 770.55 175.32 675.345C483.94 455.845 947.67 385.42 1937.89 790.687L1938.99 790.517C947.888 384.803 483.762 455.326 174.712 675.038C40.7571 770.287 -64.0295 893.515 -169.93 1018.15C-202.103 1056.01 -234.426 1094 -267.668 1131.36ZM-301.821 1136.64L-300.781 1136.48C-257.739 1092.24 -216.049 1046.79 -174.352 1001.37C-58.7189 875.34 56.5245 749.695 199.122 651.944C533.643 422.72 1019.06 346.939 2013.89 778.984L2014.99 778.815C1019.34 346.313 533.456 422.166 198.579 651.664C55.8744 749.467 -59.369 875.112 -175.052 1001.19C-216.849 1046.69 -258.679 1092.31 -301.821 1136.64ZM-342.1 1142.86L-341.002 1142.69C-287.146 1091.82 -235.042 1038.78 -182.789 985.614C-56.7585 857.428 69.8869 728.527 222.747 627.769C584.435 389.39 1092.97 308.726 2086.35 767.756L2087.39 767.595C1093.24 308.065 584.248 388.836 222.204 627.488C69.2947 728.29 -57.4086 857.2 -183.431 985.422C-235.842 1038.69 -288.095 1091.86 -342.1 1142.86ZM-388.446 1150.02L-387.348 1149.85C-322.031 1092.84 -258.663 1032.26 -194.847 971.289C-57.4816 840.076 81.9413 706.867 246.856 602.571C637.034 355.854 1169.93 271.027 2155.18 757.125L2156.22 756.964C1170.2 270.401 636.848 355.299 246.371 602.281C81.4068 706.622 -58.074 839.839 -195.489 971.097C-259.454 1032.2 -322.98 1092.87 -388.446 1150.02ZM-422.058 1142.7L-421.914 1143.34C-351.004 1084.88 -281.37 1022.13 -210.907 958.567C-60.8891 823.284 93.1017 684.435 272.427 575.907C691.945 321.961 1250.25 234.192 2220.3 747.065L2221.29 746.913C1250.53 233.566 691.825 321.432 271.876 575.591C92.5012 684.163 -61.5392 823.057 -211.557 958.339C-281.871 1021.77 -351.298 1084.38 -422.058 1142.7ZM-428.992 1112.27L-428.847 1112.91C-363.32 1060.49 -297.994 1004.58 -231.614 947.765C-67.361 807.221 103.616 661.009 300.261 547.363C749.862 287.603 1334.24 198.469 2281.44 737.586L2282.42 737.434C1334.58 197.87 749.807 287.101 299.776 547.074C103.016 660.737 -67.9532 806.985 -232.206 947.528C-298.494 1004.22 -363.68 1059.97 -428.992 1112.27ZM-435.941 1081.77L-435.797 1082.41C-377.166 1036.75 -317.991 988.487 -257.598 939.273C-77.0964 792.063 113.851 636.35 331.613 516.671C811.632 252.832 1422.12 164.333 2338.54 728.802L2339.46 728.659C1422.45 163.698 811.503 252.269 331.063 516.355C113.25 636.078 -77.6966 791.792 -258.248 939.045C-318.434 988.118 -377.46 1036.25 -435.941 1081.77ZM-442.907 1051.2L-442.763 1051.84C-392.725 1013.89 -341.843 974.124 -289.834 933.533C-90.8061 778.103 124.11 610.228 367.527 483.415C878.049 217.453 1513.89 132.074 2391.3 720.653L2392.22 720.51C1514.28 131.43 877.921 216.89 367.026 483.055C123.56 609.912 -91.4146 777.796 -290.434 933.262C-342.294 973.72 -393.027 1013.35 -442.907 1051.2ZM-449.889 1020.56L-449.745 1021.2C-410.427 992.119 -370.278 961.964 -329.316 931.174C-109.335 765.834 134.661 582.494 409.437 447.337C949.782 181.509 1609.32 102.203 2439.44 713.217L2440.36 713.074C1609.71 101.559 949.719 180.972 408.994 446.968C134.168 582.169 -109.877 765.554 -329.916 930.902C-370.728 961.56 -410.729 991.582 -449.889 1020.56ZM-456.887 989.853L-456.751 990.451C-430.81 971.715 -404.486 952.555 -377.633 933.095C-134.306 756.275 145.362 553.06 458.616 408.241C1023.81 146.995 1698.53 75.992 2466.7 693.439L2466.46 692.382C1698.28 75.4464 1023.54 146.564 458.181 407.907C144.869 552.735 -134.848 755.994 -378.234 932.823C-404.929 952.186 -431.095 971.249 -456.887 989.853ZM-463.893 959.106L-463.756 959.705C-454.842 953.406 -445.871 947.099 -436.857 940.712C-168.351 750.997 155.71 522.076 516.341 366.22C1094.17 116.55 1766.17 54.643 2455 642.089L2454.75 640.998C1765.92 54.0973 1093.83 116.128 515.956 365.842C155.209 521.716 -168.844 750.672 -437.4 940.431C-446.322 946.694 -455.136 952.905 -463.893 959.106ZM-470.915 928.29L-470.778 928.888C-182.634 729.797 182.601 482.302 583.867 321.264C1169.08 86.4216 1831.03 35.546 2442.45 587.007L2442.18 585.845C1830.67 35.0182 1168.74 85.9994 583.482 320.886C182.323 481.871 -182.762 729.233 -470.915 928.29ZM-477.945 897.438L-477.808 898.037C-173.041 691.82 228.902 433.989 662.163 273.696C1248.14 56.8925 1891.35 18.5722 2428.89 527.522L2428.62 526.324C1890.99 18.0444 1247.8 56.4703 661.77 273.282C228.624 433.557 -173.178 691.221 -477.945 897.438ZM-484.991 866.516L-484.854 867.114C-131.1 632.513 367.165 331.658 883.192 182.789C1422.29 27.2584 1980.78 37.7173 2414.14 462.789L2413.86 461.556C1980.36 37.1632 1421.95 26.8363 882.972 182.349C366.945 331.218 -131.228 631.949 -484.991 866.516ZM-492.045 835.558L-491.909 836.157C-130.497 601.029 395.044 299.898 927.186 151.129C1464.9 0.807048 2009.36 6.14128 2398.13 392.527L2397.84 391.259C2008.93 5.5872 1464.56 0.384907 926.908 150.698C394.816 299.423 -130.567 600.456 -492.045 835.558ZM-499.107 804.565L-498.979 805.129C-130.845 570.093 420.193 269.544 967.173 120.525C1180.42 62.4297 1393.06 27.3618 1593.95 28.1961C1794.85 29.0304 1984 65.7669 2150.35 151.271C2233.35 193.94 2310.69 248.751 2380.99 317.299L2380.71 316.066C2310.62 247.923 2233.59 193.394 2150.92 150.892C1984.44 65.3344 1795.11 28.5894 1594.09 27.7377C1393.07 26.8861 1180.32 61.9718 966.961 120.12C420.03 269.096 -130.916 569.52 -499.107 804.565ZM-506.177 773.537L-506.049 774.101C-112.596 527.315 503.536 208.947 1091.39 68.6356C1293.03 20.5001 1491.37 -6.67251 1676.26 -2.81954C1861.09 1.04238 2032.54 35.921 2180.38 111.888C2246.25 145.792 2307.46 187.818 2363.13 238.937L2362.86 237.739C2307.45 187.016 2246.48 145.21 2180.89 111.517C2032.98 35.4884 1861.4 0.55726 1676.4 -3.27787C1491.38 -7.14823 1292.98 20.0333 1091.22 68.1867C503.374 208.498 -112.609 526.734 -506.177 773.537ZM-513.255 742.474L-513.127 743.038C-226.575 566.358 184.743 353.345 616.409 194.976C938.93 76.6528 1272.82 -11.1971 1574.35 -30.5367C1875.87 -49.8763 2145.08 -0.749623 2338.45 154.774C2340.72 156.611 2343 158.447 2345.22 160.328L2344.98 159.271C2343 157.681 2341.08 156.082 2339.11 154.491C2145.59 -1.15586 1876.13 -50.3173 1574.38 -30.942C1272.68 -11.5756 938.726 76.2832 616.031 194.633C184.523 352.905 -226.695 565.83 -513.255 742.474ZM-520.341 711.376L-520.213 711.939C-213.313 525.846 244.025 299.782 715.02 139.421C1035.74 30.2716 1362.8 -48.465 1652.96 -63.3154C1920.6 -77.019 2156.87 -36.4405 2327.97 84.6068L2327.75 83.6559C2156.55 -37.0477 1920.42 -77.5384 1653.02 -63.8352C1362.69 -48.958 1035.57 29.7522 714.742 138.99C243.798 299.306 -213.376 525.309 -520.341 711.376ZM-527.436 680.242L-527.307 680.805C-199.382 485.121 308.029 245.671 819.111 84.5508C1136.24 -15.4389 1454.79 -85.2788 1732.72 -95.8321C1960.89 -104.461 2161.73 -73.1392 2311.95 14.3096L2311.76 13.4995C2161.49 -73.6848 1960.77 -104.954 1732.73 -96.3078C1454.68 -85.7719 1136.01 -15.9141 818.833 84.1198C307.867 245.222 -199.444 484.584 -527.436 680.242ZM-534.53 649.108L-534.401 649.672C-185.195 444.466 375.826 191.667 926.724 30.9597C1238.78 -60.0435 1547.52 -121.478 1812.67 -127.979C2001.07 -132.616 2167.51 -109.47 2297.42 -49.4369L2297.25 -50.1766C2167.32 -110.024 2000.96 -133.109 1812.67 -128.49C1547.41 -121.971 1238.55 -60.5187 926.446 30.5286C375.656 191.183 -185.2 443.92 -534.53 649.108ZM1859.7 802.764C878.621 423.429 434.893 488.432 150.278 698.026C23.95 791.039 -71.0114 912.494 -167.677 1036.18C-191.349 1066.45 -215.112 1096.85 -239.467 1127.01L-238.485 1126.85C-214.221 1096.82 -190.557 1066.51 -166.92 1036.36C-70.2455 912.704 24.7157 791.249 150.936 698.289C435.245 488.924 878.518 424.029 1858.6 802.934L1859.7 802.764Z" fill="#22BECA"/>
</svg>
