<svg width="61" height="59" viewBox="0 0 61 59" fill="none" xmlns="http://www.w3.org/2000/svg">
<circle cx="39.5" cy="21.5" r="21.5" fill="#E2E5FF"/>
<path d="M26.2546 39.3155C23.0855 39.3155 19.9164 39.3155 16.7499 39.3155C15.8302 39.3155 15.7309 39.2136 15.7283 38.3067C15.7283 35.6496 15.7232 32.9926 15.7283 30.3356C15.7334 27.5002 17.5625 25.6176 20.3979 25.5972C24.3134 25.5692 28.2314 25.5717 32.1469 25.5972C34.9798 25.6151 36.8216 27.4875 36.8343 30.3228C36.8471 33.0181 36.8394 35.7159 36.8369 38.4111C36.8369 39.1677 36.6917 39.3129 35.9376 39.3129C32.7099 39.318 29.4823 39.3155 26.2546 39.3155Z" fill="#5B65CD"/>
<path d="M7.2553 52.4071C7.0999 52.053 6.97253 51.7473 6.83242 51.4493C6.193 50.0864 5.23514 48.9858 4.08112 48.0254C3.2379 47.3223 2.36921 46.6192 1.66865 45.7836C0.519726 44.4182 -0.00505826 42.7852 3.67322e-05 40.9791C0.0204167 35.209 0.0204167 29.4364 0.0306067 23.6663C0.0331542 22.3441 1.06998 21.4016 2.36921 21.5238C3.25828 21.6079 3.96649 22.2805 4.04291 23.1568C4.3588 26.8048 4.80971 30.4503 4.90651 34.1059C4.94727 35.6573 5.40837 36.9693 5.92806 38.3297C6.50379 39.8352 7.105 41.3332 7.69347 42.8336C7.75206 42.9788 7.76735 43.1826 7.87689 43.2616C8.07559 43.4068 8.40422 43.6234 8.53924 43.552C8.7303 43.4501 8.91882 43.096 8.89079 42.8769C8.8373 42.4795 8.6284 42.1 8.4781 41.7153C7.70366 39.7384 6.92667 37.7616 6.14969 35.7847C5.91787 35.1937 6.00448 34.6536 6.45794 34.2104C6.91394 33.7646 7.49986 33.5506 8.07814 33.841C8.44498 34.0244 8.80418 34.3963 8.97231 34.7734C9.50219 35.9554 9.94546 37.1782 10.4167 38.3883C11.074 40.0823 12.121 41.4809 13.568 42.5814C15.8225 44.2959 16.6632 45.506 17.5523 48.3566C14.1488 49.694 10.7403 51.0366 7.2553 52.4071Z" fill="#5B65CD"/>
<path d="M44.3288 52.4021C40.8643 51.0392 37.4659 49.7018 34.0344 48.3542C34.684 46.2932 35.5247 44.3852 37.313 43.1293C39.3409 41.7052 40.7216 39.8481 41.5139 37.5171C41.8298 36.5873 42.2195 35.6829 42.5864 34.7709C42.9481 33.8742 43.7327 33.515 44.581 33.8487C45.4166 34.1774 45.7478 34.9875 45.3937 35.8918C44.5581 38.0343 43.7124 40.1716 42.8717 42.3141C42.7927 42.5153 42.645 42.7318 42.673 42.9204C42.7086 43.1547 42.8462 43.4604 43.0296 43.5547C43.1697 43.626 43.478 43.4502 43.6665 43.3229C43.776 43.249 43.8066 43.0503 43.8652 42.9051C44.7212 40.7295 45.6051 38.5616 46.4152 36.3682C46.6089 35.8434 46.5706 35.2269 46.6139 34.6537C46.6674 33.9481 46.6827 33.2399 46.7439 32.5368C47.0012 29.4772 47.2712 26.4177 47.526 23.3581C47.6202 22.2322 48.3361 21.529 49.4264 21.5239C50.5091 21.5189 51.4389 22.3188 51.5434 23.3556C51.5586 23.511 51.551 23.6715 51.5535 23.8269C51.5637 29.5562 51.5663 35.2855 51.5841 41.0174C51.5867 42.1816 51.3574 43.2923 50.8326 44.3215C50.5702 44.8361 50.2212 45.3328 49.8187 45.7455C48.8557 46.7314 47.8418 47.6663 46.8407 48.6115C45.8675 49.5286 45.1058 50.5909 44.5887 51.8264C44.5123 51.9996 44.4307 52.1729 44.3288 52.4021Z" fill="#5B65CD"/>
<path d="M32.7964 17.5344C32.7888 21.1595 29.854 24.0942 26.2621 24.0636C22.6446 24.0356 19.7507 21.1111 19.7583 17.4936C19.766 13.9017 22.7211 10.9822 26.3309 11.0001C29.9126 11.0179 32.804 13.9399 32.7964 17.5344Z" fill="#5B65CD"/>
<path d="M7.97362 58.9999C7.47686 57.7236 6.96991 56.511 6.53684 55.2704C6.26935 54.5087 6.64638 53.8769 7.46412 53.5534C10.4625 52.3688 13.4635 51.1918 16.4619 50.0123C17.1013 49.7601 17.7382 49.4978 18.3852 49.2659C19.1367 48.9959 19.822 49.2226 20.1303 49.9181C20.7187 51.2453 21.2537 52.5955 21.8371 53.9992C17.2159 55.6652 12.6355 57.3186 7.97362 58.9999Z" fill="#5B65CD"/>
<path d="M43.6081 58.9923C38.9564 57.316 34.376 55.6652 29.7446 53.9941C30.3356 52.5777 30.8706 51.2071 31.4769 49.8697C31.8005 49.1589 32.5087 48.9831 33.3595 49.3169C36.1057 50.3919 38.8468 51.4746 41.5905 52.5522C42.4694 52.8986 43.3533 53.2247 44.222 53.5916C44.9736 53.91 45.3047 54.5749 45.0372 55.3239C44.5991 56.5416 44.0998 57.7389 43.6081 58.9923Z" fill="#5B65CD"/>
</svg>
