<svg width="101" height="101" viewBox="0 0 101 101" fill="none" xmlns="http://www.w3.org/2000/svg">
<circle cx="50.5" cy="50.5" r="49" fill="#22BECA" stroke="white" stroke-width="3"/>
<g clip-path="url(#clip0_559_66312)">
<path d="M42.8089 31.358C48.9164 31.358 55.0239 31.358 61.1314 31.358C62.7956 31.358 64.1043 32.6336 64.0882 34.1962C64.0882 34.85 63.7812 35.2167 63.1995 35.2645C62.5694 35.3124 62.1977 35.0253 62.0685 34.3716C61.9069 33.5584 61.6322 33.3511 60.6466 33.3511C53.3435 33.3511 46.0565 33.3511 38.7534 33.3511C34.1323 33.3511 29.5275 33.3511 24.9065 33.3511C23.727 33.3511 23.4361 33.6381 23.4361 34.8021C23.4361 41.0525 23.4523 47.2869 23.42 53.5373C23.42 54.1592 23.6139 54.2867 24.2117 54.2867C31.2725 54.2708 38.3171 54.2708 45.3779 54.2708C46.2989 54.2708 46.719 54.6375 46.6543 55.371C46.6059 55.8812 46.3312 56.1842 45.8303 56.2479C45.5879 56.2798 45.3456 56.2639 45.1032 56.2639C38.1555 56.2639 31.1917 56.2639 24.244 56.2639C23.4361 56.2639 23.4361 56.2639 23.4361 57.0452C23.4361 58.2251 23.4361 59.3891 23.4361 60.569C23.4361 61.6054 23.7593 61.9084 24.8257 61.9084C31.5148 61.9084 38.204 61.9084 44.8932 61.9084C45.0871 61.9084 45.2971 61.9084 45.491 61.9084C46.2827 61.9243 46.6382 62.2273 46.6543 62.8969C46.6543 63.5666 46.2989 63.9015 45.5233 63.9015C43.9722 63.9174 42.4211 63.9015 40.87 63.9015C40.6922 63.9015 40.5145 63.9174 40.3206 63.9015C40.0136 63.8855 39.9005 64.0131 39.8682 64.316C39.7228 65.3365 39.335 66.2613 38.7695 67.1223C38.6887 67.2499 38.4948 67.3774 38.5756 67.5369C38.6726 67.7282 38.8988 67.6326 39.0765 67.6326C41.2254 67.6326 43.3905 67.6326 45.5395 67.6326C46.2019 67.6326 46.5574 67.9036 46.6382 68.4139C46.7513 69.0995 46.3312 69.6097 45.5879 69.6097C43.9722 69.6257 42.3565 69.6097 40.7569 69.6097C38.5595 69.6097 36.3621 69.6097 34.1647 69.6097C33.3891 69.6097 33.0013 69.227 33.0336 68.5414C33.0659 68.0152 33.3568 67.6963 33.89 67.6326C33.9708 67.6166 34.0515 67.6166 34.1323 67.6326C35.5865 67.9196 36.3621 67.0267 37.0407 65.9902C37.3638 65.48 37.6062 64.9379 37.7677 64.3639C37.8485 64.029 37.7839 63.8855 37.3961 63.9015C36.8306 63.9174 36.2651 63.9015 35.6996 63.9015C31.9834 63.9015 28.2834 63.9015 24.5672 63.9015C22.6283 63.9015 21.4326 62.7215 21.4326 60.7763C21.4326 52.0066 21.4326 43.2369 21.4326 34.4673C21.4326 32.538 22.6283 31.358 24.5995 31.358C30.6747 31.358 36.7337 31.358 42.8089 31.358Z" fill="white"/>
<path d="M48.5294 53.362C48.5294 48.9931 48.5294 44.6082 48.5294 40.2394C48.5294 38.2462 49.6928 37.0823 51.7124 37.0823C57.3514 37.0823 63.0065 37.0823 68.6454 37.0823C70.6651 37.0823 71.8284 38.2462 71.8446 40.2234C71.8446 41.9933 71.8446 43.7632 71.8446 45.533C71.8446 46.3462 71.5053 46.713 70.8105 46.713C70.1642 46.697 69.8249 46.3143 69.8249 45.549C69.8249 44.8474 69.8087 44.1618 69.8249 43.4602C69.841 43.0616 69.7279 42.8862 69.2755 42.8862C63.2165 42.9021 57.1413 42.9021 51.0823 42.8862C50.6945 42.8862 50.5491 43.0138 50.5491 43.3964C50.5653 48.7539 50.5653 54.0954 50.5491 59.4529C50.5491 59.995 50.8399 59.995 51.2439 59.995C55.1378 59.995 59.0317 59.995 62.9095 59.995C63.7012 59.995 64.1052 60.3618 64.089 61.0314C64.0729 61.5576 63.7335 61.9244 63.2004 61.9881C63.0065 62.0041 62.7964 62.0041 62.6025 62.0041C58.8379 62.0041 55.057 62.02 51.2923 61.9881C50.7107 61.9881 50.5168 62.1476 50.5491 62.7216C50.5976 63.8377 50.5653 64.9539 50.5653 66.07C50.5653 67.3934 50.8238 67.6486 52.1325 67.6486C55.6064 67.6486 59.0641 67.6486 62.5379 67.6486C62.7156 67.6486 62.8934 67.6486 63.0872 67.6486C63.7335 67.6804 64.1213 68.0631 64.1052 68.6531C64.089 69.2271 63.7174 69.6098 63.1034 69.6257C62.4248 69.6417 61.73 69.6417 61.0514 69.6417C57.933 69.6417 54.7985 69.6417 51.6801 69.6417C49.7574 69.6417 48.5456 68.4617 48.5456 66.5643C48.5133 62.1635 48.5294 57.7627 48.5294 53.362ZM60.1143 40.909C60.2274 40.909 60.3566 40.909 60.4698 40.909C63.3781 40.909 66.2703 40.909 69.1786 40.909C69.6472 40.909 69.841 40.7974 69.8087 40.3031C69.7764 39.4421 69.4371 39.0754 68.5485 39.0754C62.958 39.0754 57.3837 39.0754 51.7932 39.0754C51.567 39.0754 51.357 39.0913 51.1469 39.1711C50.6784 39.3783 50.4037 40.0002 50.5491 40.5901C50.6784 41.1004 51.1146 40.8771 51.4054 40.8771C54.3138 40.909 57.2221 40.909 60.1143 40.909Z" fill="white"/>
<path d="M65.9461 59.0223C65.9461 56.535 65.9461 54.0476 65.9461 51.5602C65.9461 49.7424 67.1741 48.5306 69.0161 48.5306C71.5205 48.5306 74.0087 48.5306 76.5131 48.5306C78.355 48.5306 79.583 49.7424 79.583 51.5602C79.583 56.5668 79.583 61.5735 79.583 66.5802C79.583 68.3979 78.355 69.6097 76.5131 69.6097C74.0087 69.6097 71.5205 69.6097 69.0161 69.6097C67.1741 69.6097 65.9623 68.3979 65.9461 66.5802C65.93 64.0769 65.9461 61.5576 65.9461 59.0223ZM67.9658 59.0861C67.9658 60.4733 67.982 61.8765 67.9658 63.2637C67.9658 63.6782 68.1112 63.8217 68.5313 63.8217C71.3589 63.8058 74.1703 63.8058 76.9978 63.8217C77.4017 63.8217 77.5795 63.7261 77.5795 63.2796C77.5633 60.4733 77.5633 57.667 77.5795 54.8767C77.5795 54.494 77.4502 54.3505 77.0463 54.3505C74.2026 54.3665 71.3589 54.3665 68.5313 54.3505C68.0951 54.3505 67.982 54.51 67.982 54.9086C67.9658 56.3117 67.9658 57.6989 67.9658 59.0861ZM72.6999 52.3574C74.1379 52.3574 75.5598 52.3415 76.9978 52.3574C77.4017 52.3574 77.5795 52.2458 77.5633 51.8153C77.5472 50.9064 77.2079 50.5237 76.303 50.5237C73.9441 50.5237 71.5851 50.5237 69.2261 50.5237C69.0322 50.5237 68.8222 50.5397 68.6283 50.6035C68.1112 50.7629 67.8689 51.321 67.9658 51.9907C68.0466 52.5966 68.5313 52.3255 68.8222 52.3415C70.1148 52.3893 71.4073 52.3574 72.6999 52.3574ZM72.7807 65.8149C71.472 65.8149 70.1632 65.8149 68.8545 65.8149C67.9497 65.8149 67.7073 66.1816 68.0628 67.0267C68.289 67.5688 68.7575 67.6485 69.2584 67.6485C71.6012 67.6485 73.9279 67.6485 76.2707 67.6485C76.5131 67.6485 76.7554 67.6326 76.9817 67.5369C77.4179 67.3456 77.6764 66.7397 77.5472 66.1497C77.4341 65.6235 77.014 65.8467 76.707 65.8308C75.3982 65.7989 74.0895 65.8149 72.7807 65.8149Z" fill="white"/>
<path d="M27.3292 48.6424C27.3292 49.5353 27.3292 50.4282 27.3292 51.3211C27.3292 52.0227 26.9576 52.4213 26.3436 52.4372C25.6973 52.4532 25.3096 52.0546 25.3096 51.3211C25.3096 49.4874 25.3096 47.6697 25.3096 45.8361C25.3096 45.1345 25.6812 44.7359 26.2952 44.7199C26.9415 44.704 27.3292 45.1185 27.3292 45.8361C27.3292 46.7768 27.3292 47.7176 27.3292 48.6424Z" fill="white"/>
<path d="M54.4098 54.3664C54.4098 55.2593 54.4098 56.1523 54.4098 57.0452C54.4098 57.7786 54.022 58.1773 53.3757 58.1613C52.7618 58.1454 52.4063 57.7627 52.3901 57.0452C52.3901 55.2115 52.3901 53.3938 52.3901 51.5601C52.3901 50.8267 52.7779 50.4281 53.4242 50.444C54.0382 50.4599 54.3937 50.8586 54.4098 51.5601C54.426 52.5009 54.4098 53.4416 54.4098 54.3664Z" fill="white"/>
<path d="M42.7281 60.0747C42.3726 60.0747 42.001 60.0907 41.6455 60.0747C41.1123 60.0428 40.7569 59.6602 40.7245 59.1499C40.6922 58.6397 41.08 58.1454 41.597 58.1135C42.3564 58.0657 43.132 58.0657 43.8914 58.1135C44.4084 58.1454 44.7316 58.56 44.7316 59.1021C44.7316 59.6442 44.4246 60.0269 43.8752 60.0747C43.5036 60.1066 43.1158 60.0747 42.7281 60.0747Z" fill="white"/>
<path d="M27.3143 40.9568C27.3143 41.2916 27.3305 41.6264 27.3143 41.9613C27.282 42.5512 26.8781 42.902 26.2964 42.902C25.7147 42.902 25.3431 42.5672 25.327 41.9932C25.2947 41.3075 25.2947 40.606 25.327 39.9203C25.3431 39.3782 25.7794 38.9955 26.3126 38.9955C26.8458 38.9955 27.282 39.3623 27.3305 39.8885C27.3466 40.2392 27.3143 40.59 27.3143 40.9568Z" fill="white"/>
<path d="M54.4094 46.7131C54.4094 47.032 54.4255 47.3509 54.4094 47.6698C54.3771 48.2597 53.9893 48.6265 53.4076 48.6265C52.8098 48.6265 52.422 48.2916 52.4059 47.6857C52.3897 47.016 52.3735 46.3464 52.4059 45.6607C52.422 45.0708 52.8583 44.704 53.4238 44.72C53.9731 44.7359 54.3609 45.0867 54.4094 45.6448C54.4255 45.9956 54.4094 46.3623 54.4094 46.7131Z" fill="white"/>
<path d="M60.2111 63.8216C60.5504 63.8216 60.8897 63.8057 61.229 63.8216C61.8106 63.8694 62.1499 64.2202 62.1499 64.7783C62.1661 65.3523 61.8106 65.7669 61.2128 65.7988C60.5342 65.8307 59.8556 65.8307 59.1608 65.7988C58.563 65.7828 58.1914 65.3683 58.2075 64.8102C58.2075 64.2362 58.5792 63.8694 59.177 63.8216C59.5163 63.8057 59.8717 63.8216 60.2111 63.8216Z" fill="white"/>
</g>
<defs>
<clipPath id="clip0_559_66312">
<rect width="58.1343" height="38.2836" fill="white" transform="translate(21.4326 31.358)"/>
</clipPath>
</defs>
</svg>
