<svg width="56" height="56" viewBox="0 0 56 56" fill="none" xmlns="http://www.w3.org/2000/svg">
<path d="M16.701 17.182H13.6266L22.0084 40.8753L26.7008 27.4661L23.0627 17.182H19.8189V14.9243H34.1835V17.182H30.8197L39.2014 40.8753L42.2143 32.2653C46.1666 21.2343 38.9749 17.798 38.9749 15.3362C38.9749 12.8744 40.9707 10.8787 43.4324 10.8787C43.5656 10.8787 43.6949 10.8859 43.8216 10.8978C39.6504 6.96012 34.026 4.54541 27.837 4.54541C19.7502 4.54541 12.627 8.66747 8.45117 14.9243H16.7008V17.182H16.701Z" fill="#00769D"/>
<path d="M4.54492 27.8368C4.54492 36.754 9.55691 44.4995 16.9167 48.4133L6.40573 18.7012C5.20839 21.5063 4.54492 24.594 4.54492 27.8368Z" fill="#00769D"/>
<path d="M48.1059 16.3589C48.4391 18.3206 48.3382 20.5253 47.827 22.7387H47.9196L47.5674 23.7451C47.3587 24.4717 47.096 25.215 46.7975 25.9454L38.7832 48.3976C46.1276 44.479 51.1268 36.7419 51.1268 27.836C51.1268 23.6628 50.0282 19.7466 48.1059 16.3589Z" fill="#00769D"/>
<path d="M20.6543 49.9969C22.917 50.7299 25.3306 51.1275 27.8376 51.1275C30.2288 51.1275 32.5356 50.7666 34.7072 50.0971L27.8942 30.8384L20.6543 49.9969Z" fill="#00769D"/>
<path d="M47.5199 8.1531C42.2623 2.89549 35.2718 0 27.8364 0C20.401 0 13.4107 2.89549 8.1531 8.1531C2.89549 13.4107 0 20.401 0 27.8366C0 35.272 2.89549 42.2623 8.1531 47.5199C13.4107 52.7775 20.4011 55.673 27.8366 55.673C35.272 55.673 42.2623 52.7775 47.52 47.5199C52.7776 42.2623 55.6731 35.2718 55.6731 27.8366C55.673 20.401 52.7775 13.4107 47.5199 8.1531ZM27.8364 53.7093C13.5701 53.7093 1.96366 42.1029 1.96366 27.8366C1.96366 13.5703 13.5701 1.96366 27.8364 1.96366C42.1027 1.96366 53.7092 13.5703 53.7092 27.8366C53.7092 42.1029 42.1029 53.7093 27.8364 53.7093Z" fill="#00769D"/>
</svg>
