<svg width="95" height="95" viewBox="0 0 95 95" fill="none" xmlns="http://www.w3.org/2000/svg">
<g opacity="0.04">
<path d="M28.4979 29.3189H23.2517L37.5543 69.7491L45.5614 46.8677L39.3534 29.3189H33.8182V25.4665H58.33V29.3189H52.5899L66.8923 69.7491L72.0335 55.057C78.7777 36.2337 66.5059 30.3702 66.5059 26.1693C66.5059 21.9684 69.9114 18.5631 74.1121 18.5631C74.3394 18.5631 74.5601 18.5754 74.7763 18.5956C67.6586 11.8764 58.0611 7.75598 47.5003 7.75598C33.701 7.75598 21.5459 14.7898 14.4204 25.4665H28.4975V29.3189H28.4979Z" fill="#00769D"/>
<path d="M7.75537 47.5005C7.75537 62.7167 16.3078 75.9335 28.8665 82.6121L10.9306 31.9115C8.8875 36.6981 7.75537 41.967 7.75537 47.5005Z" fill="#00769D"/>
<path d="M82.0874 27.9147C82.6559 31.262 82.4838 35.0243 81.6114 38.8012H81.7695L81.1685 40.5184C80.8125 41.7583 80.3641 43.0267 79.8548 44.273L66.1792 82.5853C78.7116 75.8986 87.2422 62.6961 87.2422 47.4992C87.2422 40.3781 85.3675 33.6954 82.0874 27.9147Z" fill="#00769D"/>
<path d="M35.2451 85.3145C39.1063 86.5652 43.2248 87.2437 47.5027 87.2437C51.583 87.2437 55.5193 86.6278 59.2249 85.4855L47.5993 52.6225L35.2451 85.3145Z" fill="#00769D"/>
<path d="M81.0876 13.9124C72.1161 4.94085 60.1876 0 47.4999 0C34.8122 0 22.8839 4.94085 13.9124 13.9124C4.94085 22.8839 0 34.8122 0 47.5001C0 60.1878 4.94085 72.1161 13.9124 81.0876C22.8839 90.0592 34.8124 95 47.5001 95C60.1878 95 72.1161 90.0592 81.0878 81.0876C90.0594 72.1161 95.0002 60.1876 95.0002 47.5001C95 34.8122 90.0592 22.8839 81.0876 13.9124ZM47.4999 91.6492C23.156 91.6492 3.35077 71.844 3.35077 47.5001C3.35077 23.1562 23.156 3.35077 47.4999 3.35077C71.8438 3.35077 91.649 23.1562 91.649 47.5001C91.649 71.844 71.844 91.6492 47.4999 91.6492Z" fill="#00769D"/>
</g>
</svg>
